<?xml version="1.0" encoding="UTF-8"?>
<svg id="Layer_2" data-name="Layer 2" xmlns="http://www.w3.org/2000/svg" viewBox="0 0 350.67 350.68">
  <defs>
    <style>
      .cls-1 {
        font-family: Nunito-Bold, Nunito;
        font-size: 38px;
        font-weight: 700;
      }
    </style>
  </defs>
  <g id="Layer_1-2" data-name="Layer 1">
    <text class="cls-1" transform="translate(68.87 79.13) rotate(-42.9)"><tspan x="0" y="0">P</tspan></text>
    <text class="cls-1" transform="translate(86.12 63.19) rotate(-34.52)"><tspan x="0" y="0">e</tspan></text>
    <text class="cls-1" transform="translate(102.21 52.26) rotate(-27.85)"><tspan x="0" y="0">r</tspan></text>
    <text class="cls-1" transform="translate(114.25 45.73) rotate(-21.56)"><tspan x="0" y="0">s</tspan></text>
    <text class="cls-1" transform="translate(130.55 39.1) rotate(-13.78)"><tspan x="0" y="0">o</tspan></text>
    <text class="cls-1" transform="translate(150.86 34.04) rotate(-5.31)"><tspan x="0" y="0">n</tspan></text>
    <text class="cls-1" transform="translate(172.13 32.06) rotate(2.78)"><tspan x="0" y="0">a</tspan></text>
    <text class="cls-1" transform="translate(191.97 33.26) rotate(8.54)"><tspan x="0" y="0">l</tspan></text>
    <text class="cls-1" transform="translate(201.1 34.61) rotate(12.38)"><tspan x="0" y="0"> </tspan></text>
    <text class="cls-1" transform="translate(210.58 36.27) rotate(18.87)"><tspan x="0" y="0">T</tspan></text>
    <text class="cls-1" transform="translate(229.17 42.67) rotate(25.04)"><tspan x="0" y="0">r</tspan></text>
    <text class="cls-1" transform="translate(241.72 48.29) rotate(31.75)"><tspan x="0" y="0">a</tspan></text>
    <text class="cls-1" transform="translate(258.49 58.95) rotate(37.52)"><tspan x="0" y="0">i</tspan></text>
    <text class="cls-1" transform="translate(265.88 64.16) rotate(43.61)"><tspan x="0" y="0">n</tspan></text>
    <text class="cls-1" transform="translate(281.33 78.89) rotate(51.7)"><tspan x="0" y="0">e</tspan></text>
    <text class="cls-1" transform="translate(293.29 94.24) rotate(58.35)"><tspan x="0" y="0">r</tspan></text>
    <text class="cls-1" transform="translate(300.59 106.2) rotate(63.12)"><tspan x="0" y="0"> </tspan></text>
    <text class="cls-1" transform="translate(305.38 114.51) rotate(70.08)"><tspan x="0" y="0">C</tspan></text>
    <text class="cls-1" transform="translate(313.66 137.48) rotate(79.15)"><tspan x="0" y="0">u</tspan></text>
    <text class="cls-1" transform="translate(317.57 158.27) rotate(86.89)"><tspan x="0" y="0">s</tspan></text>
    <text class="cls-1" transform="translate(318.45 175.81) rotate(92.95)"><tspan x="0" y="0">t</tspan></text>
    <text class="cls-1" transform="translate(318.05 189.11) rotate(99.81)"><tspan x="0" y="0">o</tspan></text>
    <text class="cls-1" transform="translate(315.12 209.72) rotate(110.44)"><tspan x="0" y="0">m</tspan></text>
    <text class="cls-1" transform="translate(303.48 239.57) rotate(120.71)"><tspan x="0" y="0">e</tspan></text>
    <text class="cls-1" transform="translate(293.44 256.22) rotate(127.36)"><tspan x="0" y="0">r</tspan></text>
    <text class="cls-1" transform="translate(284.87 267.34) rotate(132.11)"><tspan x="0" y="0"> </tspan></text>
    <text class="cls-1" transform="translate(278.85 274.81) rotate(139.11)"><tspan x="0" y="0">R</tspan></text>
    <text class="cls-1" transform="translate(259.51 291.34) rotate(148.02)"><tspan x="0" y="0">e</tspan></text>
    <text class="cls-1" transform="translate(242.81 301.49) rotate(153.75)"><tspan x="0" y="0">l</tspan></text>
    <text class="cls-1" transform="translate(234.84 305.76) rotate(159.57)"><tspan x="0" y="0">a</tspan></text>
    <text class="cls-1" transform="translate(216.26 312.53) rotate(166.24)"><tspan x="0" y="0">t</tspan></text>
    <text class="cls-1" transform="translate(203.11 315.68) rotate(170.81)"><tspan x="0" y="0">i</tspan></text>
    <text class="cls-1" transform="translate(194.28 317.47) rotate(176.83)"><tspan x="0" y="0">o</tspan></text>
    <text class="cls-1" transform="translate(173.37 318.71) rotate(-174.83)"><tspan x="0" y="0">n</tspan></text>
    <text class="cls-1" transform="translate(152.06 316.71) rotate(-167.01)"><tspan x="0" y="0">s</tspan></text>
    <text class="cls-1" transform="translate(134.88 312.94) rotate(-159.16)"><tspan x="0" y="0">h</tspan></text>
    <text class="cls-1" transform="translate(114.84 304.99) rotate(-153.01)"><tspan x="0" y="0">i</tspan></text>
    <text class="cls-1" transform="translate(106.66 301.27) rotate(-146.78)"><tspan x="0" y="0">p</tspan></text>
    <text class="cls-1" transform="translate(88.31 288.88) rotate(-140.44)"><tspan x="0" y="0"> </tspan></text>
    <text class="cls-1" transform="translate(80.49 283.48) rotate(-132.38)"><tspan x="0" y="0">M</tspan></text>
    <text class="cls-1" transform="translate(59.97 260.4) rotate(-122.35)"><tspan x="0" y="0">a</tspan></text>
    <text class="cls-1" transform="translate(49.35 243.87) rotate(-114.13)"><tspan x="0" y="0">n</tspan></text>
    <text class="cls-1" transform="translate(40.63 224.4) rotate(-105.88)"><tspan x="0" y="0">a</tspan></text>
    <text class="cls-1" transform="translate(35.11 205.56) rotate(-97.49)"><tspan x="0" y="0">g</tspan></text>
    <text class="cls-1" transform="translate(32.23 183.67) rotate(-89.07)"><tspan x="0" y="0">e</tspan></text>
    <text class="cls-1" transform="translate(31.83 164.46) rotate(-79.11)"><tspan x="0" y="0">m</tspan></text>
    <text class="cls-1" transform="translate(38.36 133.07) rotate(-68.8)"><tspan x="0" y="0">e</tspan></text>
    <text class="cls-1" transform="translate(45.22 115.02) rotate(-60.63)"><tspan x="0" y="0">n</tspan></text>
    <text class="cls-1" transform="translate(55.93 96.41) rotate(-53.68)"><tspan x="0" y="0">t</tspan></text>
    <text class="cls-1" transform="translate(63.95 85.58) rotate(-49.05)"><tspan x="0" y="0"> </tspan></text>
  </g>
</svg>