<?xml version="1.0" encoding="UTF-8"?>
<svg id="Layer_2" data-name="Layer 2" xmlns="http://www.w3.org/2000/svg" viewBox="0 0 289.98 289.98">
  <defs>
    <style>
      .cls-1 {
        fill: #010101;
      }

      .cls-1, .cls-2 {
        font-family: Nunito-Bold, Nunito;
        font-size: 31.42px;
        font-weight: 700;
      }

      .cls-2 {
        fill: #6ebe45;
      }
    </style>
  </defs>
  <g id="Layer_1-2" data-name="Layer 1">
    <text class="cls-2" transform="translate(56.94 65.44) rotate(-42.91)"><tspan x="0" y="0">P</tspan></text>
    <text class="cls-2" transform="translate(71.21 52.25) rotate(-34.53)"><tspan x="0" y="0">e</tspan></text>
    <text class="cls-2" transform="translate(84.49 43.23) rotate(-27.87)"><tspan x="0" y="0">r</tspan></text>
    <text class="cls-2" transform="translate(94.44 37.82) rotate(-21.59)"><tspan x="0" y="0">s</tspan></text>
    <text class="cls-2" transform="translate(107.9 32.34) rotate(-13.81)"><tspan x="0" y="0">o</tspan></text>
    <text class="cls-2" transform="translate(124.7 28.15) rotate(-5.35)"><tspan x="0" y="0">n</tspan></text>
    <text class="cls-2" transform="translate(142.28 26.5) rotate(2.74)"><tspan x="0" y="0">a</tspan></text>
    <text class="cls-2" transform="translate(158.67 27.48) rotate(8.5)"><tspan x="0" y="0">l</tspan></text>
    <text class="cls-2" transform="translate(166.2 28.58) rotate(12.33)"><tspan x="0" y="0"> </tspan></text>
    <text class="cls-2" transform="translate(174.04 29.95) rotate(18.82)"><tspan x="0" y="0">T</tspan></text>
    <text class="cls-2" transform="translate(189.4 35.22) rotate(24.97)"><tspan x="0" y="0">r</tspan></text>
    <text class="cls-2" transform="translate(199.78 39.86) rotate(31.68)"><tspan x="0" y="0">a</tspan></text>
    <text class="cls-2" transform="translate(213.66 48.66) rotate(37.46)"><tspan x="0" y="0">i</tspan></text>
    <text class="cls-2" transform="translate(219.74 52.93) rotate(43.53)"><tspan x="0" y="0">n</tspan></text>
    <text class="cls-2" transform="translate(232.53 65.09) rotate(51.61)"><tspan x="0" y="0">e</tspan></text>
    <text class="cls-2" transform="translate(242.44 77.75) rotate(58.25)"><tspan x="0" y="0">r</tspan></text>
    <text class="cls-1" transform="translate(248.48 87.63) rotate(63.02)"><tspan x="0" y="0"> </tspan></text>
    <text class="cls-1" transform="translate(252.45 94.48) rotate(69.97)"><tspan x="0" y="0">C</tspan></text>
    <text class="cls-1" transform="translate(259.33 113.45) rotate(79.04)"><tspan x="0" y="0">u</tspan></text>
    <text class="cls-1" transform="translate(262.6 130.63) rotate(86.78)"><tspan x="0" y="0">s</tspan></text>
    <text class="cls-1" transform="translate(263.36 145.14) rotate(92.83)"><tspan x="0" y="0">t</tspan></text>
    <text class="cls-1" transform="translate(263.05 156.1) rotate(99.68)"><tspan x="0" y="0">o</tspan></text>
    <text class="cls-1" transform="translate(260.67 173.13) rotate(110.3)"><tspan x="0" y="0">m</tspan></text>
    <text class="cls-1" transform="translate(251.1 197.84) rotate(120.57)"><tspan x="0" y="0">e</tspan></text>
    <text class="cls-1" transform="translate(242.85 211.62) rotate(127.21)"><tspan x="0" y="0">r</tspan></text>
    <text class="cls-1" transform="translate(235.8 220.81) rotate(131.95)"><tspan x="0" y="0"> </tspan></text>
    <text class="cls-1" transform="translate(230.83 227) rotate(138.95)"><tspan x="0" y="0">R</tspan></text>
    <text class="cls-1" transform="translate(214.9 240.7) rotate(147.84)"><tspan x="0" y="0">e</tspan></text>
    <text class="cls-1" transform="translate(201.11 249.14) rotate(153.58)"><tspan x="0" y="0">l</tspan></text>
    <text class="cls-1" transform="translate(194.56 252.68) rotate(159.38)"><tspan x="0" y="0">a</tspan></text>
    <text class="cls-1" transform="translate(179.22 258.32) rotate(166.05)"><tspan x="0" y="0">t</tspan></text>
    <text class="cls-1" transform="translate(168.36 260.96) rotate(170.61)"><tspan x="0" y="0">i</tspan></text>
    <text class="cls-1" transform="translate(161.07 262.46) rotate(176.63)"><tspan x="0" y="0">o</tspan></text>
    <text class="cls-1" transform="translate(143.8 263.55) rotate(-175.04)"><tspan x="0" y="0">n</tspan></text>
    <text class="cls-1" transform="translate(126.18 261.96) rotate(-167.23)"><tspan x="0" y="0">s</tspan></text>
    <text class="cls-1" transform="translate(111.98 258.9) rotate(-159.38)"><tspan x="0" y="0">h</tspan></text>
    <text class="cls-1" transform="translate(95.4 252.4) rotate(-153.24)"><tspan x="0" y="0">i</tspan></text>
    <text class="cls-1" transform="translate(88.62 249.35) rotate(-147)"><tspan x="0" y="0">p</tspan></text>
    <text class="cls-1" transform="translate(73.42 239.17) rotate(-140.67)"><tspan x="0" y="0"> </tspan></text>
    <text class="cls-1" transform="translate(66.94 234.74) rotate(-132.62)"><tspan x="0" y="0">M</tspan></text>
    <text class="cls-1" transform="translate(49.91 215.74) rotate(-122.6)"><tspan x="0" y="0">a</tspan></text>
    <text class="cls-1" transform="translate(41.08 202.13) rotate(-114.39)"><tspan x="0" y="0">n</tspan></text>
    <text class="cls-1" transform="translate(33.79 186.07) rotate(-106.14)"><tspan x="0" y="0">a</tspan></text>
    <text class="cls-1" transform="translate(29.16 170.52) rotate(-97.76)"><tspan x="0" y="0">g</tspan></text>
    <text class="cls-1" transform="translate(26.65 152.42) rotate(-89.07)"><tspan x="0" y="0">e</tspan></text>
    <text class="cls-1" transform="translate(26.28 136.59) rotate(-79.4)"><tspan x="0" y="0">m</tspan></text>
    <text class="cls-1" transform="translate(31.55 110.61) rotate(-69.1)"><tspan x="0" y="0">e</tspan></text>
    <text class="cls-1" transform="translate(37.13 95.69) rotate(-60.95)"><tspan x="0" y="0">n</tspan></text>
    <text class="cls-1" transform="translate(45.89 80.27) rotate(-54)"><tspan x="0" y="0">t</tspan></text>
    <text class="cls-1" transform="translate(52.49 71.26) rotate(-49.36)"><tspan x="0" y="0"> </tspan></text>
  </g>
</svg>