<?xml version="1.0" encoding="utf-8"?>
<!-- Generator: Adobe Illustrator 27.9.0, SVG Export Plug-In . SVG Version: 6.00 Build 0)  -->
<svg version="1.1" id="Layer_1" xmlns="http://www.w3.org/2000/svg" xmlns:xlink="http://www.w3.org/1999/xlink" x="0px" y="0px"
	 viewBox="0 0 38.4 65.4" style="enable-background:new 0 0 38.4 65.4;" xml:space="preserve">
<style type="text/css">
	.st0{fill:#D9E1E4;}
	.st1{fill:#94B5BF;}
	.st2{fill:#FBE481;}
	.st3{opacity:0.5;fill:#F8A547;enable-background:new    ;}
	.st4{fill:#FCA100;}
	.st5{fill:#FFFFFF;}
	.st6{fill:#3E3126;}
	.st7{fill:#FFB320;}
	.st8{opacity:0.75;fill:#FFB320;enable-background:new    ;}
	.st9{opacity:0.35;fill:#FFB320;enable-background:new    ;}
	.st10{opacity:0.75;fill:#E2AB63;enable-background:new    ;}
	.st11{opacity:0.35;fill:#E2AB63;enable-background:new    ;}
	.st12{fill:#FFEFAE;}
	.st13{fill:#F5F5F5;}
	.st14{fill:#E1E1E1;}
	.st15{fill:#57D909;}
	.st16{opacity:0.7;fill:#FFFFFF;}
	.st17{opacity:0.1;fill:#00DFBF;}
	.st18{opacity:5.000000e-02;}
	.st19{opacity:0.5;fill:#FFFFFF;}
	.st20{opacity:0.4;fill:#FFFFFF;}
	.st21{opacity:0.3;}
	.st22{opacity:0.1;}
	.st23{opacity:0.2;}
	.st24{fill:#375A64;}
	.st25{fill:#2B454E;}
	.st26{fill:#FFAAA8;}
	.st27{fill:#FF9090;}
	.st28{opacity:0.8;fill:#FAFAFA;}
	.st29{opacity:0.2;fill:#00DFBF;}
	.st30{fill:#00DFBF;}
	.st31{opacity:0.6;}
	.st32{fill:#FAFAFA;}
	.st33{opacity:0.8;}
	.st34{fill:#1A2E35;}
	.st35{fill:none;stroke:#ECECEC;stroke-width:0.9402;stroke-linecap:round;stroke-linejoin:round;stroke-miterlimit:10;}
	.st36{fill:#C76668;}
	.st37{fill:#B0494C;}
	.st38{opacity:0.4;}
	.st39{fill:none;stroke:#2B454E;stroke-width:0.9402;stroke-linecap:round;stroke-linejoin:round;stroke-miterlimit:10;}
</style>
<g id="Layer_2_00000155869046251371109610000006182876981109753530_">
	<g id="Layer_1-2">
		<path class="st0" d="M-47,149.5v2c0,0.7,0.4,1.4,1.1,1.6c0.2,0.1,0.4,0.2,0.7,0.2l0.1,0.3v1.5c0,0.6,0.3,1.1,0.8,1.3l0.4,0.2v0.3
			c0,2.7,2.2,4.9,4.9,4.9c2.7,0,4.9-2.2,4.9-4.9l0,0l0.2-0.4l0.3-0.1c0.5-0.2,0.8-0.7,0.8-1.3v-1.7c0.3-0.1,0.6-0.2,0.8-0.3
			c0.7-0.3,1.1-0.9,1.1-1.6v-2L-47,149.5z"/>
		<path class="st1" d="M-38.9,158.9c-1.6,0-3.2-0.3-4.7-0.8c-0.2-0.1-0.4-0.4-0.3-0.6c0.1-0.2,0.4-0.4,0.6-0.3l0,0
			c2.7,0.9,5.5,0.9,8.2,0c0.3-0.1,0.5,0.1,0.6,0.3c0.1,0.2,0,0.4-0.2,0.6C-36,158.7-37.5,158.9-38.9,158.9z"/>
		<path class="st1" d="M-38.8,152.3c-2.8,0-5.5-0.5-8.2-1.4c-0.2-0.1-0.4-0.4-0.3-0.6c0,0,0,0,0,0c0.1-0.2,0.4-0.4,0.6-0.3l0,0
			c0.1,0,7.8,2.9,14.9,0c0.2-0.1,0.5,0,0.6,0.3l0,0c0.1,0.2,0,0.5-0.3,0.6C-33.7,151.8-36.2,152.3-38.8,152.3z"/>
		<path class="st1" d="M-33,153.4v1.3l-0.2,0.1c-2,0.7-4.1,1.2-6.2,1.2c-2,0-4.1-0.4-6-1.1v-1.2v-0.1c1.9,0.7,4,1.1,6,1.1L-33,153.4
			z"/>
		<path class="st2" d="M-29.7,148.3v-3.9c0,0-0.5-7.2,2.9-12.5s6.4-8.6,6.4-16.2c0-7.6-6.6-18.2-18.7-18.2s-18.7,10.6-18.7,18.2
			s3,10.9,6.3,16.2c2,3.1,3,6.7,2.9,10.4v6c0,0.4,0.2,0.7,0.5,0.8c5.7,2.5,12.2,2.5,17.9,0C-29.8,149-29.6,148.7-29.7,148.3z"/>
		<path class="st3" d="M-27.1,132.1c-2,3.1-3,6.7-2.9,10.4v6c0,0.4-0.2,0.7-0.5,0.8c-2.1,0.9-4.3,1.6-6.5,1.8c0-0.7-0.1-1.6-0.1-2.6
			v-6c-0.1-3.7,0.9-7.3,2.8-10.4c3.3-5.4,6.4-8.6,6.4-16.2c0-6.8-5.3-16-15.1-17.8c1.2-0.2,2.4-0.3,3.6-0.3
			c12.1,0,18.7,10.6,18.7,18.2S-23.8,126.8-27.1,132.1z"/>
		<path class="st4" d="M-27.3,132c-1.5,2.5-2.2,5.3-2.2,8.2v2.4l-0.7,5.7c0,0.3-0.2,0.7-0.5,0.8c-2.1,0.9-4.3,1.5-6.5,1.8v-0.2
			c1.8-0.2,3.5-0.6,5.2-1.2c0.3-0.2,0.5,0.1,0.5-0.3v-7c-0.1-3.7,0.9-7.3,2.9-10.4c3.3-5.3,6.4-8.6,6.4-16.2
			c0-7.6-6.4-17.9-18.1-18.2h0.8c12.1,0,18.7,10.6,18.7,18.2S-23.9,126.6-27.3,132z"/>
		<path class="st5" d="M-51.4,132c2,3.1,3,6.7,2.9,10.4v6c0,0.4,0.2,0.7,0.5,0.8c2.1,0.9,4.3,1.6,6.5,1.8v-0.2
			c-1.8-0.3-3.5-0.8-5.2-1.6c-0.3-0.1-0.5,0.5-0.5,0.1l0.8-3.8c1-4.2,0.4-8.7-1.6-12.5c-0.2-0.3-0.4-0.7-0.6-1
			c-3.3-5.3-6.4-8.6-6.4-16.2c0-7.6,4.9-17.8,16.6-18.2h-0.8c-5.7-0.1-11,2.5-14.5,6.9c-2.6,3.2-4.1,7.2-4.2,11.3
			C-57.8,123.4-54.7,126.6-51.4,132z"/>
		<path class="st6" d="M-53.5,129.2c-0.2,0-0.4-0.1-0.5-0.2c-2.5-3.8-4.4-7.2-4.4-13.3c0.1-3.1,0.9-6.1,2.5-8.8
			c0.1-0.3,0.5-0.4,0.7-0.2c0.3,0.1,0.4,0.5,0.2,0.7l0,0c-1.4,2.5-2.2,5.4-2.3,8.3c0,5.8,1.7,8.9,4.2,12.7c0.2,0.3,0.1,0.6-0.2,0.8
			C-53.3,129.2-53.4,129.2-53.5,129.2z"/>
		<path class="st6" d="M-29.6,140.7L-29.6,140.7c-0.3,0-0.6-0.3-0.5-0.6c0.1-0.8,0.2-1.6,0.4-2.4c0.5-2.2,1.3-4.2,2.5-6.1
			c0.5-0.8,1-1.6,1.5-2.3c2.7-4.1,4.8-7.3,4.8-13.6c0-7.4-6.3-17.6-18.1-17.6c-4.4,0-8.7,1.6-11.9,4.5c-0.2,0.2-0.6,0.2-0.8,0
			c-0.2-0.2-0.2-0.5,0-0.8l0,0c3.5-3.1,8-4.8,12.7-4.8c12.5,0,19.2,10.9,19.2,18.7c0,6.6-2.3,10.1-4.9,14.1c-0.5,0.8-1,1.5-1.5,2.3
			c-1.1,1.8-1.9,3.7-2.4,5.8c-0.2,0.7-0.3,1.5-0.4,2.3C-29.1,140.5-29.3,140.7-29.6,140.7z"/>
		<path class="st6" d="M-39,151.6c-3.2,0-6.4-0.7-9.3-2c-0.5-0.2-0.8-0.7-0.8-1.3v-4.5c0-0.3,0.3-0.5,0.6-0.5c0.3,0,0.5,0.2,0.5,0.5
			l0,0v4.5c0,0.1,0.1,0.3,0.2,0.3c5.5,2.5,11.9,2.5,17.4,0c0.1-0.1,0.2-0.2,0.2-0.3v-6.6c0-0.3,0.2-0.6,0.5-0.6
			c0.3,0,0.6,0.2,0.6,0.5c0,0,0,0.1,0,0.2v6.6c0,0.6-0.3,1.1-0.8,1.3C-32.8,150.9-35.9,151.6-39,151.6z"/>
		<path class="st6" d="M-48.9,139c-0.3,0-0.5-0.2-0.5-0.4c-0.3-1.5-0.8-3-1.5-4.5c-0.1-0.3,0-0.6,0.3-0.7s0.6,0,0.7,0.3l0,0
			c0.7,1.5,1.2,3.1,1.5,4.7c0.1,0.3-0.1,0.6-0.4,0.6L-48.9,139z"/>
		
			<ellipse transform="matrix(0.3463 -0.9381 0.9381 0.3463 -133.4663 53.5037)" class="st7" cx="-28.3" cy="122.5" rx="2.3" ry="1.6"/>
		<circle class="st7" cx="-26.5" cy="118.1" r="1"/>
		<circle class="st8" cx="-29.1" cy="118.8" r="0.4"/>
		<circle class="st7" cx="-30.8" cy="124" r="0.7"/>
		<circle class="st9" cx="-27.4" cy="115" r="0.7"/>
		<circle class="st9" cx="-29.8" cy="116.5" r="0.6"/>
		<circle class="st9" cx="-31.3" cy="120.4" r="0.5"/>
		<circle class="st10" cx="-33" cy="109.7" r="0.4"/>
		<circle class="st11" cx="-34.8" cy="105.9" r="0.7"/>
		<circle class="st11" cx="-35.2" cy="108.7" r="0.6"/>
		<circle class="st11" cx="-33.3" cy="112.3" r="0.5"/>
		<path class="st6" d="M-37.8,150.9c-0.2,0-0.4-0.2-0.4-0.4l0,0v-15.3h-2.1v15.1c0,0.2-0.3,0.4-0.5,0.4c-0.2,0-0.3-0.2-0.4-0.4
			v-15.1h-2.1c-1.6,0-2.9-1.3-2.9-2.9l0,0v-0.5c0.1-1.6,1.5-2.8,3.1-2.7c1.5,0.1,2.6,1.3,2.7,2.7v2.6h2.1v-2.6
			c0.1-1.6,1.5-2.8,3.1-2.7c1.5,0.1,2.6,1.3,2.7,2.7v0.5c0,1.6-1.3,2.9-2.9,2.9l0,0h-2v15.3C-37.4,150.7-37.6,150.9-37.8,150.9z
			 M-37.4,134.3h2.1c1.1,0,2-0.9,2-2v-0.5c-0.1-1.1-1.1-2-2.2-1.9c-1,0.1-1.8,0.9-1.9,1.9L-37.4,134.3z M-43.3,129.7
			c-1.1,0-2,0.9-2,2v0.5c0,1.1,0.9,2,2,2h2.1v-2.4c0-1.1-0.9-2.1-2-2.1H-43.3z"/>
		
			<ellipse transform="matrix(0.9676 -0.2526 0.2526 0.9676 -28.2969 -3.891)" class="st7" cx="-29.3" cy="108.3" rx="2.8" ry="3.6"/>
		<path class="st5" d="M-42.6,154.2h-0.1c-1.1-0.2-2.2-0.6-3.2-1c-0.8-0.3-1.3-1.1-1.2-2c0-0.3,0.3-0.4,0.5-0.4
			c0.3,0,0.5,0.3,0.4,0.5c0,0,0,0,0,0l0,0c-0.1,0.4,0.1,0.8,0.5,1c1,0.4,2.1,0.7,3.1,0.9c0.3,0.1,0.4,0.3,0.4,0.6
			C-42.2,154.1-42.4,154.2-42.6,154.2z"/>
		<path class="st6" d="M-42.2,154.8L-42.2,154.8c-1.4-0.3-2.7-0.6-4-1.2c-0.8-0.3-1.4-1.1-1.4-2v-2c0-0.2,0.1-0.5,0.4-0.5
			c0.2,0,0.4,0.1,0.5,0.4c0,0,0,0.1,0,0.1v2c0,0.5,0.3,1,0.8,1.2c1.2,0.5,2.5,0.9,3.8,1.1c0.2,0,0.4,0.3,0.3,0.5c0,0,0,0,0,0l0,0
			C-41.8,154.6-42,154.8-42.2,154.8z"/>
		<path class="st6" d="M-39.3,155.1c-0.2,0-0.5-0.1-0.5-0.4c0-0.2,0.1-0.5,0.4-0.5c0,0,0,0,0,0h0.1c2.4,0,4.8-0.5,7-1.4
			c0.5-0.2,0.8-0.7,0.8-1.2v-2c0-0.2,0.1-0.5,0.4-0.5c0.2,0,0.4,0.1,0.5,0.4c0,0,0,0.1,0,0.1v2c0,0.9-0.5,1.7-1.4,2
			C-34.3,154.5-36.8,155.1-39.3,155.1z"/>
		<path class="st6" d="M-39,158.1c-1.9,0-3.8-0.4-5.6-1.1c-0.7-0.3-1.1-0.9-1.1-1.7v-1.5c0-0.2,0.1-0.5,0.4-0.5
			c0.2,0,0.4,0.1,0.5,0.4c0,0,0,0.1,0,0.1v1.5c0,0.4,0.2,0.7,0.6,0.9c1.7,0.7,3.5,1.1,5.3,1.1c0.2,0,0.4,0.1,0.5,0.4
			c0,0.2-0.1,0.4-0.3,0.5c0,0,0,0,0,0L-39,158.1L-39,158.1z"/>
		<path class="st6" d="M-39.2,158.1c-0.2,0-0.5-0.1-0.5-0.4c0-0.2,0.1-0.5,0.4-0.5c0,0,0,0,0,0h0.1c1.8,0,3.6-0.4,5.3-1.1
			c0.4-0.1,0.6-0.5,0.6-0.9v-1.5c0-0.2,0.1-0.5,0.4-0.5c0.2,0,0.4,0.1,0.5,0.4c0,0,0,0.1,0,0.1v1.5c0,0.7-0.4,1.4-1.1,1.7
			C-35.4,157.7-37.3,158.1-39.2,158.1z"/>
		<path class="st6" d="M-39.1,162.4c-2.9,0-5.3-2.4-5.3-5.3l0,0c0-0.2,0.1-0.5,0.4-0.5c0.2,0,0.4,0.1,0.5,0.4c0,0,0,0.1,0,0.1
			c0,2.5,2,4.5,4.5,4.5c2.5,0,4.5-2,4.5-4.5l0,0c0-0.2,0.1-0.5,0.4-0.5c0.2,0,0.4,0.1,0.5,0.4c0,0,0,0.1,0,0.1
			C-33.8,160-36.2,162.4-39.1,162.4L-39.1,162.4z"/>
		<circle class="st6" cx="-51.2" cy="132.2" r="0.6"/>
		<circle class="st6" cx="-48.6" cy="140.5" r="0.6"/>
		<circle class="st6" cx="-54.3" cy="105.7" r="0.6"/>
		<path class="st6" d="M-53.1,120.7h-0.1c-0.2-0.1-0.2-0.2-0.2-0.4c0,0,0,0,0,0l0,0l1.6-3.9c0.1-0.2,0.2-0.2,0.4-0.2c0,0,0,0,0.1,0
			c0.1,0.1,0.2,0.2,0.2,0.4c0,0,0,0,0,0l0,0l-1.7,3.9C-52.9,120.6-53,120.7-53.1,120.7z"/>
		<path class="st6" d="M-50.9,118.8h-0.1c-0.2-0.1-0.2-0.2-0.2-0.4l0,0l0.9-2.1c0.1-0.1,0.2-0.2,0.4-0.2c0,0,0,0,0,0l0,0
			c0.1,0.1,0.2,0.2,0.2,0.4l-0.9,2.1C-50.7,118.7-50.8,118.8-50.9,118.8z"/>
		
			<ellipse transform="matrix(0.5723 -0.8201 0.8201 0.5723 -112.8096 6.3042)" class="st12" cx="-50.4" cy="111.3" rx="3.1" ry="2.1"/>
		
			<ellipse transform="matrix(0.5723 -0.8201 0.8201 0.5723 -107.9023 9.0011)" class="st12" cx="-45.3" cy="107.9" rx="1.6" ry="1.1"/>
	</g>
</g>
<ellipse id="Floor_6_" class="st13" cx="19.2" cy="39.1" rx="18.8" ry="10.7"/>
<ellipse id="Shadow_33_" class="st14" cx="31.2" cy="40.8" rx="4.9" ry="2.8"/>
<polygon id="Shadow_8_" class="st14" points="1.7,37.5 20.4,48.3 29.1,43.3 10.4,32.5 "/>
<path id="Shadow_32_" class="st14" d="M23.5,35.6l-0.3-0.2c-0.2-0.1-0.2-0.3,0-0.4l0.6-0.4l-2.3-1.3l-0.6,0.4
	c-0.2,0.1-0.5,0.1-0.7,0l-0.3-0.2c-0.2-0.1-0.2-0.3,0-0.4l1.9-1.1c0.2-0.1,0.5-0.1,0.7,0l0.3,0.2c0.2,0.1,0.2,0.3,0,0.4l-0.7,0.4
	l2.3,1.3l0.7-0.4c0.2-0.1,0.5-0.1,0.7,0l0.3,0.2c0.2,0.1,0.2,0.3,0,0.4l-1.9,1.1C24,35.7,23.7,35.7,23.5,35.6z"/>
<path id="Shadow_9_" class="st14" d="M16,32.3c0.5,0.3,0.5,0.8,0,1.1c-0.5,0.3-1.3,0.3-1.8,0c-0.5-0.3-0.5-0.8,0-1.1
	C14.7,32,15.5,32,16,32.3z"/>
<polygon class="st15" points="1.7,37.1 20.4,47.9 29.1,42.8 10.4,32 "/>
<polygon class="st16" points="1.7,37.1 20.4,47.9 29.1,42.8 10.4,32 "/>
<path class="st17" d="M21.3,43.9c0.4,0.2,0.7,0.6,1.2,0.7c0.5,0.1,1,0.1,1.4-0.1c0.2-0.1,0.4-0.2,0.5-0.4c0.1-0.2,0.1-0.5-0.1-0.6
	c0,0-0.1,0-0.1-0.1c0,0-0.1-0.1,0-0.1c0-0.1,0.1,0,0.2,0c0.6,0.3,1.2,0.2,1.7-0.1c0.1-0.1,0.3-0.2,0.3-0.4c0-0.2-0.1-0.3-0.2-0.4
	c-0.2-0.2-0.6-0.3-0.9-0.4c-0.3-0.1-0.7-0.2-1-0.3c-0.5-0.2-1.1-0.5-1.6-0.7c-0.8-0.4-1.6-0.7-2.2-1.3c-0.4-0.4-0.7-0.9-1.2-1.2
	c-0.7-0.4-1.5-0.2-2.3-0.4c-0.8-0.2-1.6-0.4-2.3-0.7c-1.6-0.6-3.1-1.3-4.6-2.3c0.4-0.8,0.7-1.6,0.8-2.4c-0.5-0.2-1,0.3-1.5,0.5
	c-0.4,0.2-0.8,0.1-1.2,0.1l-1.7,1c0.1,0.2,0.2,0.5,0.3,0.7c0.1,0.4,0.1,0.8-0.2,1.1c-0.2,0.1-0.4,0.2-0.6,0.2
	c-0.3,0.1-0.6,0.1-0.9,0.2c-0.3,0.1-0.6,0.1-0.7,0.4c-0.1,0.3,0.1,0.6,0.4,0.8c0.5,0.3,1.1,0.4,1.7,0.6c1.3,0.5,2.4,1.5,3.6,2.2
	C11,41,12,41.3,13,41.4c1,0.1,2.1,0,3.1,0.2c0.8,0.2,1.6,0.4,2.4,0.6c0.3,0.1,0.6,0.2,0.9,0.4c0.3,0.1,0.5,0.2,0.7,0.5
	c0.1,0.2,0.3,0.4,0.5,0.5c0.2,0.1,0.4,0.1,0.6,0.2C21.2,43.8,21.3,43.9,21.3,43.9z"/>
<path class="st18" d="M21.3,43.9c0.4,0.2,0.7,0.6,1.2,0.7c0.5,0.1,1,0.1,1.4-0.1c0.2-0.1,0.4-0.2,0.5-0.4c0.1-0.2,0.1-0.5-0.1-0.6
	c0,0-0.1,0-0.1-0.1c0,0-0.1-0.1,0-0.1c0-0.1,0.1,0,0.2,0c0.6,0.3,1.2,0.2,1.7-0.1c0.1-0.1,0.3-0.2,0.3-0.4c0-0.2-0.1-0.3-0.2-0.4
	c-0.2-0.2-0.6-0.3-0.9-0.4c-0.3-0.1-0.7-0.2-1-0.3c-0.5-0.2-1.1-0.5-1.6-0.7c-0.8-0.4-1.6-0.7-2.2-1.3c-0.4-0.4-0.7-0.9-1.2-1.2
	c-0.7-0.4-1.5-0.2-2.3-0.4c-0.8-0.2-1.6-0.4-2.3-0.7c-1.6-0.6-3.1-1.3-4.6-2.3c0.4-0.8,0.7-1.6,0.8-2.4c-0.5-0.2-1,0.3-1.5,0.5
	c-0.4,0.2-0.8,0.1-1.2,0.1l-1.7,1c0.1,0.2,0.2,0.5,0.3,0.7c0.1,0.4,0.1,0.8-0.2,1.1c-0.2,0.1-0.4,0.2-0.6,0.2
	c-0.3,0.1-0.6,0.1-0.9,0.2c-0.3,0.1-0.6,0.1-0.7,0.4c-0.1,0.3,0.1,0.6,0.4,0.8c0.5,0.3,1.1,0.4,1.7,0.6c1.3,0.5,2.4,1.5,3.6,2.2
	C11,41,12,41.3,13,41.4c1,0.1,2.1,0,3.1,0.2c0.8,0.2,1.6,0.4,2.4,0.6c0.3,0.1,0.6,0.2,0.9,0.4c0.3,0.1,0.5,0.2,0.7,0.5
	c0.1,0.2,0.3,0.4,0.5,0.5c0.2,0.1,0.4,0.1,0.6,0.2C21.2,43.8,21.3,43.9,21.3,43.9z"/>
<polygon class="st15" points="1.7,37.1 1.7,37.2 20.4,48 20.4,47.9 "/>
<polygon class="st19" points="1.7,37.1 1.7,37.2 20.4,48 20.4,47.9 "/>
<polygon class="st15" points="20.4,47.9 29.1,42.8 29.1,43 20.4,48 "/>
<polygon class="st20" points="20.4,47.9 29.1,42.8 29.1,43 20.4,48 "/>
<path class="st15" d="M16,31.2c0-0.1-0.1-0.3-0.2-0.4c0,0,0,0,0,0c-0.1-0.2-0.1-0.5,0-0.8c0,0,0,0,0,0c0.1-0.1,0.1-0.3,0.1-0.4
	c0-0.1-0.1-0.3-0.3-0.4c0,0-0.1,0-0.1-0.1c-0.1,0-0.1-0.1-0.1-0.2l0-0.2l-0.7,0l0,0.2c0,0.1-0.1,0.2-0.1,0.2c0,0-0.1,0-0.1,0.1
	c-0.2,0.1-0.3,0.3-0.3,0.4c0,0.2,0,0.3,0.1,0.4c0,0,0,0,0,0c0.1,0.2,0.1,0.5,0,0.8c0,0,0,0,0,0c-0.1,0.1-0.1,0.3-0.2,0.4
	c0,0.1,0,0.3,0,0.4l0,1.1c0,0.1,0.1,0.3,0.3,0.4c0.2,0.1,0.3,0.1,0.5,0.2c0.1,0,0.2,0,0.3,0c0.2,0,0.4-0.1,0.5-0.2
	C16,33,16,32.9,16,32.7l0-0.8c0-0.1,0-0.2,0-0.3C16.1,31.5,16,31.4,16,31.2z"/>
<path class="st21" d="M16,31.2c0-0.1-0.1-0.3-0.2-0.4c0,0,0,0,0,0c-0.1-0.2-0.1-0.5,0-0.8c0,0,0,0,0,0c0.1-0.1,0.1-0.3,0.1-0.4
	c0-0.1-0.1-0.3-0.3-0.4c0,0-0.1,0-0.1-0.1c-0.1,0-0.1-0.1-0.1-0.2l0-0.2l-0.7,0l0,0.2c0,0.1-0.1,0.2-0.1,0.2c0,0-0.1,0-0.1,0.1
	c-0.2,0.1-0.3,0.3-0.3,0.4c0,0.2,0,0.3,0.1,0.4c0,0,0,0,0,0c0.1,0.2,0.1,0.5,0,0.8c0,0,0,0,0,0c-0.1,0.1-0.1,0.3-0.2,0.4
	c0,0.1,0,0.3,0,0.4l0,1.1c0,0.1,0.1,0.3,0.3,0.4c0.2,0.1,0.3,0.1,0.5,0.2c0.1,0,0.2,0,0.3,0c0.2,0,0.4-0.1,0.5-0.2
	C16,33,16,32.9,16,32.7l0-0.8c0-0.1,0-0.2,0-0.3C16.1,31.5,16,31.4,16,31.2z"/>
<path class="st22" d="M15.9,30C15.9,30,15.9,30,15.9,30c0.1-0.2,0.1-0.3,0.1-0.4c0,0.1,0,0.1-0.1,0.2c-0.1,0.1-0.2,0.2-0.3,0.3
	c-0.1,0.1-0.3,0.2-0.3,0.4c0,0.2,0.1,0.3,0.2,0.4c0.1,0.1,0.3,0.2,0.4,0.3c0,0,0.1,0.1,0.1,0.2c0,0,0-0.1,0-0.1
	c0-0.1-0.1-0.3-0.2-0.4c0,0,0,0,0,0C15.7,30.6,15.7,30.3,15.9,30z"/>
<path id="XMLID_640_" class="st15" d="M14.6,28.9l0,0.1c0,0.1,0,0.1,0.1,0.2c0.2,0.1,0.5,0.1,0.7,0c0,0,0.1-0.1,0.1-0.1
	c0,0,0-0.1,0-0.1l0-0.1c0,0,0,0,0,0c0-0.1-0.1-0.1-0.1-0.2c0,0,0,0,0,0c-0.2-0.1-0.5-0.1-0.7,0C14.7,28.8,14.6,28.8,14.6,28.9
	C14.6,28.9,14.6,28.9,14.6,28.9z"/>
<path id="XMLID_638_" class="st22" d="M14.6,28.9l0,0.1c0,0.1,0,0.1,0.1,0.2c0.2,0.1,0.5,0.1,0.7,0c0,0,0.1-0.1,0.1-0.1
	c0,0,0-0.1,0-0.1l0-0.1c0,0,0,0,0,0c0-0.1-0.1-0.1-0.1-0.2c0,0,0,0,0,0c-0.2-0.1-0.5-0.1-0.7,0C14.7,28.8,14.6,28.8,14.6,28.9
	C14.6,28.9,14.6,28.9,14.6,28.9z"/>
<path id="XMLID_487_" class="st23" d="M15.5,29.1c0.2-0.1,0.2-0.3,0-0.4c-0.2-0.1-0.5-0.1-0.7,0c-0.2,0.1-0.2,0.3,0,0.4
	C15,29.2,15.3,29.2,15.5,29.1z"/>
<path id="XMLID_476_" class="st15" d="M14.6,28.8L14.6,28.8c0,0.1,0,0.1,0,0.1c0,0.1,0.1,0.1,0.1,0.2c0.1,0.1,0.2,0.1,0.3,0.1
	c0.1,0,0.3,0,0.4-0.1c0,0,0.1-0.1,0.1-0.1c0,0,0,0,0-0.1c0,0,0,0,0,0l0-0.1c0-0.1,0-0.1-0.1-0.2c0,0,0,0,0,0c-0.2-0.1-0.5-0.1-0.7,0
	C14.7,28.6,14.6,28.7,14.6,28.8z"/>
<path id="XMLID_445_" class="st22" d="M14.6,28.8L14.6,28.8c0,0.1,0,0.1,0,0.1c0,0.1,0.1,0.1,0.1,0.2c0.1,0.1,0.2,0.1,0.3,0.1
	c0.1,0,0.3,0,0.4-0.1c0,0,0.1-0.1,0.1-0.1c0,0,0,0,0-0.1c0,0,0,0,0,0l0-0.1c0-0.1,0-0.1-0.1-0.2c0,0,0,0,0,0c-0.2-0.1-0.5-0.1-0.7,0
	C14.7,28.6,14.6,28.7,14.6,28.8z"/>
<path class="st15" d="M14.6,28.8c0,0.2,0.2,0.3,0.5,0.3c0.3,0,0.5-0.1,0.5-0.3c0-0.2-0.2-0.3-0.5-0.3C14.8,28.5,14.6,28.6,14.6,28.8
	z"/>
<path id="XMLID_431_" class="st15" d="M14.9,28.5l0,0.3c0,0,0,0,0,0c0,0,0,0,0,0.1c0,0,0.1,0,0.1,0c0,0,0.1,0,0.1,0c0,0,0,0,0,0
	c0,0,0,0,0,0c0,0,0,0,0,0l0-0.3c0,0,0-0.1-0.1-0.1c0,0,0,0,0,0C15.2,28.4,15.1,28.4,14.9,28.5C15,28.4,14.9,28.5,14.9,28.5z"/>
<path id="XMLID_415_" class="st22" d="M14.9,28.5l0,0.3c0,0,0,0,0,0c0,0,0,0,0,0.1c0,0,0.1,0,0.1,0c0,0,0.1,0,0.1,0c0,0,0,0,0,0
	c0,0,0,0,0,0c0,0,0,0,0,0l0-0.3c0,0,0-0.1-0.1-0.1c0,0,0,0,0,0C15.2,28.4,15.1,28.4,14.9,28.5C15,28.4,14.9,28.5,14.9,28.5z"/>
<path class="st15" d="M14.9,28.5c0,0.1,0.1,0.1,0.2,0.1c0.1,0,0.2,0,0.2-0.1c0-0.1-0.1-0.1-0.2-0.1C15,28.4,14.9,28.4,14.9,28.5z"/>
<path class="st15" d="M15.1,28.5C15.1,28.5,15.1,28.5,15.1,28.5c0.1,0,0.1,0,0.1,0C15.2,28.5,15.2,28.4,15.1,28.5
	C15.1,28.4,15.1,28.5,15.1,28.5z"/>
<path class="st21" d="M15.1,28.5C15.1,28.5,15.1,28.5,15.1,28.5c0.1,0,0.1,0,0.1,0C15.2,28.5,15.2,28.4,15.1,28.5
	C15.1,28.4,15.1,28.5,15.1,28.5z"/>
<g id="XMLID_1040_">
	<path id="XMLID_1044_" class="st24" d="M22.3,30.9L22.3,30.9c-0.2-0.5-0.8-0.9-1.4-0.7l0,0c-0.1,0-0.2,0.1-0.3,0.1
		c-0.6,0.3-1,1.1-1,1.8c0,0.1,0,0.2,0,0.3l0,0c0.2,0.5,0.8,0.9,1.4,0.7l0,0c0.1,0,0.2-0.1,0.3-0.1c0.6-0.3,1-1.1,1-1.8
		C22.3,31.1,22.3,31,22.3,30.9z"/>
	<path id="XMLID_1042_" class="st25" d="M21.3,33c0.6-0.3,1-1.1,1-1.8c0-0.6-0.5-0.9-1-0.6c-0.6,0.3-1,1.1-1,1.8
		C20.3,33.1,20.8,33.3,21.3,33z"/>
	<path id="XMLID_1041_" class="st24" d="M21.3,31.4c0.2-0.1,0.4,0,0.4,0.2c0,0.2-0.2,0.6-0.4,0.7c-0.2,0.1-0.4,0-0.4-0.2
		C20.9,31.8,21.1,31.5,21.3,31.4z"/>
	<path class="st25" d="M21.4,31.7c0,0.1-0.1,0.2-0.1,0.2c0,0-0.1,0-0.1,0c0,0,0,0,0,0c0,0,0,0,0-0.1c0-0.1,0.1-0.2,0.1-0.2
		C21.3,31.7,21.4,31.6,21.4,31.7L21.4,31.7C21.4,31.7,21.4,31.7,21.4,31.7z"/>
</g>
<path class="st15" d="M23.6,33c0,0.1-0.1,0.2-0.1,0.2c0,0,0,0-0.1,0c0,0,0,0,0,0L21.2,32c0,0,0,0,0,0c0,0,0,0,0-0.1
	c0-0.1,0.1-0.2,0.1-0.2c0,0,0.1,0,0.1,0l0,0L23.6,33C23.6,32.9,23.6,32.9,23.6,33z"/>
<g id="XMLID_970_">
	<path id="XMLID_1039_" class="st24" d="M25.7,32.9L25.7,32.9c-0.2-0.5-0.8-0.9-1.4-0.7l0,0c-0.1,0-0.2,0.1-0.3,0.1
		c-0.6,0.3-1,1.1-1,1.8c0,0.1,0,0.2,0,0.3l0,0c0.2,0.5,0.8,0.9,1.4,0.7l0,0c0.1,0,0.2-0.1,0.3-0.1c0.6-0.3,1-1.1,1-1.8
		C25.7,33.1,25.7,33,25.7,32.9z"/>
	<path id="XMLID_1038_" class="st25" d="M24.7,35c0.6-0.3,1-1.1,1-1.8c0-0.6-0.5-0.9-1-0.6c-0.6,0.3-1,1.1-1,1.8
		C23.7,35,24.2,35.3,24.7,35z"/>
	<path id="XMLID_1037_" class="st24" d="M24.7,33.3c0.2-0.1,0.4,0,0.4,0.2c0,0.2-0.2,0.6-0.4,0.7c-0.2,0.1-0.4,0-0.4-0.2
		C24.3,33.8,24.5,33.5,24.7,33.3z"/>
	<path class="st25" d="M24.9,33.7c0,0.1-0.1,0.2-0.1,0.2c0,0-0.1,0-0.1,0c0,0,0,0,0,0c0,0,0,0,0-0.1c0-0.1,0.1-0.2,0.1-0.2
		C24.8,33.6,24.8,33.6,24.9,33.7L24.9,33.7C24.8,33.6,24.9,33.7,24.9,33.7z"/>
</g>
<path class="st15" d="M25.2,33.9c0,0.1-0.1,0.2-0.1,0.2c0,0,0,0-0.1,0c0,0,0,0,0,0L24.6,34c0,0,0,0,0,0c0,0,0,0,0-0.1
	c0-0.1,0.1-0.2,0.1-0.2c0,0,0.1,0,0.1,0l0,0L25.2,33.9C25.2,33.8,25.2,33.9,25.2,33.9z"/>
<path class="st23" d="M25.2,33.9c0,0.1-0.1,0.2-0.1,0.2c0,0-0.1,0-0.1,0c0,0,0,0,0,0c0,0,0,0,0-0.1c0-0.1,0.1-0.2,0.1-0.2
	C25.1,33.8,25.1,33.8,25.2,33.9L25.2,33.9C25.2,33.8,25.2,33.9,25.2,33.9z"/>
<path class="st26" d="M29.4,20.1c-0.4,0.6-1.1,2.1-1.3,2.4c-0.3-0.4-1.1-1.3-1.2-1.5c-0.2-0.2-0.8-0.6-0.8-0.6l-0.2,0.9
	c0,0,1.4,2.1,1.8,2.5c0.3,0.3,0.6,0.4,1.2-0.2c0.6-0.6,1.9-2.4,1.9-2.4l0-2.1C30.1,19.1,29.9,19.3,29.4,20.1z"/>
<path class="st27" d="M28.1,22.5c0.1,0.2,0.3,0.4,0.4,0.5c0,0,0-0.3-0.3-0.7L28.1,22.5z"/>
<path id="XMLID_1159_" class="st25" d="M25.8,19.4l-0.5-0.3c0,0,0,2.9,0,3c0,0.1-0.1,0.2-0.1,0.2l0.5,0.3c0,0,0.1-0.1,0.1-0.2
	C25.8,22.3,25.8,19.4,25.8,19.4z"/>
<path id="XMLID_1157_" class="st26" d="M25.2,20.3c0,0-0.2,0-0.2,0.3c-0.1,0.2-0.1,0.7,0.1,0.8c0.1,0.1,0.3,0.2,0.5,0.2
	c0.2-0.1,0.2-0.6,0-0.7c-0.3-0.2-0.3-0.4-0.3-0.4L25.2,20.3z"/>
<path id="XMLID_1156_" class="st24" d="M26.5,19.4l-0.2,0.3l0,2.1l0.2,0.4l-0.8,0.5c0.1-0.1,0.1-0.1,0.1-0.2v-2.6L26.5,19.4z"/>
<polygon id="XMLID_1155_" class="st15" points="26.5,22.1 26.5,22.3 25.7,22.7 25.7,22.6 "/>
<polygon id="XMLID_1154_" class="st15" points="25.7,22.7 25.1,22.4 25.1,22.3 25.7,22.6 "/>
<polygon id="XMLID_1152_" class="st22" points="25.7,22.7 25.1,22.4 25.1,22.3 25.7,22.6 "/>
<path id="XMLID_1150_" class="st15" d="M25.8,18.1L25.8,18.1c0.1-0.1,0.2,0,0.4,0l0,0c0.3,0.2,0.5,0.6,0.5,0.9v0
	c0,0.2-0.1,0.3-0.2,0.3l0,0l-0.4,0.2l-0.7-1.3L25.8,18.1z"/>
<path id="XMLID_1149_" class="st28" d="M25.8,18.1L25.8,18.1c0.1-0.1,0.2,0,0.4,0l0,0c0.3,0.2,0.5,0.6,0.5,0.9v0
	c0,0.2-0.1,0.3-0.2,0.3l0,0l-0.4,0.2l-0.7-1.3L25.8,18.1z"/>
<path id="XMLID_1148_" class="st29" d="M26.5,19.3L26.5,19.3l-0.4,0.2l-0.2-0.4l0.8-0.4c0,0.1,0,0.2,0,0.3v0
	C26.7,19.2,26.6,19.3,26.5,19.3z"/>
<path id="XMLID_1147_" class="st15" d="M24.9,18.4L24.9,18.4c0.1-0.1,0.2-0.1,0.4,0c0,0,0,0,0,0c0,0,0,0,0.1,0c0,0,0.1,0,0.1,0.1
	c0.1,0,0.1,0.1,0.2,0.2c0.1,0.2,0.2,0.4,0.3,0.5c0,0.1,0,0.2,0,0.3c0,0.2-0.1,0.3-0.2,0.4l0.4-0.2l0,0c0.1-0.1,0.2-0.2,0.2-0.4
	c0-0.1,0-0.2,0-0.3c-0.1-0.2-0.2-0.4-0.3-0.6c0-0.1-0.1-0.1-0.2-0.2c0,0-0.1-0.1-0.1-0.1c0,0,0,0-0.1,0c0,0,0,0-0.1,0
	c-0.2-0.1-0.3-0.1-0.4,0l0,0l0,0c0,0,0,0,0,0L24.9,18.4z"/>
<path id="XMLID_1146_" class="st22" d="M26.2,19.7L26.2,19.7c0.1-0.1,0.2-0.2,0.2-0.4c0-0.1,0-0.2,0-0.3L26,19.3c0,0.1,0,0.2,0,0.3
	c0,0.2-0.1,0.3-0.2,0.4L26.2,19.7z"/>
<path id="XMLID_1145_" class="st30" d="M24.7,18.8c0,0.4,0.3,0.9,0.6,1.1c0.2,0.1,0.3,0.1,0.5,0c0,0,0,0,0,0
	c0.1-0.1,0.2-0.2,0.2-0.4c0-0.4-0.3-0.9-0.6-1.1c-0.2-0.1-0.3-0.1-0.5,0C24.8,18.5,24.7,18.6,24.7,18.8z"/>
<path id="XMLID_1144_" class="st23" d="M24.7,18.8c0,0.4,0.3,0.9,0.6,1.1c0.2,0.1,0.3,0.1,0.5,0c0,0,0,0,0,0
	c0.1-0.1,0.2-0.2,0.2-0.4c0-0.4-0.3-0.9-0.6-1.1c-0.2-0.1-0.3-0.1-0.5,0C24.8,18.5,24.7,18.6,24.7,18.8z"/>
<path id="XMLID_1143_" class="st15" d="M22.8,18.7c0,0,0.6,0.3,1.2,1.3c0.1,0.2,0.2,0.4,0.3,0.5c0.3,0.7,0.3,1.1,0.3,1.1
	c0.2-0.5,0.4-1,0.8-1.3c0.2-0.2,0.5-0.4,0.5-0.4l0,0c0.1-0.1,0.2-0.2,0.2-0.4c0-0.1,0-0.2-0.1-0.4c0-0.1-0.1-0.2-0.1-0.2
	c-0.1-0.2-0.3-0.4-0.4-0.5c-0.2-0.1-0.3-0.1-0.4,0l0,0c0,0-0.3,0.1-0.6,0.2C23.8,18.8,23.3,18.8,22.8,18.7z"/>
<path id="XMLID_1142_" class="st28" d="M22.8,18.7c0,0,0.6,0.3,1.2,1.3c0.1,0.2,0.2,0.4,0.3,0.5c0.3,0.7,0.3,1.1,0.3,1.1
	c0.2-0.5,0.4-1,0.8-1.3c0.2-0.2,0.5-0.4,0.5-0.4l0,0c0.1-0.1,0.2-0.2,0.2-0.4c0-0.1,0-0.2-0.1-0.4c0-0.1-0.1-0.2-0.1-0.2
	c-0.1-0.2-0.3-0.4-0.4-0.5c-0.2-0.1-0.3-0.1-0.4,0l0,0c0,0-0.3,0.1-0.6,0.2C23.8,18.8,23.3,18.8,22.8,18.7z"/>
<path id="XMLID_1141_" class="st29" d="M24.2,20.5c0.3,0.7,0.3,1.1,0.3,1.1c0.2-0.5,0.4-1,0.8-1.3c0.2-0.2,0.5-0.4,0.5-0.4l0,0
	c0.1-0.1,0.2-0.2,0.2-0.4c0-0.1,0-0.2-0.1-0.4C25.4,19.4,24.6,19.9,24.2,20.5z"/>
<path id="XMLID_1139_" class="st15" d="M21.6,19.6c0,0.4,0.1,0.9,0.3,1.3v0c0.3,0.6,0.7,1,1.2,1.3c0.8,0.5,1.5,0.1,1.5-0.9
	c0-0.2,0-0.5-0.1-0.7c-0.2-0.6-0.5-1.2-0.9-1.6c-0.1-0.1-0.1-0.1-0.2-0.2c0,0-0.1,0-0.1-0.1h0c0,0-0.1-0.1-0.1-0.1
	c0,0-0.1-0.1-0.1-0.1C22.2,18.3,21.6,18.7,21.6,19.6z"/>
<path id="XMLID_1138_" class="st22" d="M21.9,20.9c0.3,0.6,0.7,1,1.2,1.3c0.8,0.5,1.5,0.1,1.5-0.9c0-0.2,0-0.5-0.1-0.7h0
	c-0.1,0.1-0.3,0.3-0.4,0.2c0.1,0.2,0.1,0.4,0.1,0.6c0,0.3-0.1,0.5-0.2,0.7c-0.1,0.1-0.2,0.2-0.4,0.2c-0.2,0-0.4-0.1-0.6-0.2
	c-0.4-0.2-0.8-0.6-1-1.1C22.1,21,22,21.1,21.9,20.9z"/>
<path id="XMLID_1137_" class="st15" d="M21.7,19.7c0,0.4,0.2,0.9,0.4,1.4c0.3,0.5,0.6,0.9,1,1.1c0.2,0.1,0.4,0.2,0.6,0.2
	c0.2,0,0.3-0.1,0.4-0.2c0.1-0.1,0.2-0.4,0.2-0.7c0-0.2,0-0.4-0.1-0.6c0-0.1,0-0.2-0.1-0.2c0-0.1-0.1-0.3-0.2-0.4c0,0,0-0.1,0-0.1
	c0,0,0-0.1-0.1-0.1c-0.1-0.1-0.2-0.3-0.3-0.4c0,0,0,0,0,0c-0.1-0.1-0.1-0.2-0.2-0.2c-0.1-0.1-0.1-0.1-0.2-0.2c0,0,0,0-0.1-0.1
	c0,0-0.1,0-0.1-0.1c0,0-0.1,0-0.1-0.1c-0.2-0.1-0.4-0.2-0.6-0.2C21.9,18.8,21.7,19.2,21.7,19.7z"/>
<path id="XMLID_1136_" class="st21" d="M21.7,19.7c0,0.4,0.2,0.9,0.4,1.4c0.3,0.5,0.6,0.9,1,1.1c0.2,0.1,0.4,0.2,0.6,0.2
	c0.2,0,0.3-0.1,0.4-0.2c0.1-0.1,0.2-0.4,0.2-0.7c0-0.2,0-0.4-0.1-0.6c0-0.1,0-0.2-0.1-0.2c0-0.1-0.1-0.3-0.2-0.4c0,0,0-0.1,0-0.1
	c0,0,0-0.1-0.1-0.1c-0.1-0.1-0.2-0.3-0.3-0.4c0,0,0,0,0,0c-0.1-0.1-0.1-0.2-0.2-0.2c-0.1-0.1-0.1-0.1-0.2-0.2c0,0,0,0-0.1-0.1
	c0,0-0.1,0-0.1-0.1c0,0-0.1,0-0.1-0.1c-0.2-0.1-0.4-0.2-0.6-0.2C21.9,18.8,21.7,19.2,21.7,19.7z"/>
<g id="XMLID_1133_">
	<path id="XMLID_1134_" class="st15" d="M23,19.9l0.5,1c0.2-0.1,0.4-0.1,0.6-0.2c0,0,0-0.1,0-0.1c0-0.1-0.1-0.3-0.2-0.4
		c0,0,0-0.1,0-0.1c0,0,0-0.1-0.1-0.1c-0.1-0.1-0.2-0.3-0.3-0.4c0,0,0,0,0,0c0,0,0,0,0-0.1C23.2,19.7,23,19.9,23,19.9z"/>
</g>
<g id="XMLID_1131_" class="st31">
	<path id="XMLID_1132_" class="st32" d="M23,19.9l0.5,1c0.2-0.1,0.4-0.1,0.6-0.2c0,0,0-0.1,0-0.1c0-0.1-0.1-0.3-0.2-0.4
		c0,0,0-0.1,0-0.1c0,0,0-0.1-0.1-0.1c-0.1-0.1-0.2-0.3-0.3-0.4c0,0,0,0,0,0c0,0,0,0,0-0.1C23.2,19.7,23,19.9,23,19.9z"/>
</g>
<g id="XMLID_1129_">
	<path id="XMLID_1130_" class="st30" d="M23.4,20.9c0.1,0,0.2-0.1,0.2-0.3v0c0-0.3-0.2-0.6-0.4-0.7l0,0c-0.1,0-0.1-0.1-0.2-0.1
		c-0.1,0-0.2,0.1-0.2,0.3v0c0,0.3,0.2,0.6,0.4,0.7l0,0C23.3,20.9,23.4,20.9,23.4,20.9L23.4,20.9z"/>
</g>
<g id="XMLID_1127_" class="st33">
	<path id="XMLID_1128_" class="st32" d="M23.4,20.9c0.1,0,0.2-0.1,0.2-0.3v0c0-0.3-0.2-0.6-0.4-0.7l0,0c-0.1,0-0.1-0.1-0.2-0.1
		c-0.1,0-0.2,0.1-0.2,0.3v0c0,0.3,0.2,0.6,0.4,0.7l0,0C23.3,20.9,23.4,20.9,23.4,20.9L23.4,20.9z"/>
</g>
<g id="XMLID_1107_">
	<g id="XMLID_1124_">
		<path id="XMLID_1125_" class="st14" d="M22.9,18.1c0.1,0,0.1-0.1,0.1-0.1v-1.2c0-0.1-0.1-0.1-0.1-0.1c-0.1,0-0.1,0.1-0.1,0.1V18
			C22.7,18,22.8,18.1,22.9,18.1z"/>
	</g>
	<g id="XMLID_1122_">
		<path id="XMLID_1123_" class="st14" d="M23.9,18.4c0,0,0.1,0,0.1-0.1l0.6-1c0-0.1,0-0.1,0-0.2c-0.1,0-0.1,0-0.2,0l-0.6,1
			C23.8,18.3,23.8,18.3,23.9,18.4C23.9,18.4,23.9,18.4,23.9,18.4z"/>
	</g>
	<g id="XMLID_1120_">
		<path id="XMLID_1121_" class="st14" d="M25,24C25,24,25.1,24,25,24c0.1,0,0.1-0.1,0.1-0.2l-0.6-1c0-0.1-0.1-0.1-0.2,0
			c-0.1,0-0.1,0.1,0,0.2l0.6,1C24.9,24,25,24,25,24z"/>
	</g>
	<g id="XMLID_1118_">
		<path id="XMLID_1119_" class="st14" d="M22.9,24.1c0.1,0,0.1-0.1,0.1-0.1v-1.2c0-0.1-0.1-0.1-0.1-0.1c-0.1,0-0.1,0.1-0.1,0.1V24
			C22.7,24.1,22.8,24.1,22.9,24.1z"/>
	</g>
	<g id="XMLID_1116_">
		<path id="XMLID_1117_" class="st14" d="M21.2,23.1c0,0,0.1,0,0.1-0.1l0.6-1c0-0.1,0-0.1,0-0.2c-0.1,0-0.1,0-0.2,0l-0.6,1
			C21.1,22.9,21.1,23,21.2,23.1C21.2,23.1,21.2,23.1,21.2,23.1z"/>
	</g>
	<g id="XMLID_1114_">
		<path id="XMLID_1115_" class="st14" d="M20,21.9C20,21.9,20.1,21.9,20,21.9l1.1-0.6c0.1,0,0.1-0.1,0-0.2c0-0.1-0.1-0.1-0.2,0
			l-1,0.6c-0.1,0-0.1,0.1,0,0.2C19.9,21.8,20,21.9,20,21.9z"/>
	</g>
	<g id="XMLID_1112_">
		<path id="XMLID_1113_" class="st14" d="M19.6,20.2h1.2c0.1,0,0.1-0.1,0.1-0.1c0-0.1-0.1-0.1-0.1-0.1h-1.2c-0.1,0-0.1,0.1-0.1,0.1
			C19.5,20.2,19.5,20.2,19.6,20.2z"/>
	</g>
	<g id="XMLID_1110_">
		<path id="XMLID_1111_" class="st14" d="M21,19.2c0,0,0.1,0,0.1-0.1c0-0.1,0-0.1,0-0.2l-1-0.6c-0.1,0-0.1,0-0.2,0
			c0,0.1,0,0.1,0,0.2L21,19.2C21,19.2,21,19.2,21,19.2z"/>
	</g>
	<g id="XMLID_1108_">
		<path id="XMLID_1109_" class="st14" d="M21.8,18.4C21.8,18.4,21.8,18.4,21.8,18.4c0.1,0,0.1-0.1,0.1-0.2l-0.6-1
			c0-0.1-0.1-0.1-0.2,0c-0.1,0-0.1,0.1,0,0.2l0.6,1C21.7,18.4,21.8,18.4,21.8,18.4z"/>
	</g>
</g>
<path id="XMLID_1106_" class="st26" d="M26.9,21c-0.2-0.3-0.2-0.5-0.4-0.6c-0.2-0.1-0.4-0.1-0.6-0.1c-0.2,0.1-0.4,0-0.5,0.1
	c0,0,0,0.1,0.1,0.2c0.1,0.1,0.3,0,0.4,0c0.3,0,0.1,0.3,0.4,0.6C26.4,21.5,26.9,21,26.9,21z"/>
<g>
	<path class="st34" d="M32.5,18.7c0.1-0.4,0.5-0.8,0.8-1.2c0.3-0.4,0.6-1.4,0-1.9c0,0,0-1-1-1.2c-0.9-0.2-1.7,0.3-2.7,0.2
		c-0.5-0.1-0.7,0.5-0.2,1c0,0-0.4,0.4-0.2,0.8c0.2,0.4,0.8,0.4,0.8,0.4L32.5,18.7z"/>
	<path class="st34" d="M33.1,15.5c0,0,0.1-0.1,0.1-0.1c0.1-0.1,0.2-0.1,0.3-0.1c0.4-0.1,0.9,0.1,1.2,0.4c0.3,0.3,0.4,0.7,0.4,1.1
		c0,0.4-0.1,0.8-0.1,1.2c0,0.3,0,0.6,0,0.9c0,0.2,0.1,0.5,0.3,0.7c0.1,0.1,0.3,0.2,0.3,0.4c0,0.2-0.2,0.3-0.3,0.3
		c-0.5,0.1-1-0.2-1.3-0.5c0,0,0,0,0-0.1c-0.3-0.4-0.3-0.8-0.3-1.2c0-0.5,0.1-0.9,0.2-1.3c0-0.2,0.1-0.5,0.1-0.7c0-0.1,0-0.3-0.1-0.5
		c-0.1-0.1-0.3-0.2-0.4-0.2c-0.1,0-0.1,0-0.2,0c-0.1,0-0.2-0.1-0.2-0.2C33,15.6,33,15.5,33.1,15.5z"/>
</g>
<g id="XMLID_1193_">
	<path id="XMLID_1194_" class="st26" d="M32.8,35.8l1.7,0c0,1.1-0.2,2.4-0.2,3.4c0,0.2,0,1.6-0.1,2c-0.1,0.6-0.8,0.5-0.9,0.2
		c0-0.4,0-1.9,0-2.1c0-0.7-0.3-1.8-0.5-3C32.8,36.1,32.8,35.9,32.8,35.8z"/>
</g>
<path class="st34" d="M33,41.6c0,0.4,0,0.6,0.1,0.8s0.3,0.3,0.6,0.3c0.3,0,0.6-0.2,0.7-0.5c0.1-0.3,0.1-0.5,0.1-0.9L33,41.6z"/>
<path id="XMLID_1195_" class="st24" d="M34.2,39.1c0.1,0,0.1,0.5,0.1,1c0,0.5,0.1,0.8,0.2,1.2c0,0.5,0,0.7-0.2,1
	c-0.2,0.3-0.8,0.5-1.1,0.1C32.9,42,33,41.6,33,41.1c0.1-0.5,0.1-0.9,0.1-1.2c0-0.4,0-0.7,0.1-0.8c0,0.1,0,0.1,0,0.2c0,0,0,0.2,0,0.2
	c0,0,0-0.1,0-0.1c0,0,0-0.1,0-0.1c0,0,0.1,0,0.1,0c0.1,0,0.2,0,0.3,0c0.1,0,0.1,0,0.2,0c0,0,0.1,0,0.1,0c0,0,0,0,0,0.1
	c0,0,0,0,0,0.1c0,0,0,0.1,0,0.1c0,0,0,0,0,0c0,0,0,0,0,0c0-0.1,0-0.1,0-0.2C34.2,39.3,34.2,39.2,34.2,39.1
	C34.2,39.2,34.2,39.1,34.2,39.1z"/>
<path class="st25" d="M34.5,41.2c0,0.1,0,0.5-0.1,0.6c-0.1,0.1-0.2-0.3-0.2-0.3s-0.3-0.1-0.8,0c0,0.1-0.1,0.3-0.2,0.3
	C33,41.7,33,41.1,33,41.1c-0.1,0.5-0.1,0.8,0.1,1.2c0.3,0.5,0.9,0.2,1.1-0.1c0.2-0.3,0.2-0.5,0.2-1C34.5,41.2,34.5,41.2,34.5,41.2z"
	/>
<path class="st34" d="M34.1,41.5c0,0.2,0.2,0.1,0.2-0.1c0-0.2,0-0.9,0-1.3c0-0.5,0-1-0.1-1c0,0,0,0,0,0l0,0.2c0,0,0,0.1,0,0.1
	c0,0.4-0.1,1.1-0.1,1.4C34.1,41.2,34.1,41.3,34.1,41.5z"/>
<path class="st34" d="M33.4,41.5c0-0.2,0-0.3,0-0.6c0-0.3,0-1-0.1-1.4c0-0.1,0-0.2,0-0.2c0,0,0-0.1,0-0.2c0,0,0,0,0,0
	c-0.1,0-0.1,0.2-0.1,0.5c0,0.1,0,0.3,0,0.5c0,0.4,0,1,0,1.3C33.2,41.6,33.4,41.7,33.4,41.5z"/>
<g id="XMLID_1189_">
	<path id="XMLID_1190_" class="st26" d="M29.6,38.1c0-0.3-0.2-3.6-0.2-3.6l1.6,1c-0.3,2.1-0.4,2.5-0.4,2.9l0,0c0,0,0,0,0,0.1
		c0,0.4-0.5,0.6-0.8,0.9c-0.1,0.1-0.5,0.4-1,0.6c-0.3,0.1-0.8,0.1-0.8,0c0.4-0.3,1-0.8,1.4-1.2C29.6,38.5,29.6,38.4,29.6,38.1z"/>
</g>
<path class="st34" d="M27.3,40.3c0,0,0,0.2,0.1,0.3c0.1,0.1,0.5,0.3,1.1,0.3c0.5-0.1,0.8-0.2,1-0.4c0.2-0.2,0.5-0.4,0.8-0.5
	c0.2,0,0.5-0.2,0.5-0.2c0.1-0.1,0.1-0.4,0.1-0.4L27.3,40.3z"/>
<path id="XMLID_1191_" class="st24" d="M30.6,38.3C30.6,38.3,30.7,38.3,30.6,38.3c0.1,0.2,0.1,0.4,0.2,0.5c0,0.2,0.1,0.6,0.1,0.7
	c0,0.2-0.4,0.3-0.6,0.4c-0.2,0.1-0.5,0.3-0.8,0.5c-0.3,0.2-0.8,0.4-1.1,0.4c-0.4,0-0.9-0.1-1-0.3c-0.1-0.2,0-0.4,0.6-0.7
	c0.1-0.1,0.5-0.3,0.7-0.4c0.4-0.2,0.7-0.6,0.9-1c0,0,0-0.1,0.1-0.1c0,0,0.1,0,0.1,0c0.1,0,0.2,0,0.3,0.1c0.1,0,0.2,0.1,0.2,0.2
	c0,0,0,0.1,0,0.1c0,0,0,0,0,0.1c0,0,0,0,0.1,0c0.1-0.1,0.1-0.1,0.2-0.2c0,0,0.1-0.1,0.1-0.1c0,0,0.1,0,0.1-0.1
	C30.6,38.3,30.6,38.3,30.6,38.3z"/>
<path class="st25" d="M29.4,40.4c0.1-0.1,0.2-0.2,0.3-0.2v0c0,0-0.7,0.4-1,0.2c-0.2-0.1-0.1-0.3-0.1-0.3c0,0-0.5-0.3-0.6-0.3v0
	c-0.1,0-0.1,0.1-0.1,0.1c-0.6,0.3-0.7,0.4-0.6,0.7c0.1,0.2,0.4,0.3,1,0.3C28.6,40.8,29.2,40.6,29.4,40.4z"/>
<path class="st34" d="M28.7,39.9c-0.4,0.2-0.2,0.2-0.1,0.2c0.1,0,0.7-0.4,1.1-0.7c0.4-0.3,0.7-0.7,0.8-0.8c0.1,0,0.1-0.1,0.2-0.1
	c0-0.1,0-0.2,0-0.2c0-0.1-0.1-0.1-0.1-0.1c0,0,0,0.1,0,0.1c0,0-0.1,0-0.1,0.1c0,0-0.1,0.1-0.1,0.1c-0.1,0.1-0.1,0.1-0.2,0.2
	C29.9,39.2,29.1,39.7,28.7,39.9z"/>
<g>
	<path class="st35" d="M28.6,40c-0.1-0.1-0.4-0.3-0.7-0.3"/>
	<path class="st35" d="M28.9,39.8c-0.1-0.1-0.4-0.3-0.7-0.3"/>
	<path class="st35" d="M29.3,39.6c-0.1-0.1-0.4-0.3-0.7-0.3"/>
	<path class="st35" d="M29.6,39.4c-0.1-0.1-0.4-0.3-0.7-0.3"/>
	<path class="st35" d="M29.9,39.2c-0.1-0.2-0.5-0.3-0.7-0.3"/>
</g>
<path id="XMLID_1188_" class="st15" d="M33.1,23.8c0.2,0.5,0.9,1.3,1.1,1.8c0.4,1.1,0.2,1.9,0.1,3.4c-0.1,1.6-0.3,2.8-0.3,2.8
	c0,0.3,0.4,0.8,0.5,2.1c0,1.2-0.1,2.6-0.1,2.6s-0.9,0.5-1.5,0c0,0-0.6-3-0.8-4.4c-0.2-1.3-0.3-2.3-0.3-2.3l-0.5,2.4
	c0,0,0,0.6,0.1,1.2c0.1,0.9-0.4,2.5-0.4,2.5s-0.9,0.3-1.5-0.2c0,0-0.2-2.5-0.2-3.7c0-1.4,0.3-6,0.4-8L33.1,23.8z"/>
<path id="XMLID_1163_" class="st21" d="M33.1,23.8c0.2,0.5,0.9,1.3,1.1,1.8c0.4,1.1,0.2,1.9,0.1,3.4c-0.1,1.6-0.3,2.8-0.3,2.8
	c0,0.3,0.4,0.8,0.5,2.1c0,1.2-0.1,2.6-0.1,2.6s-0.9,0.5-1.5,0c0,0-0.6-3-0.8-4.4c-0.2-1.3-0.3-2.3-0.3-2.3l-0.5,2.4
	c0,0,0,0.6,0.1,1.2c0.1,0.9-0.4,2.5-0.4,2.5s-0.9,0.3-1.5-0.2c0,0-0.2-2.5-0.2-3.7c0-1.4,0.3-6,0.4-8L33.1,23.8z"/>
<path id="XMLID_1187_" class="st23" d="M31.7,29.9l-0.3-2.8c0,0-0.7-0.1-1.2-0.7c0,0,0.1,0.6,0.9,0.9l0.4,2.5l-0.3,2.5L31.7,29.9z"
	/>
<g>
	<path class="st35" d="M33.3,41.5c0,0,0.4-0.2,0.8,0"/>
	<path class="st35" d="M33.3,41.1c0,0,0.4-0.2,0.9,0"/>
	<path class="st35" d="M33.3,40.7c0,0,0.5-0.2,0.9,0"/>
	<path class="st35" d="M33.3,40.4c0,0,0.4-0.2,0.9,0"/>
	<path class="st35" d="M33.3,40c0,0,0.5-0.2,0.9,0"/>
</g>
<g id="XMLID_1170_">
	<path id="XMLID_1184_" class="st26" d="M32.4,19.2L32.4,19.2c0.3,0,0.9,0.1,0.9,0.1c0.3,0.2,0.4,0.3,0.5,0.8c0,0.2-0.1,0.7-0.3,1.4
		l-0.3,1.4l-0.2,0.9c-0.4,0.4-1,0.6-2.1,0.6c-0.6,0-1-0.2-1.3-0.3c0-0.6-0.1-1.3-0.1-1.7c-0.5-0.4-0.7-1.1-0.4-1.6
		c0.6-1,1.3-1.7,1.7-1.7L32.4,19.2z"/>
	<path class="st24" d="M29.5,22.4l0.1,0.7c0,0,0.5,0.3,1.7,0.3c1.7-0.1,1.9-0.5,1.9-0.5c0.1-0.5,0.2-1,0.3-1.5c0,0-0.7-0.1-0.7-0.9
		c-0.1-0.7,0.4-1.2,0.4-1.2l-0.8-0.1c0,0-1.5-0.1-1.8-0.1c-0.2,0-0.6,0.3-1,0.8C29.3,20.6,28.6,21.6,29.5,22.4z"/>
	<path id="XMLID_1164_" class="st26" d="M36.6,22.4c-0.7-0.8-1.4-1.6-1.9-2.2c-0.7-0.9-0.9-0.9-1.4-0.9c-0.3,0.2-0.3,0.8,0.1,2
		c0.5,0.4,1.9,1.8,1.9,1.8c-0.1,0.1-0.6,1.2-1,1.6c-0.1,0.1-0.3,0.1-0.4,0.1c-0.3,0-0.5,0.1-0.7,0.2c-0.2,0.1-0.3,0.1-0.3,0.1
		c0,0.1,0,0.2,0.2,0.2c0.1,0,0.3,0,0.5-0.1c0,0-0.1,0.1-0.3,0.2c-0.1,0.1-0.5,0.3-0.7,0.4c-0.2,0.1-0.2,0.5,0.5,0.7
		c0.3,0.1,0.8,0,1.4-0.5c0.2-0.2,0.5-0.5,0.7-0.8c0.6-0.7,1-1.2,1.3-1.6C37,22.9,36.8,22.6,36.6,22.4z"/>
	<path class="st22" d="M30.4,22.3c0,0,0.6,0.5,1.3,0.2c0.7-0.2,0.8-0.8,0.8-0.8s0.1,0.8-0.8,1C30.9,23,30.4,22.3,30.4,22.3z"/>
	<g id="XMLID_1171_">
		<g id="XMLID_1182_">
			<path class="st26" d="M29.6,17.1c0,1.1,0.4,1.4,0.6,1.5c0.2,0.1,0.5,0,0.9,0v0.7c0,0-0.7,0.6-0.7,0.9c0,0.3,0.9,0.4,1.3,0
				c0.3-0.2,0.6-0.7,0.7-0.8c0,0,0.1-0.1,0.1-0.2v-1.6c0,0,0.2,0.1,0.5-0.1c0.3-0.3,0.3-0.7,0.1-0.9c-0.1-0.1-0.4-0.1-0.6,0.1
				c-0.1,0.3-0.2,0.4-0.3,0.3c-0.4-0.5-0.5-0.3-1.2-0.6c-0.7-0.4-0.8-0.9-1-1.3C29.8,15.3,29.6,15.8,29.6,17.1z"/>
		</g>
		<g id="XMLID_1180_">
			<path id="XMLID_1181_" class="st34" d="M30.9,16.9c0,0.1,0.1,0.1,0.1,0.1c0.1,0,0.1-0.1,0.1-0.1c0-0.1-0.1-0.1-0.1-0.1
				C31,16.8,30.9,16.9,30.9,16.9z"/>
		</g>
		<g id="XMLID_1048_">
			<path id="XMLID_1162_" class="st34" d="M29.8,16.9c0,0.1,0.1,0.1,0.1,0.1c0.1,0,0.1-0.1,0.1-0.1c0-0.1-0.1-0.1-0.1-0.1
				C29.9,16.8,29.8,16.9,29.8,16.9z"/>
		</g>
		<g id="XMLID_1176_">
			<polygon id="XMLID_1177_" class="st27" points="30.5,16.7 30.5,17.6 30,17.5 			"/>
		</g>
		<g id="XMLID_1174_">
			<path id="XMLID_1175_" class="st27" d="M31.1,18.6c0.4,0,1.1-0.3,1.2-0.6c0,0,0,0.2-0.3,0.4c-0.2,0.2-1,0.4-1,0.4V18.6z"/>
		</g>
		<path id="XMLID_1173_" class="st34" d="M31,16.3l0.3,0.2c0.1-0.1,0-0.2-0.1-0.3C31.2,16.2,31.1,16.2,31,16.3z"/>
		<path id="XMLID_1192_" class="st36" d="M31.1,17.6l-0.4,0.2C30.7,18,30.9,18,31,18C31.1,17.9,31.2,17.8,31.1,17.6z"/>
		<path class="st27" d="M30.9,18C30.9,18,30.9,18,30.9,18c0,0,0.1,0,0.1,0c0.1,0,0.1-0.2,0.1-0.3C31,17.7,30.9,17.8,30.9,18z"/>
		<path id="XMLID_1172_" class="st34" d="M29.7,16.4l0.4-0.1c0-0.1-0.1-0.2-0.2-0.1C29.7,16.2,29.7,16.3,29.7,16.4z"/>
	</g>
</g>
<path class="st34" d="M5.7,37.8c-0.3,0.1-0.5,0.1-0.8,0.1c-0.4-0.1-1-0.4-1-0.9c0-0.1,0-0.1,0-0.2c0.1-0.2,0.3-0.2,0.5-0.3
	c0.4-0.1,0.7-0.4,0.9-0.7c0.2-0.4,0.2-0.8,0.2-1.2c0-0.1,0-0.3,0-0.4c0-0.1,0.1-0.2,0.1-0.3c0.2-0.3,0.5-0.5,0.8-0.6
	c0.1,0,0.3-0.1,0.4,0c0.1,0,0.1,0.1,0.1,0.2c0,0.1-0.1,0.2-0.2,0.2c-0.1,0.2-0.3,0.4-0.3,0.6c0,0.2,0.1,0.4,0.2,0.6
	c0.2,0.6,0.3,1.4,0,2C6.5,37.4,6.1,37.7,5.7,37.8z"/>
<g>
	<path class="st36" d="M12,34.9c0,0,0.5-3.9,0.4-5.3c-0.1-0.7-0.4-0.9-1-0.9s-3.6,1.8-3.6,1.8l0.4,1l2.5-0.8c0,0-0.3,1.5-0.3,1.8
		c-0.1,0.3-0.2,0.7-0.3,1c0,0.2-0.1,0.4-0.1,0.5C10.1,34.3,12,34.9,12,34.9z"/>
	<path class="st37" d="M10.8,30.8c0.4-0.1,0.7-0.3,0.8-0.4c0,0-0.1,0.3-0.4,0.4C11,31,10.8,31,10.8,31L10.8,30.8z"/>
</g>
<path class="st36" d="M11.4,38.6c-0.9-0.4-2-0.7-2.6-1.1c-0.6-0.4-0.6-0.4-1.3-0.9c-0.7-0.4,0.2-1.9,0.2-1.9s1.3-0.4,1.9-0.7
	c0.4-0.1,0.8-0.2,1.3-0.2c0.4,0,1.3,0,1.6,0.3c0.3,0.3,0.3,0.9,0.3,0.9l1,1L11.4,38.6z"/>
<path class="st15" d="M13,35.3L12.8,35c0,0,0,0-0.1-0.1c-0.2-0.1-0.6-0.1-1.5,0.5c-1.3,0.7-1.6,2.5-1.6,2.5l0,0
	C9.7,38,10,38,10.2,38.1c0.1-0.8,0.7-1.7,1.4-2.2C12.3,35.4,13,35.3,13,35.3z"/>
<path class="st38" d="M13,35.3L12.8,35c0,0,0,0-0.1-0.1c-0.2-0.1-0.6-0.1-1.5,0.5c-1.3,0.7-1.6,2.5-1.6,2.5l0,0
	C9.7,38,10,38,10.2,38.1c0.1-0.8,0.7-1.7,1.4-2.2C12.3,35.4,13,35.3,13,35.3z"/>
<path class="st15" d="M8.4,35.8c0.2,0.7,0.1,1,0,1.5l0,0c0.1,0.1,0.2,0.1,0.4,0.3c0.2,0.1,0.7,0.4,1,0.4c0-0.6,0.5-1.5,1.1-2
	c0.8-0.7,1.9-0.9,1.9-0.9s0-0.6-0.3-0.9c-0.3-0.3-1-0.3-1.5-0.3c-0.4,0-0.8,0-0.8,0c-0.4,0.1-0.7,0.2-0.7,0.2c0,0,0.9,0.1,0.4,0.4
	c-0.7,0.4-1.7,0.1-1.7,0.1c-0.2,0-0.3,0.1-0.5,0.2C7.7,34.7,8.2,35,8.4,35.8z"/>
<path class="st21" d="M8.4,35.8c0.2,0.7,0.1,1,0,1.5l0,0c0.1,0.1,0.2,0.1,0.4,0.3c0.2,0.1,0.7,0.4,1,0.4c0-0.6,0.5-1.5,1.1-2
	c0.8-0.7,1.9-0.9,1.9-0.9s0-0.6-0.3-0.9c-0.3-0.3-1-0.3-1.5-0.3c-0.4,0-0.8,0-0.8,0c-0.4,0.1-0.7,0.2-0.7,0.2c0,0,0.9,0.1,0.4,0.4
	c-0.7,0.4-1.7,0.1-1.7,0.1c-0.2,0-0.3,0.1-0.5,0.2C7.7,34.7,8.2,35,8.4,35.8z"/>
<path class="st36" d="M25.6,41.8c-0.9-0.5-1.3-0.7-2-1.6c-0.5-1.2-1-3.3-1.3-3.9c-0.3-0.5-0.4-0.7-1.2-0.7c-1.8,0-6.2,1.3-6.2,1.3
	l-1.7,0.7l-0.3,0.5c0.3,0.3,0.9-0.1,1.4,0.2c0.6,0.3,0.7,0.9,1.6,0.8c1.7-0.1,2.6-0.6,3.5-0.9c0.7-0.3,1.6-0.5,1.6-0.5
	c0.1,0.5,0.2,0.8,0.5,1.3c0.5,0.7,0.6,0.8,0.9,1.4c0,0,0,0.1,0.1,0.2c0.1,0.2,0.1,0.4,0.1,0.6c0.1,0.7,0.3,0.2,1.4,1.1
	c0.2,0.2,0.5,0.4,0.8,0.4c0.3,0.1,0.6,0,0.9-0.1c0.3-0.1,0.3-0.2,0.5-0.4C26.3,42.2,25.8,42,25.6,41.8z"/>
<path class="st24" d="M11.2,38.5c0,0,0.1-1.2,1-1.9c0.8-0.6,1.3-0.7,1.5-0.7c0.2,0.1,1,0.2,1.5,0.1c0.4,0,3.6-0.6,5.8-0.6
	c0.8,0,1.1,0.2,1.4,1c0.3,0.7,0.7,2.3,0.7,2.3s-0.4,0.7-1.4,0.7c0,0-0.3-0.3-0.5-0.8c-0.2-0.4-0.2-0.8-0.2-0.8s-3.1,1.7-4.8,2
	C14.4,40,11.2,38.5,11.2,38.5z"/>
<path class="st25" d="M21.1,37c0,0-0.2,0.2-0.3,0.6c0,0,0-0.1,0-0.1c-0.1-0.5-0.3-0.8-0.5-1.1c-0.3-0.2-0.5-0.3-1.1-0.3
	c-0.6,0-4,0.6-4,0.6c-0.1-0.3-0.2-0.3-0.2-0.3c0.1,0.2,0.1,0.5-0.1,0.6l-0.6,2.5c0.7,0.2,1.4,0.3,1.9,0.2c1.5-0.2,4.2-1.6,4.7-1.9
	l0.1-0.1C20.9,37.5,21.1,37,21.1,37z"/>
<path id="XMLID_426_" class="st25" d="M22.6,41.5c-0.1,0,0,0.3,0.1,0.4c0,0.1,0.2,0.2,0.4,0.2c0.2,0.1,0.4,0.2,0.7,0.4
	c0.1,0.1,0.5,0.4,0.9,0.5c0.4,0.1,0.8,0.1,1.3-0.1c0.4-0.2,0.4-0.4,0.4-0.6L22.6,41.5z"/>
<path id="XMLID_425_" class="st15" d="M23.6,40.2l0-0.1c0.1,0,0.3,0.3,0.6,0.7c0.3,0.3,0.6,0.6,0.8,0.7c0.7,0.4,0.9,0.4,1.1,0.6
	c0.3,0.3,0,0.6-0.6,0.8c-0.6,0.2-1.1,0-1.4-0.3c-0.3-0.2-0.6-0.5-0.8-0.6c-0.2-0.1-0.6-0.2-0.7-0.4c-0.1-0.1-0.1-0.3-0.1-0.6
	c0-0.2-0.1-0.6-0.1-0.6l0.1,0.2C23,40.8,23.6,40.5,23.6,40.2z"/>
<path id="XMLID_424_" class="st23" d="M23.6,40.2l0-0.1c0.1,0,0.3,0.3,0.6,0.7c0.3,0.3,0.6,0.6,0.8,0.7c0.7,0.4,0.9,0.4,1.1,0.6
	c0.3,0.3,0,0.6-0.6,0.8c-0.6,0.2-1.1,0-1.4-0.3c-0.3-0.2-0.6-0.5-0.8-0.6c-0.2-0.1-0.6-0.2-0.7-0.4c-0.1-0.1-0.1-0.3-0.1-0.6
	c0-0.2-0.1-0.6-0.1-0.6l0.1,0.2C23,40.8,23.6,40.5,23.6,40.2z"/>
<path class="st23" d="M25.3,41.7c-0.2-0.1-0.3-0.1-0.7-0.4c-0.4-0.3-0.9-1-1-1.1c0,0,0,0,0,0c0,0.2-0.3,0.4-0.6,0.4
	c0.3-0.1,0.8,0.6,1,0.9c0.3,0.3,0.6,0.5,0.7,0.5C25,41.8,25.2,41.7,25.3,41.7z"/>
<path class="st39" d="M24.5,42c0.2-0.3,0.4-0.4,0.7-0.4"/>
<path class="st39" d="M24.2,41.7c0.2-0.3,0.4-0.4,0.7-0.4"/>
<path class="st39" d="M23.9,41.5c0.2-0.3,0.4-0.4,0.7-0.4"/>
<path class="st39" d="M23.6,41.3c0.2-0.3,0.4-0.4,0.7-0.4"/>
<path class="st39" d="M23.3,41c0.2-0.3,0.4-0.4,0.7-0.4"/>
<path class="st36" d="M23.7,43.1c-0.9-0.3-1.3-0.7-2-1.7c-0.5-1.2-1-3.8-1.4-4.4c-0.3-0.5-0.6-0.7-1.5-0.6c-1.8,0.2-4.6,0.8-4.6,0.8
	l-1.2-0.5l-1.8,1.8c0.5,0.2,0.7,0.6,1.2,1c0.5,0.4,0.8,0.6,1.6,0.6c1.3,0,2.5-0.8,3.3-1.1c0.7-0.3,1.4-0.7,1.4-0.7
	c0,0.4,0.2,1.1,0.8,2c0.5,0.7,0.6,0.8,0.9,1.4c0,0,0,0.1,0.1,0.2c0.1,0.2,0.1,0.4,0.1,0.6c0.1,0.7,0.3,0.2,1.4,1.1
	c0.2,0.2,0.5,0.4,0.8,0.4c0.3,0.1,0.6,0.1,0.9,0c0.3-0.1,0.4-0.2,0.5-0.4C24.4,43.3,23.9,43.2,23.7,43.1z"/>
<path class="st24" d="M19.7,40.5c-0.1-0.1-0.1-0.1-0.2-0.2c-0.6-0.8-0.8-1.5-0.8-1.9c0,0-0.4,0.2-1.4,0.8c-0.8,0.4-1.8,1.1-3.2,1.1
	c-0.7,0-1.2-0.3-1.7-0.7c-0.3-0.3-0.6-0.7-1.2-1c0.2-0.7,0.4-1.6,1.7-2.2l1.8,0.7c0,0,2.1-0.5,3.9-0.7c1.1-0.1,1.3,0,1.5,0.5
	c0.3,0.5,0.6,1.8,1,3.1C21.1,40.1,20.4,40.6,19.7,40.5z"/>
<path id="XMLID_364_" class="st25" d="M20.6,42.7c-0.1,0,0,0.3,0.1,0.4c0,0.1,0.2,0.2,0.4,0.2c0.2,0.1,0.4,0.2,0.7,0.4
	c0.1,0.1,0.5,0.4,0.9,0.5c0.4,0.1,0.8,0.1,1.3-0.1c0.4-0.2,0.4-0.4,0.4-0.6L20.6,42.7z"/>
<path id="XMLID_319_" class="st15" d="M21.7,41.4l0-0.1c0.1,0,0.3,0.3,0.6,0.7c0.3,0.3,0.6,0.6,0.8,0.7c0.7,0.4,0.9,0.4,1.1,0.6
	c0.3,0.3,0,0.6-0.6,0.8c-0.6,0.2-1.1,0-1.4-0.3c-0.3-0.2-0.6-0.5-0.8-0.6c-0.2-0.1-0.6-0.2-0.7-0.4c-0.1-0.1-0.1-0.3-0.1-0.6
	c0-0.2-0.1-0.6-0.1-0.6l0.1,0.2C21.1,42,21.7,41.7,21.7,41.4z"/>
<path id="XMLID_404_" class="st23" d="M21.7,41.4l0-0.1c0.1,0,0.3,0.3,0.6,0.7c0.3,0.3,0.6,0.6,0.8,0.7c0.7,0.4,0.9,0.4,1.1,0.6
	c0.3,0.3,0,0.6-0.6,0.8c-0.6,0.2-1.1,0-1.4-0.3c-0.3-0.2-0.6-0.5-0.8-0.6c-0.2-0.1-0.6-0.2-0.7-0.4c-0.1-0.1-0.1-0.3-0.1-0.6
	c0-0.2-0.1-0.6-0.1-0.6l0.1,0.2C21.1,42,21.7,41.7,21.7,41.4z"/>
<path class="st23" d="M22.7,42.5c-0.4-0.3-0.9-1-1-1c0,0.2-0.3,0.4-0.6,0.4l0,0c0.3-0.1,0.8,0.6,1,0.9c0.3,0.3,0.6,0.5,0.7,0.5
	c0.2-0.2,0.4-0.3,0.6-0.3C23.2,42.8,23.1,42.8,22.7,42.5z"/>
<path class="st39" d="M22.5,43.2c0.2-0.3,0.4-0.4,0.7-0.4"/>
<path class="st39" d="M22.2,43c0.2-0.3,0.4-0.4,0.7-0.4"/>
<path class="st39" d="M21.9,42.8c0.2-0.3,0.4-0.4,0.7-0.4"/>
<path class="st39" d="M21.6,42.5c0.2-0.3,0.4-0.4,0.7-0.4"/>
<path class="st39" d="M21.4,42.2c0.2-0.3,0.4-0.4,0.7-0.4"/>
<g>
	<path class="st36" d="M7.7,34.7c0,0-2.2-1.2-2.5-1.3L7,32.3l-0.4-1.1c0,0-2.8,0.9-3.4,1.2C3,32.6,2.8,32.8,2.8,33
		c0,0.4,0.2,0.8,0.7,1.2c1,0.9,2.5,1.7,3.9,2.4c0.5,0.2,1,0.6,1,0.6C8.5,37,8.7,35.8,7.7,34.7z"/>
	<path class="st37" d="M5.1,33.4c-0.3,0.2-0.7,0.3-1,0.4c0,0,0.6,0.1,1.3-0.3L5.1,33.4z"/>
</g>
<g id="XMLID_552_">
	<path class="st34" d="M9.9,30.5L9.9,30.5c-0.5-1.2-1.2-1.2-2.4-0.7c-0.9,0.4-1.6,1-1.7,1.9c0,0.7,0.3,1.3,0.8,1.8
		c0.5,0.5,1.3,0.6,2.2,0.2c0,0,0,0,0,0C10,33.5,10.3,31.7,9.9,30.5z"/>
	<g id="XMLID_965_">
		<path id="XMLID_968_" class="st36" d="M8.9,30.2c0.3,0,0.8,0.5,1.2,1.7c0.4,1,0.1,1.4,0,1.5c-0.1,0.1-0.5,0.2-0.8,0.3l0.2,0.6
			l-1.4,0.3l-0.4-1.1c0,0-0.1,0.2-0.5,0.1c-0.3-0.1-0.6-0.5-0.4-0.7c0.1-0.3,0.5-0.4,0.8-0.1c0,0,0.2-0.1,0.2-0.5
			c0,0,0.4-0.1,0.8-0.5C9,31.1,8.9,30.4,8.9,30.2z"/>
	</g>
	<g id="XMLID_930_">
		<path id="XMLID_964_" class="st34" d="M8.7,32c0,0.1,0,0.2-0.1,0.2c-0.1,0-0.1,0-0.2-0.1c0-0.1,0-0.2,0.1-0.2
			C8.6,31.9,8.6,32,8.7,32z"/>
	</g>
	<g id="XMLID_787_">
		<path id="XMLID_789_" class="st34" d="M9.6,31.3l-0.3-0.1c0-0.1,0.1-0.1,0.2-0.1C9.6,31.1,9.7,31.2,9.6,31.3z"/>
	</g>
	<g id="XMLID_714_">
		<path id="XMLID_718_" class="st34" d="M8.4,31.7l-0.2,0.2c-0.1-0.1-0.1-0.2,0-0.2C8.2,31.6,8.3,31.6,8.4,31.7z"/>
	</g>
	<g id="XMLID_692_">
		<path id="XMLID_713_" class="st34" d="M9.7,31.6c0,0.1,0,0.2-0.1,0.2c-0.1,0-0.1,0-0.2-0.1c0-0.1,0-0.2,0.1-0.2
			C9.6,31.5,9.7,31.5,9.7,31.6z"/>
	</g>
	<g id="XMLID_790_">
		<path id="XMLID_917_" class="st37" d="M9.3,32.9c0,0.1,0,0.2-0.1,0.2c-0.1,0-0.1,0-0.2-0.1c0-0.1,0-0.2,0.1-0.2
			C9.2,32.8,9.3,32.8,9.3,32.9z"/>
	</g>
	<g id="XMLID_661_">
		<polygon id="XMLID_685_" class="st37" points="9,31.7 9.3,32.5 9.6,32.3 		"/>
	</g>
	<g id="XMLID_644_">
		<path id="XMLID_645_" class="st37" d="M9.3,33.7C9,33.8,8.3,33.8,8,33.6c0,0,0.1,0.2,0.4,0.2c0.3,0.1,1,0,1,0L9.3,33.7z"/>
	</g>
	<path id="XMLID_636_" class="st34" d="M7.5,32.7l0.2,0.5l0,0c0.2-0.1,0.3-0.3,0.2-0.5l-0.2-0.5L7.5,32.7z"/>
</g>
<g id="Go_1_">
	<path class="st15" d="M13.8,16.2c-0.1,0-0.1,0-0.2,0c-0.1,0-0.1,0-0.1,0.1c0,0-0.1,0.1-0.1,0.1c0,0,0,0.1-0.1,0.1c0,0,0,0.1,0,0.1
		c0,0.1,0,0.1,0,0.2c0,0.1,0,0.1,0,0.2c0,0.1,0,0.1,0,0.1c0,0.1,0,0.1,0,0.2c0,0.1,0,0.1,0,0.1c0,0,0.1,0.1,0.1,0.1
		c0,0,0.1,0.1,0.2,0.1c0.1,0,0.1,0,0.2,0c0.1,0,0.1,0,0.2,0c0,0,0.1-0.1,0.1-0.1c0,0,0.1-0.1,0.1-0.2l-0.3-0.1c0,0,0,0-0.1,0
		c0,0,0,0,0-0.1l0.1-0.4c0,0,0,0,0-0.1c0,0,0,0,0.1,0l0.8,0.2c0,0,0,0,0.1,0c0,0,0,0,0,0.1l-0.1,0.4c0,0.1-0.1,0.3-0.2,0.4
		c-0.1,0.1-0.2,0.2-0.3,0.2c-0.1,0.1-0.2,0.1-0.4,0.1c-0.1,0-0.3,0-0.4,0c-0.2,0-0.3-0.1-0.4-0.2c-0.1-0.1-0.2-0.2-0.3-0.3
		c-0.1-0.1-0.1-0.2-0.1-0.3c0-0.1,0-0.2,0-0.4c0-0.1,0-0.2,0.1-0.3c0-0.1,0-0.2,0.1-0.3c0-0.1,0.1-0.2,0.2-0.3
		c0.1-0.1,0.2-0.2,0.3-0.3c0.1-0.1,0.2-0.1,0.4-0.1c0.1,0,0.3,0,0.5,0c0.2,0,0.3,0.1,0.4,0.2c0.1,0.1,0.2,0.2,0.3,0.2
		c0.1,0.1,0.1,0.2,0.2,0.3c0,0.1,0,0.2,0,0.3c0,0,0,0,0,0c0,0,0,0-0.1,0l-0.5-0.1c0,0-0.1,0-0.1,0c0,0,0,0,0-0.1
		c0,0-0.1-0.1-0.1-0.1C14,16.3,13.9,16.3,13.8,16.2z"/>
	<path class="st15" d="M16.8,17.8c0,0,0,0.1,0,0.1c0,0.1,0,0.1,0,0.1c0,0.1-0.1,0.2-0.1,0.3c-0.1,0.1-0.1,0.2-0.2,0.2
		c-0.1,0.1-0.2,0.1-0.3,0.1c-0.1,0-0.3,0-0.4,0c-0.1,0-0.3-0.1-0.4-0.1c-0.1-0.1-0.2-0.1-0.3-0.2c-0.1-0.1-0.1-0.2-0.1-0.3
		c0-0.1,0-0.2,0-0.3c0,0,0-0.1,0-0.1c0-0.1,0-0.1,0-0.1c0-0.1,0.1-0.2,0.1-0.3c0.1-0.1,0.1-0.2,0.2-0.2c0.1-0.1,0.2-0.1,0.3-0.1
		c0.1,0,0.3,0,0.4,0c0.1,0,0.3,0.1,0.4,0.1c0.1,0.1,0.2,0.1,0.3,0.2c0.1,0.1,0.1,0.2,0.1,0.3C16.8,17.6,16.8,17.7,16.8,17.8z
		 M15.5,17.8c0,0.1,0,0.2,0.1,0.2c0,0.1,0.1,0.1,0.2,0.1c0.1,0,0.2,0,0.2,0c0.1,0,0.1-0.1,0.1-0.2c0,0,0-0.1,0-0.1c0,0,0-0.1,0-0.1
		c0-0.1,0-0.2-0.1-0.2c0-0.1-0.1-0.1-0.2-0.1c-0.1,0-0.2,0-0.2,0c-0.1,0-0.1,0.1-0.1,0.2c0,0,0,0.1,0,0.1
		C15.5,17.7,15.5,17.7,15.5,17.8z"/>
	<path class="st15" d="M17.6,18.9C17.6,18.9,17.5,19,17.6,18.9C17.5,19,17.5,19,17.4,19L17,18.9c0,0,0,0-0.1,0c0,0,0,0,0-0.1
		l0.1-0.3c0,0,0,0,0-0.1c0,0,0,0,0.1,0l0.4,0.1c0,0,0,0,0.1,0c0,0,0,0,0,0.1L17.6,18.9z M17.7,18.2C17.7,18.2,17.7,18.2,17.7,18.2
		c-0.1,0.1-0.1,0.1-0.1,0.1l-0.4-0.1c0,0,0,0-0.1,0c0,0,0,0,0-0.1l0.3-1.5c0,0,0,0,0-0.1c0,0,0,0,0.1,0l0.4,0.1c0,0,0,0,0.1,0
		c0,0,0,0,0,0.1L17.7,18.2z"/>
</g>
<g id="Go">
	<path class="st15" d="M13.8,22.7c-0.1,0-0.1,0.1-0.2,0.1c0,0-0.1,0.1-0.1,0.1c0,0,0,0.1,0,0.1c0,0.1,0,0.1,0,0.2c0,0,0,0.1,0,0.1
		c0,0.1,0,0.1,0.1,0.2c0,0.1,0,0.1,0.1,0.2c0,0.1,0,0.1,0,0.1c0,0,0.1,0.1,0.1,0.1c0,0,0.1,0.1,0.1,0.1c0,0,0.1,0,0.2,0
		c0.1,0,0.1,0,0.2,0c0.1,0,0.1,0,0.2-0.1c0,0,0.1-0.1,0.1-0.1c0,0,0-0.1,0-0.1c0-0.1,0-0.1,0-0.2l-0.3,0.1c0,0,0,0-0.1,0
		c0,0,0,0,0-0.1L14,23.2c0,0,0,0,0-0.1c0,0,0,0,0.1,0l0.8-0.3c0,0,0,0,0.1,0c0,0,0,0,0,0.1l0.2,0.4c0.1,0.1,0.1,0.3,0.1,0.4
		c0,0.1-0.1,0.3-0.1,0.4c-0.1,0.1-0.2,0.2-0.3,0.3c-0.1,0.1-0.2,0.2-0.4,0.2c-0.2,0.1-0.3,0.1-0.4,0.1c-0.1,0-0.3,0-0.4-0.1
		c-0.1-0.1-0.2-0.1-0.3-0.2c-0.1-0.1-0.2-0.2-0.2-0.3c0-0.1-0.1-0.2-0.1-0.3c0-0.1-0.1-0.2-0.1-0.3c0-0.1-0.1-0.2,0-0.4
		c0-0.1,0-0.2,0.1-0.4c0.1-0.1,0.1-0.2,0.2-0.3c0.1-0.1,0.2-0.2,0.4-0.2c0.2-0.1,0.3-0.1,0.4-0.1c0.1,0,0.3,0,0.4,0.1
		c0.1,0,0.2,0.1,0.3,0.2c0.1,0.1,0.1,0.1,0.2,0.2c0,0,0,0,0,0.1c0,0,0,0,0,0l-0.4,0.2c0,0-0.1,0-0.1,0c0,0-0.1,0-0.1,0
		c0,0-0.1-0.1-0.2-0.1S13.9,22.7,13.8,22.7z"/>
	<path class="st15" d="M17.2,22.4c0,0,0,0.1,0,0.1c0,0.1,0,0.1,0,0.1c0,0.1,0,0.2,0,0.3c0,0.1,0,0.2-0.1,0.3
		c-0.1,0.1-0.1,0.2-0.2,0.3c-0.1,0.1-0.2,0.1-0.3,0.2c-0.1,0-0.3,0.1-0.4,0.1c-0.1,0-0.2,0-0.3-0.1c-0.1,0-0.2-0.1-0.3-0.2
		c-0.1-0.1-0.1-0.2-0.2-0.3c0,0,0-0.1,0-0.1c0-0.1,0-0.1,0-0.1c0-0.1,0-0.2,0-0.3c0-0.1,0-0.2,0.1-0.3c0.1-0.1,0.1-0.2,0.2-0.3
		c0.1-0.1,0.2-0.1,0.3-0.2c0.1,0,0.3-0.1,0.4-0.1c0.1,0,0.2,0,0.3,0.1c0.1,0,0.2,0.1,0.3,0.2C17.1,22.2,17.1,22.3,17.2,22.4z
		 M16,23.1c0,0.1,0.1,0.1,0.2,0.2c0.1,0,0.2,0,0.2,0c0.1,0,0.2-0.1,0.2-0.1c0-0.1,0-0.1,0-0.2c0,0,0-0.1,0-0.1c0,0,0-0.1,0-0.1
		c0-0.1-0.1-0.1-0.2-0.2c-0.1,0-0.2,0-0.2,0c-0.1,0-0.2,0.1-0.2,0.1c0,0.1,0,0.1,0,0.2c0,0,0,0.1,0,0.1C16,23,16,23.1,16,23.1z"/>
	<path class="st15" d="M18.1,22.3C18.2,22.3,18.2,22.3,18.1,22.3c0,0.1,0,0.1-0.1,0.1l-0.4,0.1c0,0,0,0-0.1,0c0,0,0,0,0-0.1L17,21.1
		c0,0,0,0,0-0.1c0,0,0,0,0.1,0l0.4-0.1c0,0,0,0,0.1,0c0,0,0,0,0,0.1L18.1,22.3z M18.4,23C18.4,23,18.4,23,18.4,23
		c0,0.1,0,0.1-0.1,0.1l-0.4,0.1c0,0,0,0-0.1,0c0,0,0,0,0-0.1l-0.1-0.3c0,0,0,0,0-0.1c0,0,0,0,0.1,0l0.4-0.1c0,0,0,0,0.1,0
		c0,0,0,0,0,0.1L18.4,23z"/>
</g>
<path id="XMLID_1100_" class="st15" d="M7.5,28.7l-0.4-1.1l0.3-1v-0.6l-1,0.6v0.6l0.5,1.1c0,0,0,0,0,0l0,0L7.5,28.7z"/>
<path id="XMLID_1045_" class="st23" d="M7.5,28.7l-0.4-1.1l0.3-1v-0.6l-1,0.6v0.6l0.5,1.1c0,0,0,0,0,0l0,0L7.5,28.7z"/>
<path id="XMLID_1099_" class="st15" d="M9.5,22.3c0-0.2-0.1-0.4-0.3-0.5L9,21.6c-0.2-0.1-0.5-0.1-0.6,0l-3.2,1.9
	c-0.2,0.1-0.3,0.3-0.3,0.5v3.6c0,0.2,0.1,0.4,0.3,0.5l0.3,0.1c0.2,0.1,0.5,0.1,0.6,0l1.1-0.6l0.4,1.1c0,0,0.1,0,0.1,0L8.1,27
	l1.1-0.6c0.2-0.1,0.3-0.3,0.3-0.5L9.5,22.3z"/>
<path id="XMLID_1098_" class="st23" d="M4.8,27.6c0,0.2,0.1,0.4,0.3,0.5l0.3,0.1c0.2,0.1,0.4,0.1,0.6,0c-0.1,0.1-0.3,0-0.3-0.2
	l0-3.6c0-0.1,0-0.2,0.1-0.3l-0.9-0.5c-0.1,0.1-0.1,0.2-0.1,0.3V27.6z"/>
<path id="XMLID_1097_" class="st19" d="M9.5,22.2c0-0.1-0.2-0.2-0.3-0.1L6,24c-0.1,0-0.2,0.1-0.2,0.2l-0.9-0.5
	c0.1-0.1,0.1-0.2,0.2-0.2l3.2-1.9c0.2-0.1,0.5-0.1,0.6,0l0.3,0.1C9.4,21.8,9.5,22,9.5,22.2z"/>
<path id="Heart_3_" class="st32" d="M6.3,25.5c0-0.3,0.1-0.5,0.2-0.7l0,0l0,0c0.1-0.3,0.3-0.5,0.5-0.6c0.3-0.2,0.5,0.1,0.6,0.5
	c0,0,0.1,0,0.1,0c0.1-0.5,0.3-1,0.6-1.2c0.2-0.1,0.4-0.1,0.5,0.1l0,0l0,0c0.1,0.1,0.2,0.3,0.2,0.6c0,0.8-0.5,1.5-0.9,2.2L7.5,27
	l-0.4-0.2C6.7,26.5,6.3,26.3,6.3,25.5z"/>
<path class="st15" d="M8.1,25.3l-0.2-0.5c0,0,0-0.1-0.1-0.1c0,0-0.1,0-0.1,0.1l-0.3,1.1l-0.2-0.6c0,0,0,0-0.1,0c0,0,0,0,0,0
	c0,0-0.1,0-0.1,0.1L7,25.9l-0.6,0.3l0,0c0,0,0,0.1,0.1,0.1l0,0L7.1,26c0,0,0,0,0,0l0.1-0.4l0.2,0.6c0,0,0,0,0.1,0c0,0,0.1,0,0.1-0.1
	l0.3-1L8,25.4c0,0,0,0,0,0c0,0,0,0,0.1,0l0.5-0.3l0,0c0,0,0-0.1,0.1-0.1l0-0.1L8.1,25.3z"/>
</svg>
