<?xml version="1.0" encoding="UTF-8"?>
<svg id="Layer_2" data-name="Layer 2" xmlns="http://www.w3.org/2000/svg" viewBox="0 0 1047.31 559.22">
  <defs>
    <style>
      .cls-1 {
        fill: #58da08;
      }

      .cls-1, .cls-2, .cls-3, .cls-4, .cls-5 {
        stroke-width: 0px;
      }

      .cls-2 {
        fill: #fff;
      }

      .cls-3 {
        fill: #59db09;
      }

      .cls-4 {
        fill: #47af07;
      }

      .cls-5 {
        fill: #47b007;
      }
    </style>
  </defs>
  <g id="Layer_1-2" data-name="Layer 1">
    <path class="cls-1" d="m523,141.84c5.15,4.31,9.97,8.82,14.72,13.57.75.74,1.49,1.48,2.26,2.25,2.48,2.47,4.97,4.95,7.45,7.42,1.79,1.78,3.57,3.56,5.36,5.33,5.34,5.32,10.68,10.64,16.02,15.97,1.51,1.5,3.02,3.01,4.52,4.51,9.37,9.34,18.74,18.69,28.1,28.04,2.16,2.16,4.33,4.32,6.49,6.48.54.54,1.08,1.07,1.63,1.63,8.73,8.72,17.47,17.43,26.22,26.13,8.98,8.94,17.96,17.89,26.92,26.85,5.03,5.03,10.07,10.05,15.12,15.07,4.74,4.71,9.47,9.43,14.18,14.16,1.74,1.74,3.48,3.47,5.23,5.2,2.37,2.35,4.73,4.72,7.09,7.09.7.69,1.4,1.38,2.13,2.09.62.63,1.25,1.27,1.89,1.92.55.55,1.09,1.09,1.66,1.65q1.03,1.65.81,3.72c-1.11,2.75-2.83,4.34-4.93,6.42-.88.88-1.76,1.76-2.67,2.67-.97.95-1.93,1.9-2.9,2.85-.99.98-1.97,1.96-2.96,2.94-2.59,2.58-5.19,5.15-7.79,7.71-2.65,2.62-5.3,5.25-7.94,7.88-5.19,5.16-10.39,10.3-15.59,15.45-3.32-1.58-5.58-3.33-8.25-5.88-10.57-9.67-22.3-18.06-34.75-25.12-.66-.38-1.32-.77-2.01-1.16-29.52-16.96-62.67-25.32-96.62-25.15-.79,0-1.58,0-2.39,0-26.28.11-51.72,4.94-75.99,15.31-.67.29-1.34.57-2.04.87-20.94,9.06-43.62,22.22-58.48,39.95q-1.48,1.19-3.29,1.02c-2.91-1.1-4.49-2.73-6.7-4.92-.88-.87-1.77-1.74-2.68-2.63-.96-.95-1.91-1.91-2.86-2.86-.98-.98-1.97-1.95-2.95-2.93-2.06-2.04-4.11-4.09-6.16-6.15-2.63-2.63-5.27-5.25-7.92-7.86-2.03-2.01-4.06-4.03-6.08-6.05-.97-.97-1.95-1.93-2.92-2.9-1.36-1.34-2.71-2.7-4.06-4.06-.77-.77-1.54-1.54-2.34-2.33q-1.52-2.14-1.31-4.07c.91-2.42,1.98-3.65,3.81-5.48.65-.66,1.3-1.31,1.97-1.99.72-.71,1.44-1.42,2.18-2.16q1.14-1.14,2.3-2.31c2.56-2.57,5.13-5.12,7.7-7.67,1.83-1.83,3.67-3.67,5.5-5.5,3.95-3.95,7.91-7.9,11.87-11.84,5.73-5.7,11.44-11.41,17.16-17.12,9.27-9.27,18.55-18.52,27.83-27.78,9.02-8.99,18.03-17.98,27.04-26.98.56-.55,1.11-1.11,1.68-1.68,2.79-2.78,5.57-5.56,8.36-8.35,23.11-23.08,46.24-46.16,69.37-69.22Z"/>
    <path class="cls-1" d="m385,43.84c3.06,1.47,5.18,2.93,7.58,5.35q1.02,1.02,2.06,2.06c.72.73,1.45,1.47,2.19,2.22.75.75,1.5,1.5,2.27,2.28,2.39,2.4,4.77,4.81,7.15,7.21,1.62,1.63,3.24,3.26,4.86,4.89,3.97,3.99,7.93,7.99,11.89,11.99-1.48,3.45-3.43,5.67-6.08,8.31-.84.84-1.68,1.68-2.55,2.55q-1.36,1.35-2.75,2.72c-.93.93-1.86,1.85-2.82,2.81-2.46,2.46-4.94,4.91-7.41,7.36-2.52,2.5-5.04,5.01-7.56,7.52-4.94,4.92-9.88,9.83-14.83,14.73,5.03,6.16,10.62,11.69,16.3,17.25,2.33,2.28,4.64,4.58,6.96,6.87,4.3,4.26,8.61,8.51,12.93,12.75,3.02,2.96,6.03,5.93,9.03,8.91,1.14,1.13,2.29,2.26,3.44,3.38,1.6,1.56,3.19,3.14,4.78,4.72.91.89,1.82,1.79,2.75,2.71q1.81,2.41,1.81,4.5c-1.18,2.27-2.5,3.78-4.32,5.58-.7.7-1.4,1.4-2.12,2.12-.76.74-1.52,1.49-2.3,2.26-.78.77-1.55,1.54-2.35,2.34-2.48,2.46-4.97,4.91-7.46,7.37-1.68,1.67-3.36,3.34-5.04,5-4.12,4.09-8.26,8.17-12.39,12.25-5.64-4.7-10.87-9.7-16.07-14.88q-1.32-1.31-2.67-2.64c-2.89-2.87-5.78-5.74-8.67-8.61-1-.99-2-1.98-2.99-2.98-4.15-4.12-8.29-8.25-12.43-12.38-5.92-5.91-11.85-11.8-17.8-17.69-4.19-4.15-8.37-8.31-12.54-12.47-2.49-2.49-4.98-4.97-7.49-7.44-2.78-2.75-5.55-5.52-8.31-8.29q-1.25-1.23-2.53-2.48c-.75-.75-1.49-1.51-2.26-2.29-.66-.65-1.31-1.3-1.99-1.98q-1.26-1.88-1.16-3.9c1.06-2.32,2.25-3.7,4.06-5.5q1.01-1.02,2.04-2.06c.74-.73,1.49-1.47,2.26-2.22.78-.78,1.56-1.56,2.36-2.37,2.58-2.58,5.18-5.15,7.78-7.73,1.79-1.79,3.59-3.58,5.38-5.36,4.24-4.23,8.48-8.45,12.73-12.66,4.84-4.8,9.66-9.61,14.49-14.42,9.93-9.9,19.86-19.78,29.81-29.66Z"/>
    <path class="cls-1" d="m661,43.84c5.18,4.33,10.01,8.87,14.77,13.66.74.74,1.48,1.48,2.25,2.25,2.43,2.43,4.86,4.87,7.29,7.3,1.69,1.7,3.39,3.39,5.08,5.09,4.44,4.45,8.88,8.9,13.32,13.35,4.54,4.55,9.08,9.09,13.61,13.63,8.89,8.9,17.79,17.81,26.67,26.72-4.73,5.69-9.79,10.93-15.03,16.15-.89.89-1.78,1.78-2.69,2.69-2.42,2.42-4.84,4.83-7.26,7.24-2.54,2.53-5.07,5.06-7.6,7.6-4.79,4.79-9.58,9.57-14.37,14.35-5.46,5.45-10.92,10.9-16.37,16.35-11.22,11.21-22.44,22.41-33.66,33.61q-7.38-6.25-10.55-9.44c-.6-.6-1.2-1.2-1.82-1.82-.62-.63-1.24-1.25-1.88-1.89q-.98-.99-1.99-1.99c-2.07-2.08-4.14-4.16-6.2-6.23-1.41-1.42-2.83-2.84-4.24-4.25-3.44-3.45-6.88-6.91-10.32-10.37,1.61-4.02,4.44-6.7,7.46-9.69.56-.56,1.11-1.11,1.69-1.69,1.83-1.83,3.68-3.66,5.52-5.49,1.28-1.27,2.55-2.54,3.83-3.82,3.35-3.34,6.71-6.68,10.07-10.02,3.43-3.41,6.85-6.82,10.28-10.24,6.72-6.69,13.44-13.38,20.16-20.07-4.69-5.64-9.7-10.83-14.9-16-.83-.83-1.67-1.67-2.53-2.53-2.65-2.64-5.3-5.28-7.95-7.92-1.8-1.8-3.61-3.6-5.41-5.4-4.4-4.39-8.81-8.78-13.21-13.17,1.38-3.09,2.95-5.2,5.35-7.58.68-.68,1.36-1.36,2.06-2.06q1.1-1.08,2.22-2.19c.75-.75,1.5-1.5,2.28-2.27,2.4-2.39,4.81-4.77,7.21-7.15,1.63-1.62,3.26-3.24,4.89-4.86,3.99-3.97,7.99-7.93,11.99-11.89Z"/>
    <path class="cls-3" d="m561.88,14.65c12.07,11.52,17.1,25.66,18.44,42-.58,16.47-6.65,29.69-18.31,41.19q-.85.86-1.71,1.74c-10.67,10.04-25.7,13.95-40.04,13.54-16.47-1.42-29.21-8.29-40.25-20.28-10.91-14.12-13.27-28.62-12-46,.83-4.62,2.14-8.7,4-13,.39-.93.78-1.86,1.18-2.81,7.3-15.2,20.02-23.27,35.24-29.12,18.48-5.23,39.1.7,53.45,12.74Z"/>
    <path class="cls-2" d="m617,458.84c.33-.99.66-1.98,1-3h21c.09,9.72.16,19.44.21,29.16.02,4.51.05,9.03.09,13.54.04,4.36.07,8.73.08,13.09,0,1.66.02,3.31.04,4.97.15,12.05-.45,23.28-9.25,32.45-14.21,11.66-32.57,10.83-49.86,9.29-1.44-.16-2.88-.32-4.31-.5-1.14-4.22-.8-7.53-.06-11.81.19-1.16.39-2.32.59-3.52.16-.88.31-1.76.47-2.67q1.25.03,2.54.06c3.14.07,6.28.12,9.42.16,2.01.03,4.03.08,6.04.13,7.49.08,12.71-.14,19.01-4.35,3.4-3.95,3.57-7.97,4-13q-.86.42-1.73.84c-9.97,4.45-20.8,5.66-31.27,2.16-8.73-3.62-16.41-10.05-20.25-18.82-3.74-10.92-3.98-23.13.84-33.77,5.3-9.05,12.33-14.69,22.2-18.02,9.92-1.78,20.32-1.3,29.21,3.6Zm-30.84,21.28c-3.45,5.09-2.79,11.86-2.16,17.72,1.79,4.64,4.62,8.52,9,11,4.85,1.62,10.16,1.94,15.07.32,5.28-2.76,8.08-6.77,9.93-12.32.81-9.14-.1-14.19-5.88-21.31-9.18-7.29-19.27-3.57-25.96,4.59Z"/>
    <path class="cls-3" d="m1031,435.84c10.21,8.91,15.21,22,16.17,35.34.79,16.92-1.42,32.56-12.54,46.1-6.85,7.22-15.12,11.02-25.02,11.85-11.62.29-21.3-2.1-30.6-9.29-11.2-10.83-14.83-25.77-15.25-40.94.41-15.04,3.6-28.94,14.25-40.06,15.16-14.01,36.19-14.57,53-3Zm-38.77,17.18c-7.65,11.94-8.03,26.75-5.11,40.39,1.94,6.61,5.05,11.38,10.62,15.44,5.83,1.79,11.02,2.09,16.56-.62,6.96-6.15,9.98-11.85,10.99-21.17.13-2.89.16-5.75.13-8.65,0-1.01-.02-2.02-.02-3.07-.22-9.87-1.91-17.89-8.92-25.19-3.71-3.24-7.51-3.79-12.38-3.6-5.04.71-8.65,2.49-11.88,6.47Z"/>
    <path class="cls-3" d="m931,430.84c.74.29,1.49.58,2.25.88,1.6.66,3.18,1.38,4.75,2.12-2.82,2.2-5.71,4.04-8.81,5.81-9.63,5.78-16.34,12.92-21.19,23.19.99-.5,1.98-.99,3-1.5,8.24-3.08,19.93-2.89,28.05.47,8.36,4.41,13.57,10.32,16.76,19.32,2.67,10.48,1.81,21.33-3.38,30.83-5.81,9.05-14.51,13.92-24.8,16.46-11.41,1.81-23.17.86-33.24-5.12-9.17-6.69-13.99-14.65-15.99-25.72-1.83-16.69,1.76-34.77,11.83-48.41,10.34-12.85,23.91-24.95,40.76-18.32Zm-25,51q-1.14,1.05-2.31,2.12c-2.46,4.18-2.87,8.06-2.69,12.88,1.64,5.9,4.16,8.57,9,12,5.4,1.8,10.94,1.7,16.31-.12,4.13-2.88,7.07-6.01,8.69-10.88.37-5.62.22-9.18-3-14-4.41-4.35-7.57-6.17-13.75-6.31-5.28.05-8.26.62-12.25,4.31Z"/>
    <path class="cls-3" d="m859,436.84c5.86,5.3,8.56,11.08,9.44,18.88-.29,5.98-2.13,11.82-6.41,16.09q-5.23,4.03-8.02,4.03v2c.68.04,1.36.08,2.06.12,4.99,1.49,8.37,4.56,11.27,8.85,3.54,6.91,4.05,14.33,1.85,21.77-3.65,8.34-9.95,13.07-18.19,16.57-1.66.59-3.32,1.15-5,1.69-.66.23-1.32.45-2,.68-15.79,4.47-34.1.9-49-4.68v-22c1.65.66,3.3,1.32,5,2,2.62.88,5.24,1.73,7.88,2.56.68.22,1.36.44,2.07.67,10.25,3.23,21.97,4.74,32.21.74,2.92-1.54,4.32-3.05,5.85-5.97q.67-3.54,0-7c-2.25-2.97-4.58-4.6-8-6q-3-.37-6.3-.41c-1.21-.04-2.41-.08-3.65-.12-1.25-.03-2.51-.06-3.8-.09-1.27-.04-2.54-.08-3.85-.12-3.13-.09-6.27-.18-9.4-.26v-18c1.82-.04,3.64-.07,5.51-.11,2.39-.07,4.78-.13,7.18-.2q1.8-.03,3.63-.07c1.16-.04,2.31-.07,3.51-.11,1.06-.03,2.13-.05,3.22-.08,3.35-.49,5.25-1.42,7.95-3.43,1.9-3.57,2.22-5.21,1.12-9.12-3.37-4.56-7.14-6.19-12.6-7.45-11.61-1.61-22.53,1.83-32.52,7.57l-2,1c-1.2-2.4-1.11-3.89-1.1-6.57,0-.9,0-1.79,0-2.71,0-.94.02-1.87.03-2.84,0-.94,0-1.89.01-2.86.01-2.34.03-4.67.05-7.01,1.4-.65,2.81-1.29,4.22-1.93.78-.36,1.57-.71,2.37-1.08,16.93-6.97,40.8-6.45,55.41,5.01Z"/>
    <path class="cls-2" d="m327,455.84h22c3.83,7.51,7.54,15.03,10.94,22.75.31.69.61,1.38.93,2.09q2.13,4.91,2.13,7.16h2c.26-.87.53-1.74.8-2.64,1.19-3.33,2.63-6.09,4.42-9.13.62-1.05,1.24-2.11,1.88-3.2.65-1.09,1.29-2.17,1.96-3.29,1.28-2.17,2.57-4.34,3.85-6.52.57-.96,1.14-1.91,1.72-2.9.83-1.42,1.63-2.86,2.37-4.33,3.11-.47,5.9-.63,9,0,2.42,2.14,3.65,4.75,5.06,7.62.41.76.82,1.52,1.24,2.31.84,1.57,1.67,3.15,2.48,4.73,1.84,3.53,3.84,6.95,5.84,10.39,1.13,1.98,2.25,3.96,3.38,5.94,2-2.99,3.34-5.87,4.79-9.16.53-1.2,1.06-2.41,1.61-3.65.56-1.27,1.11-2.54,1.67-3.81,1.09-2.49,2.19-4.99,3.29-7.48.48-1.11.97-2.21,1.47-3.35q1.18-2.54,2.18-3.54c1.63-.09,3.27-.11,4.91-.1.99,0,1.98,0,3,0,1.04,0,2.08.02,3.15.03q1.57,0,3.17.01c2.59.01,5.18.03,7.77.05-.66,4.76-2.55,8.7-4.58,13-.36.78-.73,1.56-1.1,2.37-.78,1.68-1.56,3.35-2.35,5.03-2.06,4.39-4.1,8.78-6.14,13.17-.41.88-.82,1.76-1.24,2.67-3.81,8.2-7.53,16.44-11.22,24.7-.28.62-.56,1.25-.85,1.89-1.51,3.39-3.02,6.78-4.53,10.17-3.64-1.21-4.02-2.16-6-5.35-.57-.91-1.14-1.82-1.73-2.75-.6-.98-1.21-1.95-1.83-2.96-.62-.99-1.24-1.98-1.87-2.99-1.86-2.98-3.71-5.96-5.56-8.94-1.05-1.67-2.1-3.35-3.14-5.02-2.29-3.66-4.58-7.32-6.86-10.98-8.1,10.66-15.55,21.91-22.44,33.39-.44.73-.88,1.47-1.33,2.22-.38.65-.77,1.31-1.16,1.98-.35.46-.7.93-1.07,1.41h-2q-16.21-35.14-23.6-51.53c-.82-1.81-1.64-3.61-2.46-5.42-.49-1.1-.99-2.19-1.5-3.33-.43-.94-.85-1.89-1.29-2.86-1.29-3.21-2.2-6.55-3.15-9.87Z"/>
    <path class="cls-2" d="m653,422.84h21v38q4.95-2.47,10-5c10.11-2.53,21.87-2.36,31,3,6.3,3.87,10.22,9.8,12,17,1.01,8.86.57,17.85.38,26.75-.03,2.45-.06,4.9-.08,7.35-.07,5.97-.17,11.93-.29,17.9h-20c-.04-3.26-.07-6.53-.11-9.89-.05-3.16-.1-6.33-.15-9.49-.03-2.2-.06-4.39-.08-6.59-.03-3.16-.09-6.32-.14-9.48,0-.98-.01-1.96-.02-2.97-.13-6.1-.86-9.74-5.12-14.33-4.28-2.26-8.92-2.88-13.63-1.67-1.94.73-3.85,1.57-5.74,2.42q-1.49.49-3,1-1.14,2.3-2,5c-.34.69-.68,1.37-1.03,2.08-1.37,4.13-1.32,8.05-1.38,12.38-.02.9-.04,1.81-.06,2.74-.06,2.87-.11,5.75-.15,8.62-.04,1.95-.08,3.9-.12,5.86-.1,4.78-.18,9.55-.26,14.33h-21v-105Z"/>
    <path class="cls-2" d="m506.45,460.31c7.53,5.27,12.2,12.67,14.55,21.53.24,2.78.24,5.53.19,8.31q0,1.09,0,2.21-.04,5.34-1.19,6.48c-1.56.12-3.13.18-4.7.21-1,.02-2,.04-3.03.06-1.09.02-2.18.03-3.3.05-1.11.02-2.22.04-3.36.06-3.56.07-7.11.12-10.67.18-2.4.04-4.81.09-7.21.13-5.91.11-11.82.21-17.72.31,3.34,5.19,5.96,8.96,12.22,10.57,8.66,1.29,16.46-.89,23.78-5.57,1.51,1.93,3.01,3.87,4.5,5.81.43.55.86,1.09,1.3,1.66q3.2,4.19,3.2,7.53c-10.26,8.73-22.98,9.89-36,9-10.64-1.96-20.1-6.43-26.44-15.44-5.9-9.92-7.99-20.28-5.5-31.75,3.3-11.22,9.12-18.51,19.33-24.13,12.66-5.57,28.37-4.23,40.06,2.79Zm-35.89,18.59q-1.8,2.82-1.56,5.94h31c-1.04-6.23-1.39-7.23-6-11-8.43-4.92-17.62-2.25-23.44,5.06Z"/>
    <path class="cls-2" d="m161.56,462.59c.8.74,1.61,1.49,2.44,2.25.33-2.64.66-5.28,1-8h13c.07,9.48.12,18.95.16,28.43.02,4.4.04,8.8.07,13.2.03,4.25.05,8.51.06,12.76,0,1.62.02,3.23.03,4.85.11,11.38-.04,21.81-7.59,31.01-9.27,9.42-22.02,10.47-34.56,10.74q-14.09.04-18.16-1.99c.33-3.63.66-7.26,1-11,1.59.11,3.19.21,4.83.32q18.61,1.76,35.3-5.2c3.59-3.27,4.79-6.64,5.07-11.46-.02-1.15-.05-2.3-.07-3.48-.02-1.16-.04-2.32-.05-3.52-.02-.88-.05-1.76-.07-2.67-.55.4-1.09.8-1.65,1.21-9.2,6.46-17.04,8.86-28.35,7.79-8.87-1.56-16.58-5.67-22.31-12.69-7.31-10.83-8.44-22.86-6.1-35.5,2.72-8.84,8.94-16,16.79-20.82,12.8-6.27,28.07-5.39,39.19,3.75Zm-37.87,11.18c-4.87,5.96-6.39,12.74-6.08,20.33,1.02,7.25,3.68,13.04,9.39,17.74.64.56,1.28,1.11,1.94,1.69,5.31,3.38,10.91,4.13,17.06,3.31,7.34-2.21,12.29-5.96,16.25-12.56,3.42-6.72,3.81-13.78,2.14-21.13-2.48-7.15-6.84-11.71-13.38-15.44-9.67-4.16-19.98-1.02-27.31,6.06Z"/>
    <path class="cls-4" d="m629,247.84c-.82.24-1.63.49-2.47.74-35.37,11.16-70.1,29.86-97.35,55.23-2.69,2.5-5.48,4.86-8.29,7.22q-2.1,1.85-3.78,4.88c-3.34,4.05-7.73,4.01-12.69,4.56-1.25.12-2.5.23-3.79.36-26.35,3.05-54.04,10.4-76.56,25.06-1.01.64-2.02,1.28-3.06,1.94l-2-1c9.4-7.45,19.12-14.27,29.12-20.88,1.47-.98,2.95-1.95,4.42-2.93,4.14-2.74,8.3-5.47,12.45-8.2q1.49-.97,3-1.97c12.67-8.26,25.73-15.78,39-23.03.98-.54,1.96-1.08,2.98-1.63,31.79-17.28,64.62-30.64,100.02-38.37.82-.18,1.64-.37,2.49-.56q12.58-2.82,16.51-1.44Z"/>
    <path class="cls-2" d="m747,436.84h21v19h19v17h-19c.12,4.48.24,8.97.37,13.45.04,1.52.08,3.05.12,4.57.06,2.19.12,4.39.19,6.58.02.68.03,1.36.05,2.06.1,3.24.3,6.23,1.27,9.33,6.68,2.48,12.91,2.15,20,2q.49,8.42,1,17-23.54,3.36-33-2-2.81-2.31-5-5c-.72-.87-1.44-1.73-2.19-2.62-4.97-9.26-4.06-20.33-3.94-30.56.01-1.44.02-2.89.03-4.33.02-3.49.06-6.99.1-10.48h-12v-17h12v-19Z"/>
    <path class="cls-2" d="m196,422.84h12c.33,14.19.66,28.38,1,43q2.48-2.47,5-5c7.81-5.35,17.09-6.67,26.33-5.54,7.3,1.46,13.78,4.88,18.67,10.54,4.62,7.66,5.7,14.42,5.49,23.23,0,1.12-.01,2.23-.02,3.38-.03,3.53-.09,7.05-.15,10.57-.03,2.41-.05,4.81-.07,7.22-.05,5.86-.14,11.73-.24,17.59h-12q-.01-1.97-.03-3.97c-.04-4.9-.11-9.8-.18-14.7-.03-2.11-.05-4.23-.06-6.34-.02-3.05-.07-6.11-.12-9.16,0-.93,0-1.87,0-2.83-.14-6.51-1.31-12.3-4.61-17.99-4.58-4.25-9.76-6.22-16-6-6.17.78-12.43,2.88-16.48,7.79-4.79,7.24-5.82,14.14-5.94,22.64-.02.88-.04,1.76-.06,2.66-.06,2.78-.11,5.56-.15,8.34-.04,1.9-.08,3.79-.12,5.69-.1,4.63-.18,9.25-.26,13.88h-12v-105Z"/>
    <path class="cls-2" d="m0,429.84h13v85h55v13H0v-98Z"/>
    <path class="cls-2" d="m287,436.84h13v20h21v11h-21c.07,5.73.16,11.46.26,17.19.03,1.95.06,3.9.08,5.84.03,2.81.09,5.61.14,8.42,0,.87.01,1.73.02,2.62.12,5.04.73,8.56,3.49,12.93,3.51,2.87,7.94,2.22,12.25,2.12.75,0,1.49-.02,2.26-.03,1.83-.02,3.66-.06,5.49-.1v11c-8.74,2.19-20.05,2.56-28-2-6.34-5.79-8.23-11.58-9-20-.12-3.03-.12-6.06-.1-9.09,0-.83,0-1.66,0-2.52,0-2.63.02-5.26.03-7.88,0-1.79,0-3.59.01-5.38.01-4.37.03-8.74.05-13.12h-12v-11h12v-20Z"/>
    <path class="cls-2" d="m532,455.84h20v72h-20v-72Z"/>
    <path class="cls-2" d="m79,456.84h12v71h-12v-71Z"/>
    <path class="cls-5" d="m669,126.84c4.03,1.01,4.82,1.45,7.58,4.23.68.68,1.36,1.36,2.06,2.06.72.74,1.45,1.48,2.19,2.24.75.75,1.5,1.51,2.27,2.28,2.39,2.41,4.77,4.83,7.15,7.24,1.62,1.63,3.24,3.27,4.86,4.9,3.97,4,7.93,8.02,11.89,12.04-1.55,3.33-3.31,5.49-6,8-3.09-1.38-5.2-2.95-7.58-5.35-.68-.68-1.36-1.36-2.06-2.06-.72-.73-1.45-1.47-2.19-2.22-.75-.75-1.5-1.5-2.27-2.28-2.39-2.4-4.77-4.81-7.15-7.21-1.62-1.63-3.24-3.26-4.86-4.89-3.97-3.99-7.93-7.99-11.89-11.99,1.98-2.31,3.96-4.62,6-7Z"/>
    <path class="cls-2" d="m547,421.84c3.25,1.62,5.23,3.95,7.38,6.88,1.26,4.27,1.23,7.85-.69,11.88-2.44,3.26-3.77,4.94-7.69,6.25-4.69.55-8.1.45-12.38-1.69-3.18-2.81-5.27-4.92-5.91-9.23-.2-4.49.33-7.51,3.28-11.08,4.48-4.06,10.29-3.9,16-3Z"/>
    <path class="cls-4" d="m378.09,127.01c2.55,1.11,4.06,2.78,5.91,4.83-1.38,3.09-2.95,5.2-5.35,7.58-.68.68-1.36,1.36-2.06,2.06-.73.72-1.47,1.45-2.22,2.19-.75.75-1.5,1.5-2.28,2.27-2.4,2.39-4.81,4.77-7.21,7.15-1.63,1.62-3.26,3.24-4.89,4.86-3.99,3.97-7.99,7.93-11.99,11.89-3.74-1.68-5.56-3.69-8-7,5.04-5.16,10.09-10.31,15.16-15.44,1.72-1.75,3.44-3.5,5.16-5.26,2.46-2.52,4.94-5.03,7.42-7.53q1.15-1.19,2.32-2.4c.72-.72,1.44-1.44,2.18-2.18.63-.64,1.26-1.28,1.91-1.94q1.85-1.25,3.94-1.07Z"/>
    <path class="cls-2" d="m89,425.84q2.38,1.56,4,4c.63,3.5.69,6.74-1.06,9.94-3.01,1.65-5.52,1.94-8.94,2.06-3.57-1.59-4.81-2.72-7-6q.33-6.08,2.38-8.88c3.68-2.55,6.46-2.23,10.62-1.12Z"/>
  </g>
</svg>