<?xml version="1.0" encoding="UTF-8"?>
<svg id="Layer_2" data-name="Layer 2" xmlns="http://www.w3.org/2000/svg" viewBox="0 0 671.73 632.74">
  <defs>
    <style>
      .cls-1, .cls-2, .cls-3, .cls-4, .cls-5, .cls-6, .cls-7, .cls-8, .cls-9, .cls-10, .cls-11, .cls-12, .cls-13, .cls-14, .cls-15, .cls-16, .cls-17, .cls-18, .cls-19, .cls-20, .cls-21, .cls-22, .cls-23 {
        stroke-width: 0px;
      }

      .cls-1, .cls-13, .cls-15 {
        fill: #27debf;
      }

      .cls-1, .cls-23 {
        opacity: .1;
      }

      .cls-2, .cls-3 {
        opacity: .4;
      }

      .cls-2, .cls-8, .cls-21 {
        fill: #fff;
      }

      .cls-24 {
        opacity: .6;
      }

      .cls-4 {
        opacity: .05;
      }

      .cls-5 {
        opacity: .3;
      }

      .cls-6 {
        fill: #37474f;
      }

      .cls-7 {
        fill: #e0e0e0;
      }

      .cls-8 {
        opacity: .5;
      }

      .cls-9 {
        fill: #b16668;
      }

      .cls-10 {
        fill: #f5f5f5;
      }

      .cls-11 {
        fill: #8cd935;
      }

      .cls-12, .cls-13 {
        opacity: .2;
      }

      .cls-25, .cls-19 {
        opacity: .8;
      }

      .cls-14 {
        fill: #ffa8a7;
      }

      .cls-16 {
        fill: #9a4a4d;
      }

      .cls-26 {
        stroke: #37474f;
      }

      .cls-26, .cls-27 {
        fill: none;
        stroke-linecap: round;
        stroke-linejoin: round;
        stroke-width: .94px;
      }

      .cls-17, .cls-19 {
        fill: #fafafa;
      }

      .cls-18 {
        fill: #f28f8f;
      }

      .cls-20 {
        fill: #263238;
      }

      .cls-27 {
        stroke: #ebebeb;
      }

      .cls-21 {
        opacity: .7;
      }

      .cls-22 {
        fill: #455a64;
      }
    </style>
  </defs>
  <g id="Floor">
    <ellipse id="Floor-2" data-name="Floor" class="cls-10" cx="335.87" cy="442.1" rx="335.87" ry="190.64"/>
  </g>
  <g id="Shadows">
    <ellipse id="Shadow" class="cls-7" cx="550.8" cy="473.2" rx="87.6" ry="50.58"/>
    <polygon id="Shadow-2" data-name="Shadow" class="cls-7" points="22.84 414.57 357.01 607.5 512.65 517.64 178.48 324.71 22.84 414.57"/>
    <path id="Shadow-3" data-name="Shadow" class="cls-7" d="m411.77,379.34l-5.1-2.94c-3.46-2-3.46-5.23,0-7.23l11.35-6.56-41.1-23.73-11.35,6.56c-3.46,2-9.06,2-12.52,0l-5.1-2.94c-3.46-2-3.46-5.23,0-7.23l34.45-19.89c3.46-2,9.06-2,12.52,0l5.1,2.94c3.46,2,3.46,5.23,0,7.23l-12.54,7.24,41.1,23.73,12.54-7.24c3.46-2,9.06-2,12.52,0l5.1,2.94c3.46,2,3.46,5.23,0,7.23l-34.45,19.89c-3.46,2-9.06,2-12.52,0Z"/>
    <path id="Shadow-4" data-name="Shadow" class="cls-7" d="m278.96,321.65c9.12,5.26,9.12,13.8,0,19.06-9.12,5.26-23.9,5.26-33.01,0-9.12-5.26-9.12-13.8,0-19.06,9.12-5.26,23.9-5.26,33.01,0Z"/>
  </g>
  <g id="Mat">
    <polygon class="cls-11" points="22.84 406.17 357.01 599.11 512.65 509.25 178.48 316.31 22.84 406.17"/>
    <polygon class="cls-21" points="22.84 406.17 357.01 599.11 512.65 509.25 178.48 316.31 22.84 406.17"/>
    <path class="cls-1" d="m373.73,528.56c7.32,4.07,12.74,10.96,20.93,13.28,8.28,2.34,17.36,1.9,25.33-1.38,3.48-1.43,6.92-3.56,8.61-6.92,1.68-3.37.9-8.16-2.45-9.87-.85-.43-1.82-.66-2.57-1.24-.76-.58-1.22-1.74-.64-2.5.72-.95,2.2-.48,3.29.01,9.88,4.5,22,3.66,31.18-2.14,2.66-1.68,5.23-4.02,5.73-7.12.46-2.87-1.03-5.77-3.16-7.73-4.33-3.98-10.49-5.07-15.96-6.58-6.17-1.7-12.35-3.4-18.52-5.1-9.78-2.69-19.14-8.07-28.44-12.25-13.96-6.28-28.26-12.8-38.96-23.75-7.23-7.4-12.81-16.81-21.89-21.78-12.31-6.75-27.61-4.3-40.88-7.76-13.97-3.65-27.78-7.45-41.44-12.51-28.55-10.58-56.02-24.09-81.83-40.26,6.91-13.59,11.73-28.23,14.25-43.27-9.08-3.18-17.87,4.67-26.82,8.19-7.01,2.75-14.02,2.64-21.03,1.56l-29.74,17.17c1.23,4.37,3.21,8.61,4.57,12.97,2.07,6.63,2.29,14.84-2.88,19.47-2.98,2.67-7.1,3.54-11.02,4.31-5.47,1.08-10.93,2.16-16.4,3.24-4.68.92-10.06,2.4-11.88,6.81-2.23,5.39,2.51,11.13,7.48,14.17,9.26,5.68,20.29,7.51,30.49,11.23,23.92,8.73,42.64,27.56,64.92,39.88,15.43,8.54,32.6,13.91,50.14,15.69,18.17,1.85,36.7-.11,54.62,3.38,14.08,2.74,28.42,6.59,42.23,10.75,5.77,1.74,11.45,3.84,16.8,6.63,4.82,2.52,9.24,4.21,12.76,8.66,2.54,3.21,4.81,6.82,8.28,9,3.46,2.18,7.69,2.66,11.51,4.13,1.19.46,2.32,1,3.42,1.62Z"/>
    <path class="cls-4" d="m373.73,528.56c7.32,4.07,12.74,10.96,20.93,13.28,8.28,2.34,17.36,1.9,25.33-1.38,3.48-1.43,6.92-3.56,8.61-6.92,1.68-3.37.9-8.16-2.45-9.87-.85-.43-1.82-.66-2.57-1.24-.76-.58-1.22-1.74-.64-2.5.72-.95,2.2-.48,3.29.01,9.88,4.5,22,3.66,31.18-2.14,2.66-1.68,5.23-4.02,5.73-7.12.46-2.87-1.03-5.77-3.16-7.73-4.33-3.98-10.49-5.07-15.96-6.58-6.17-1.7-12.35-3.4-18.52-5.1-9.78-2.69-19.14-8.07-28.44-12.25-13.96-6.28-28.26-12.8-38.96-23.75-7.23-7.4-12.81-16.81-21.89-21.78-12.31-6.75-27.61-4.3-40.88-7.76-13.97-3.65-27.78-7.45-41.44-12.51-28.55-10.58-56.02-24.09-81.83-40.26,6.91-13.59,11.73-28.23,14.25-43.27-9.08-3.18-17.87,4.67-26.82,8.19-7.01,2.75-14.02,2.64-21.03,1.56l-29.74,17.17c1.23,4.37,3.21,8.61,4.57,12.97,2.07,6.63,2.29,14.84-2.88,19.47-2.98,2.67-7.1,3.54-11.02,4.31-5.47,1.08-10.93,2.16-16.4,3.24-4.68.92-10.06,2.4-11.88,6.81-2.23,5.39,2.51,11.13,7.48,14.17,9.26,5.68,20.29,7.51,30.49,11.23,23.92,8.73,42.64,27.56,64.92,39.88,15.43,8.54,32.6,13.91,50.14,15.69,18.17,1.85,36.7-.11,54.62,3.38,14.08,2.74,28.42,6.59,42.23,10.75,5.77,1.74,11.45,3.84,16.8,6.63,4.82,2.52,9.24,4.21,12.76,8.66,2.54,3.21,4.81,6.82,8.28,9,3.46,2.18,7.69,2.66,11.51,4.13,1.19.46,2.32,1,3.42,1.62Z"/>
    <polygon class="cls-11" points="22.84 406.17 22.84 409.2 357.01 602.14 357.01 599.11 22.84 406.17"/>
    <polygon class="cls-8" points="22.84 406.17 22.84 409.2 357.01 602.14 357.01 599.11 22.84 406.17"/>
    <polygon class="cls-11" points="357.01 599.11 512.65 509.25 512.65 512.28 357.01 602.14 357.01 599.11"/>
    <polygon class="cls-2" points="357.01 599.11 512.65 509.25 512.65 512.28 357.01 602.14 357.01 599.11"/>
  </g>
  <g id="Water_Bottle" data-name="Water Bottle">
    <path class="cls-11" d="m278.88,302.38c-.52-2.35-1.73-4.86-2.73-7.05-.12-.26-.24-.51-.37-.77-2.18-4.31-2.17-9.41.2-13.62.08-.14.16-.29.24-.43,1.47-2.68,2.11-4.97,2.11-8.02,0-2.32-1.51-5.8-4.58-7.58-.66-.39-1.38-.74-2.12-1.03-1.38-.56-2.31-1.87-2.3-3.36l.02-4.15-13.29-.05-.02,4.15c0,1.49-.95,2.8-2.33,3.35-.75.29-1.46.63-2.13,1.02-3.08,1.76-4.63,5.22-4.64,7.54-.02,3.05.6,5.35,2.05,8.03.07.14.15.27.22.41,2.34,4.24,2.33,9.35.11,13.65-.13.26-.26.51-.38.77-1.02,2.19-2.25,4.68-2.79,7.03-.52,2.27-.64,4.72-.65,7.15l-.08,19.34c0,2.51,1.64,5.02,4.94,6.95,2.7,1.57,6.09,2.51,9.6,2.8,1.59.14,3.21.14,4.8.02,3.5-.28,6.87-1.19,9.56-2.73,3.32-1.9,4.98-4.39,4.99-6.9l.05-13.98c0-1.74.08-3.56.08-5.39,0-2.43-.09-4.86-.59-7.13Z"/>
    <path class="cls-5" d="m278.88,302.38c-.52-2.35-1.73-4.86-2.73-7.05-.12-.26-.24-.51-.37-.77-2.18-4.31-2.17-9.41.2-13.62.08-.14.16-.29.24-.43,1.47-2.68,2.11-4.97,2.11-8.02,0-2.32-1.51-5.8-4.58-7.58-.66-.39-1.38-.74-2.12-1.03-1.38-.56-2.31-1.87-2.3-3.36l.02-4.15-13.29-.05-.02,4.15c0,1.49-.95,2.8-2.33,3.35-.75.29-1.46.63-2.13,1.02-3.08,1.76-4.63,5.22-4.64,7.54-.02,3.05.6,5.35,2.05,8.03.07.14.15.27.22.41,2.34,4.24,2.33,9.35.11,13.65-.13.26-.26.51-.38.77-1.02,2.19-2.25,4.68-2.79,7.03-.52,2.27-.64,4.72-.65,7.15l-.08,19.34c0,2.51,1.64,5.02,4.94,6.95,2.7,1.57,6.09,2.51,9.6,2.8,1.59.14,3.21.14,4.8.02,3.5-.28,6.87-1.19,9.56-2.73,3.32-1.9,4.98-4.39,4.99-6.9l.05-13.98c0-1.74.08-3.56.08-5.39,0-2.43-.09-4.86-.59-7.13Z"/>
    <path class="cls-23" d="m275.98,280.94c.08-.14.16-.29.24-.43,1.27-2.3,1.91-4.33,2.07-6.79-.31.96-.73,1.89-1.26,2.75-1.52,2.47-3.74,4.42-5.99,6.25-2.28,1.86-4.81,3.97-5.09,6.9-.27,2.83,1.72,5.4,3.99,7.12,2.27,1.71,4.93,2.92,6.97,4.9.89.86,1.63,1.86,2.32,2.89-.09-.72-.19-1.44-.34-2.14-.52-2.35-1.73-4.86-2.73-7.05-.12-.26-.24-.51-.37-.77-2.18-4.31-2.17-9.41.2-13.62Z"/>
    <path class="cls-11" d="m253.8,260.94v2.23c-.02,1.33.86,2.68,2.62,3.71,3.51,2.05,9.23,2.07,12.77.05.88-.5,1.55-1.09,1.99-1.72.44-.62.66-1.29.66-1.95v-2.27c0-.2,0-.4-.06-.61-.21-1.13-1.07-2.23-2.56-3.09-.04-.03-.09-.05-.13-.07-3.53-1.98-9.15-1.97-12.63.02-1.49.85-2.36,1.94-2.59,3.07-.05.21-.07.42-.07.63Z"/>
    <path class="cls-23" d="m253.8,260.94v2.23c-.02,1.33.86,2.68,2.62,3.71,3.51,2.05,9.23,2.07,12.77.05.88-.5,1.55-1.09,1.99-1.72.44-.62.66-1.29.66-1.95v-2.27c0-.2,0-.4-.06-.61-.21-1.13-1.07-2.23-2.56-3.09-.04-.03-.09-.05-.13-.07-3.53-1.98-9.15-1.97-12.63.02-1.49.85-2.36,1.94-2.59,3.07-.05.21-.07.42-.07.63Z"/>
    <path class="cls-12" d="m269.2,264.66c3.53-2.02,3.55-5.32.03-7.37-3.52-2.05-9.23-2.07-12.76-.05-3.53,2.02-3.55,5.32-.03,7.37,3.52,2.05,9.23,2.07,12.76.05Z"/>
    <path class="cls-11" d="m253.82,258.33v1.34c0,.21.01.42.06.63.21,1.12,1.08,2.22,2.56,3.09,1.57.92,3.59,1.42,5.64,1.52,2.55.13,5.17-.36,7.13-1.48.88-.5,1.54-1.08,1.99-1.71.31-.43.5-.88.59-1.34.05-.2.07-.41.07-.61v-1.39c.01-1.34-.86-2.68-2.62-3.7-.16-.09-.31-.18-.48-.26-3.54-1.79-8.91-1.73-12.29.21-1.77,1.02-2.66,2.36-2.66,3.7Z"/>
    <path class="cls-23" d="m253.82,258.33v1.34c0,.21.01.42.06.63.21,1.12,1.08,2.22,2.56,3.09,1.57.92,3.59,1.42,5.64,1.52,2.55.13,5.17-.36,7.13-1.48.88-.5,1.54-1.08,1.99-1.71.31-.43.5-.88.59-1.34.05-.2.07-.41.07-.61v-1.39c.01-1.34-.86-2.68-2.62-3.7-.16-.09-.31-.18-.48-.26-3.54-1.79-8.91-1.73-12.29.21-1.77,1.02-2.66,2.36-2.66,3.7Z"/>
    <path class="cls-11" d="m253.82,258.29c-.01,2.87,4.02,5.2,9,5.22,4.98.02,9.03-2.29,9.04-5.15.01-2.87-4.02-5.2-9-5.22-4.98-.02-9.03,2.29-9.04,5.15Z"/>
    <path class="cls-11" d="m259.73,252.96l-.02,4.67c0,.07,0,.15.02.22.07.39.37.77.89,1.07.55.32,1.24.49,1.95.53.88.05,1.79-.12,2.47-.51.3-.18.53-.37.69-.59.11-.15.17-.31.21-.46.02-.07.02-.14.03-.21l.02-4.69c0-.46-.3-.93-.91-1.28-.05-.03-.11-.06-.17-.09-1.23-.62-3.09-.6-4.26.07-.61.35-.92.82-.92,1.28Z"/>
    <path class="cls-23" d="m259.73,252.96l-.02,4.67c0,.07,0,.15.02.22.07.39.37.77.89,1.07.55.32,1.24.49,1.95.53.88.05,1.79-.12,2.47-.51.3-.18.53-.37.69-.59.11-.15.17-.31.21-.46.02-.07.02-.14.03-.21l.02-4.69c0-.46-.3-.93-.91-1.28-.05-.03-.11-.06-.17-.09-1.23-.62-3.09-.6-4.26.07-.61.35-.92.82-.92,1.28Z"/>
    <path class="cls-11" d="m259.73,252.95c0,.99,1.39,1.8,3.12,1.81,1.73,0,3.13-.79,3.13-1.79,0-.99-1.39-1.8-3.12-1.81-1.73,0-3.13.79-3.13,1.79Z"/>
    <path class="cls-11" d="m261.75,252.96c0,.35.49.64,1.11.64.61,0,1.11-.28,1.11-.63,0-.35-.49-.64-1.11-.64s-1.11.28-1.11.63Z"/>
    <path class="cls-5" d="m261.75,252.96c0,.35.49.64,1.11.64.61,0,1.11-.28,1.11-.63,0-.35-.49-.64-1.11-.64s-1.11.28-1.11.63Z"/>
  </g>
  <g id="Dumbbell">
    <g>
      <path class="cls-22" d="m390.82,296.64h0c-2.71-8.85-13.77-16.18-24.12-13.28h0c-1.49.41-3.05,1.06-4.66,1.99-10.03,5.79-18.17,19.88-18.17,31.47,0,2.17.28,4.09.81,5.75h0c2.71,8.85,13.77,16.14,24.12,13.24h0c1.48-.41,3.04-1.06,4.65-1.99,10.03-5.79,18.17-19.88,18.17-31.47,0-2.15-.28-4.06-.8-5.71Z"/>
      <path class="cls-6" d="m373.45,333.82c10.03-5.79,18.17-19.88,18.17-31.47,0-11.59-8.13-16.29-18.17-10.5-10.03,5.79-18.17,19.88-18.17,31.47,0,11.59,8.13,16.29,18.17,10.5Z"/>
      <path class="cls-22" d="m373.45,304.7c3.86-2.23,6.99-.42,6.99,4.03s-3.13,9.87-6.99,12.1c-3.86,2.23-6.99.42-6.99-4.03,0-4.46,3.13-9.87,6.99-12.1Z"/>
      <path class="cls-6" d="m375.85,311.39c0,1.52-1.06,3.38-2.39,4.15-.62.36-1.18.41-1.61.21-.06-.03-.12-.06-.17-.1-.39-.28-.62-.79-.62-1.5,0-1.52,1.07-3.38,2.4-4.15.62-.36,1.18-.41,1.6-.21l.17.1c.39.27.62.78.62,1.5Z"/>
    </g>
    <path class="cls-11" d="m414.23,333.55c0,1.52-1.06,3.38-2.39,4.14-.39.23-.73.32-1.04.32-.28,0-.54-.08-.8-.23l-38.15-22.03c-.06-.03-.12-.06-.17-.1-.39-.28-.62-.79-.62-1.5,0-1.52,1.07-3.38,2.4-4.15.62-.36,1.18-.41,1.6-.21l.17.1,38.15,22.02c.54.31.84.78.84,1.63Z"/>
    <g>
      <path class="cls-22" d="m451.68,331.76h0c-2.71-8.85-13.77-16.18-24.12-13.28h0c-1.49.41-3.05,1.06-4.66,1.99-10.03,5.79-18.17,19.88-18.17,31.47,0,2.17.28,4.09.81,5.75h0c2.71,8.85,13.77,16.14,24.12,13.24h0c1.48-.41,3.04-1.06,4.65-1.99,10.03-5.79,18.17-19.88,18.17-31.47,0-2.15-.28-4.06-.8-5.71Z"/>
      <path class="cls-6" d="m434.31,368.94c10.03-5.79,18.17-19.88,18.17-31.47,0-11.59-8.13-16.29-18.17-10.5-10.03,5.79-18.17,19.88-18.17,31.47,0,11.59,8.13,16.29,18.17,10.5Z"/>
      <path class="cls-22" d="m434.31,339.83c3.86-2.23,6.99-.42,6.99,4.03s-3.13,9.87-6.99,12.1c-3.86,2.23-6.99.42-6.99-4.03,0-4.46,3.13-9.87,6.99-12.1Z"/>
      <path class="cls-6" d="m436.7,346.51c0,1.52-1.06,3.38-2.39,4.15-.62.36-1.18.41-1.61.21-.06-.03-.12-.06-.17-.1-.39-.28-.62-.79-.62-1.5,0-1.52,1.07-3.38,2.4-4.15.62-.36,1.18-.41,1.6-.21l.17.1c.39.27.62.78.62,1.5Z"/>
    </g>
    <path class="cls-11" d="m442.48,349.86c0,1.52-1.06,3.38-2.39,4.14-.39.23-.73.32-1.04.32-.28,0-.54-.08-.8-.23l-5.55-3.21c-.06-.03-.12-.06-.17-.1-.39-.28-.62-.79-.62-1.5,0-1.52,1.07-3.38,2.4-4.15.62-.36,1.18-.41,1.6-.21l.17.1,5.55,3.2c.54.31.84.78.84,1.63Z"/>
    <path class="cls-12" d="m442.48,349.84c0,1.52-1.06,3.38-2.39,4.15-.62.36-1.18.41-1.61.21-.06-.03-.12-.06-.17-.1-.39-.28-.62-.79-.62-1.5,0-1.52,1.07-3.38,2.4-4.15.61-.36,1.18-.41,1.6-.21l.17.1c.39.27.62.78.62,1.5Z"/>
  </g>
  <g id="Character_2" data-name="Character 2">
    <path class="cls-14" d="m518.09,103.26c-6.8,11.07-19.51,37.39-23.4,42.95-6.24-7.24-18.8-23.12-21.59-26.32-3.54-4.07-14.6-10.62-14.6-10.62l-3.77,16.61s24.32,38.16,31.61,45.44c4.64,4.62,9.97,7.57,20.86-3.95,10.14-10.73,34.21-42.8,34.21-42.8l.71-38.12c-11.66-.79-15.24,2.51-24.04,16.82Z"/>
    <path class="cls-18" d="m494.69,146.21c2.6,2.89,5.63,7.06,6.46,9.56,0,0-.07-5.71-4.83-12.18l-1.63,2.62Z"/>
    <path class="cls-6" d="m453.38,90.88l-9.75-5.63s0,51.96,0,53.64-1.95,3.38-1.95,3.38l9.75,5.63s1.95-1.69,1.95-3.38v-53.64Z"/>
    <path class="cls-14" d="m443.64,106.9s-2.75.72-3.72,5.03c-.97,4.31-1.32,12.51,1.2,15.16,2.52,2.65,5.91,3.75,8.12,2.73,4.14-1.9,2.69-10.36-.7-12.24-5.42-3.01-4.85-6.47-4.85-6.47l-.05-4.2Z"/>
    <path class="cls-22" d="m465.23,90.78l-4.11,5.23.02,36.64,4.44,7.07-14.15,8.17c1.23-1.11,1.85-2.24,1.95-3.38v-46.9l11.85-6.84Z"/>
    <polygon class="cls-11" points="465.58 139.72 465.58 141.98 451.43 150.15 451.43 147.9 465.58 139.72"/>
    <polygon class="cls-11" points="451.43 150.15 441.69 144.52 441.69 142.27 451.43 147.9 451.43 150.15"/>
    <polygon class="cls-23" points="451.43 150.15 441.69 144.52 441.69 142.27 451.43 147.9 451.43 150.15"/>
    <path class="cls-11" d="m453.83,67.2h0c1.66-.99,3.96-.87,6.51.6l.09.05c5.04,2.91,9.12,9.98,9.12,15.8v.11c0,3.01-1.1,5.1-2.85,6h0s-7.38,4.34-7.38,4.34l-12.31-22.89,6.82-4.02Z"/>
    <path class="cls-19" d="m453.83,67.2h0c1.66-.99,3.96-.87,6.51.6l.09.05c5.04,2.91,9.12,9.98,9.12,15.8v.11c0,3.01-1.1,5.1-2.85,6h0s-7.38,4.34-7.38,4.34l-12.31-22.89,6.82-4.02Z"/>
    <path class="cls-13" d="m466.7,89.78h0s-7.38,4.34-7.38,4.34l-4.08-7.59,13.46-7.77c.54,1.66.85,3.33.85,4.91v.11c0,3.01-1.1,5.1-2.85,6Z"/>
    <path class="cls-11" d="m437.9,72.81h0c1.87-1.07,4.39-1.03,7.19.34.29.14.59.3.89.47.36.21.7.42,1.05.66.57.39,1.13.82,1.67,1.29.99.85,1.93,1.82,2.81,2.88,2.34,2.85,4.18,6.33,5.16,9.81.49,1.76.76,3.51.76,5.18,0,3.56-1.22,6.08-3.2,7.31l7.04-4.06h0c2.46-1.58,4.16-4.37,4.16-7.87,0-1.6-.24-3.27-.7-4.95-.96-3.56-2.83-7.13-5.22-10.04-.87-1.06-1.81-2.03-2.81-2.88-.54-.47-1.1-.9-1.67-1.29-.35-.24-.7-.46-1.05-.66-.3-.17-.6-.33-.9-.47-2.76-1.26-5.65-1.08-7.98.13h0s-.2.11-.2.11c-.08.05-.17.1-.25.15l-6.74,3.88Z"/>
    <path class="cls-23" d="m461.27,96.7h0c2.46-1.58,4.16-4.37,4.16-7.87,0-1.6-.24-3.27-.7-4.95l-8.05,4.38c.49,1.76.76,3.51.76,5.18,0,3.56-1.22,6.08-3.2,7.31l7.04-4.06Z"/>
    <path class="cls-15" d="m434.54,80.23c0,7.3,5.12,16.17,11.44,19.82,3.18,1.84,6.06,2,8.13.78.04-.02.08-.04.12-.07,1.98-1.23,3.2-3.76,3.2-7.31,0-7.3-5.12-16.17-11.44-19.82-3.15-1.82-6.01-2-8.08-.81-2.08,1.19-3.36,3.76-3.36,7.41Z"/>
    <path class="cls-12" d="m434.54,80.23c0,7.3,5.12,16.17,11.44,19.82,3.18,1.84,6.06,2,8.13.78.04-.02.08-.04.12-.07,1.98-1.23,3.2-3.76,3.2-7.31,0-7.3-5.12-16.17-11.44-19.82-3.15-1.82-6.01-2-8.08-.81-2.08,1.19-3.36,3.76-3.36,7.41Z"/>
    <path class="cls-11" d="m399.46,78.34s11.54,5.92,21.4,23c1.94,3.35,3.47,6.55,4.68,9.52,4.95,12.15,4.54,20.51,4.54,20.51,3.44-8.43,7.72-17.15,14.86-23.83,4.42-4.14,8.77-7.34,8.77-7.34h0c1.89-1.1,2.99-3.49,2.99-6.77,0-2.16-.47-4.46-1.29-6.72-.52-1.43-1.18-2.84-1.95-4.19-2.01-3.47-4.78-6.51-7.83-8.27-2.84-1.64-5.46-1.88-7.35-.79h0s-4.95,2.16-10.74,3.92c-9.35,2.84-19.05,2.18-28.07.95Z"/>
    <path class="cls-19" d="m399.46,78.34s11.54,5.92,21.4,23c1.94,3.35,3.47,6.55,4.68,9.52,4.95,12.15,4.54,20.51,4.54,20.51,3.44-8.43,7.72-17.15,14.86-23.83,4.42-4.14,8.77-7.34,8.77-7.34h0c1.89-1.1,2.99-3.49,2.99-6.77,0-2.16-.47-4.46-1.29-6.72-.52-1.43-1.18-2.84-1.95-4.19-2.01-3.47-4.78-6.51-7.83-8.27-2.84-1.64-5.46-1.88-7.35-.79h0s-4.95,2.16-10.74,3.92c-9.35,2.84-19.05,2.18-28.07.95Z"/>
    <path class="cls-13" d="m425.54,110.86c4.95,12.15,4.54,20.51,4.54,20.51,3.44-8.43,7.72-17.15,14.86-23.83,4.42-4.14,8.77-7.34,8.77-7.34h0c1.89-1.1,2.99-3.49,2.99-6.77,0-2.16-.47-4.46-1.29-6.72-8.75,4.38-22.9,12.46-29.86,24.15Z"/>
    <path class="cls-11" d="m377.71,94.81c0,7.61,2.34,15.94,6.24,23.63h0c5,9.86,12.54,18.65,20.99,23.53,15.04,8.68,27.23,1.64,27.23-15.72,0-3.97-.64-8.14-1.8-12.31-2.87-10.27-8.93-20.55-16.5-27.96-1.07-1.05-2.16-2.03-3.28-2.95-.47-.38-.94-.76-1.42-1.12h0c-.68-.51-1.36-1-2.05-1.46-.72-.48-1.44-.94-2.18-1.36-15.04-8.68-27.23-1.65-27.23,15.72Z"/>
    <path class="cls-23" d="m383.95,118.45c5,9.85,12.54,18.65,20.99,23.52,15.04,8.68,27.23,1.64,27.23-15.72,0-3.97-.64-8.14-1.8-12.31h0c-1.02,2.25-4.67,5.45-6.31,3.21,1.02,3.73,1.58,7.43,1.58,10.92,0,4.99-1.11,9.02-3.22,11.65-1.79,2.25-4.26,3.39-7.33,3.38-2.98,0-6.44-1.09-10.02-3.15-7.18-4.15-13.79-11.6-18.47-20.04,0,0-.94.79-2.65-1.46Z"/>
    <path class="cls-11" d="m379.57,95.78c0,7.67,2.69,16.33,7.03,24.13,4.68,8.44,11.29,15.89,18.47,20.04,3.58,2.06,7.04,3.16,10.02,3.15,3.07,0,5.53-1.14,7.33-3.38,2.1-2.63,3.22-6.66,3.22-11.65,0-3.49-.56-7.18-1.58-10.92-.38-1.41-.83-2.83-1.35-4.24-.89-2.46-1.97-4.91-3.21-7.29-.25-.49-.51-.97-.78-1.45-.44-.8-.89-1.6-1.37-2.38-1.61-2.67-3.42-5.22-5.37-7.55-.02-.02-.05-.05-.07-.08-1.3-1.55-2.66-3.01-4.06-4.36-1.01-.97-2.05-1.88-3.1-2.72-.44-.36-.89-.7-1.34-1.03-.54-.39-1.09-.77-1.64-1.14-.54-.35-1.08-.68-1.62-1-3.58-2.07-7.05-3.16-10.03-3.16-6.6,0-10.54,5.62-10.54,15.03Z"/>
    <path class="cls-5" d="m379.57,95.78c0,7.67,2.69,16.33,7.03,24.13,4.68,8.44,11.29,15.89,18.47,20.04,3.58,2.06,7.04,3.16,10.02,3.15,3.07,0,5.53-1.14,7.33-3.38,2.1-2.63,3.22-6.66,3.22-11.65,0-3.49-.56-7.18-1.58-10.92-.38-1.41-.83-2.83-1.35-4.24-.89-2.46-1.97-4.91-3.21-7.29-.25-.49-.51-.97-.78-1.45-.44-.8-.89-1.6-1.37-2.38-1.61-2.67-3.42-5.22-5.37-7.55-.02-.02-.05-.05-.07-.08-1.3-1.55-2.66-3.01-4.06-4.36-1.01-.97-2.05-1.88-3.1-2.72-.44-.36-.89-.7-1.34-1.03-.54-.39-1.09-.77-1.64-1.14-.54-.35-1.08-.68-1.62-1-3.58-2.07-7.05-3.16-10.03-3.16-6.6,0-10.54,5.62-10.54,15.03Z"/>
    <path class="cls-11" d="m402.71,100.05l9.55,17.84c2.68-1.01,7.23-2.62,10.93-3.57-.15-.47-.32-.94-.49-1.41-.89-2.46-1.97-4.91-3.21-7.29-.25-.49-.51-.97-.78-1.45-.44-.8-.89-1.6-1.37-2.38-1.61-2.67-3.42-5.22-5.37-7.55-.02-.02-.05-.05-.07-.08-.29-.34-.58-.68-.87-1.01-3.58,3.68-8.33,6.9-8.33,6.9Z"/>
    <g class="cls-24">
      <path class="cls-17" d="m402.71,100.05l9.55,17.84c2.68-1.01,7.23-2.62,10.93-3.57-.15-.47-.32-.94-.49-1.41-.89-2.46-1.97-4.91-3.21-7.29-.25-.49-.51-.97-.78-1.45-.44-.8-.89-1.6-1.37-2.38-1.61-2.67-3.42-5.22-5.37-7.55-.02-.02-.05-.05-.07-.08-.29-.34-.58-.68-.87-1.01-3.58,3.68-8.33,6.9-8.33,6.9Z"/>
    </g>
    <path class="cls-15" d="m411.47,117.84c2.16,0,3.45-1.74,3.45-4.67v-.09c0-4.59-3.24-10.2-7.21-12.49l-.08-.04c-1.06-.61-2.1-.94-3.01-.94-2.16,0-3.45,1.74-3.45,4.67v.09c0,4.59,3.24,10.2,7.21,12.49l.08.04c1.06.61,2.1.94,3.01.94h0Z"/>
    <g class="cls-25">
      <path class="cls-17" d="m411.47,117.84c2.16,0,3.45-1.74,3.45-4.67v-.09c0-4.59-3.24-10.2-7.21-12.49l-.08-.04c-1.06-.61-2.1-.94-3.01-.94-2.16,0-3.45,1.74-3.45,4.67v.09c0,4.59,3.24,10.2,7.21,12.49l.08.04c1.06.61,2.1.94,3.01.94h0Z"/>
    </g>
    <g>
      <path class="cls-7" d="m401.16,67.6c1.19,0,2.15-.96,2.15-2.15v-20.78c0-1.19-.96-2.15-2.15-2.15s-2.15.96-2.15,2.15v20.78c0,1.19.96,2.15,2.15,2.15Z"/>
      <path class="cls-7" d="m420.07,72.66c.74,0,1.46-.39,1.86-1.07l10.39-17.99c.59-1.03.24-2.34-.79-2.94-1.02-.59-2.34-.24-2.94.79l-10.39,17.99c-.59,1.03-.24,2.34.79,2.94.34.2.71.29,1.07.29Z"/>
      <path class="cls-7" d="m439.74,172.79c.37,0,.73-.09,1.07-.29,1.03-.59,1.38-1.91.79-2.94l-10.39-17.99c-.59-1.03-1.91-1.38-2.94-.79-1.03.59-1.38,1.91-.79,2.94l10.39,17.99c.4.69,1.12,1.07,1.86,1.07Z"/>
      <path class="cls-7" d="m401.16,175.57c1.19,0,2.15-.96,2.15-2.15v-20.78c0-1.19-.96-2.15-2.15-2.15s-2.15.96-2.15,2.15v20.78c0,1.19.96,2.15,2.15,2.15Z"/>
      <path class="cls-7" d="m371.87,156.15c.74,0,1.46-.39,1.86-1.07l10.39-17.99c.59-1.03.24-2.34-.79-2.94-1.02-.59-2.34-.24-2.94.79l-10.39,17.99c-.59,1.03-.24,2.34.79,2.94.34.19.71.29,1.07.29Z"/>
      <path class="cls-7" d="m350.43,134.7c.37,0,.73-.09,1.07-.29l17.99-10.39c1.03-.59,1.38-1.91.79-2.94-.59-1.03-1.91-1.38-2.94-.79l-17.99,10.39c-1.03.59-1.38,1.91-.79,2.94.4.69,1.12,1.07,1.86,1.07Z"/>
      <path class="cls-7" d="m342.58,105.41h20.78c1.19,0,2.15-.96,2.15-2.15s-.96-2.15-2.15-2.15h-20.78c-1.19,0-2.15.96-2.15,2.15s.96,2.15,2.15,2.15Z"/>
      <path class="cls-7" d="m368.42,86.5c.74,0,1.46-.39,1.86-1.07.59-1.03.24-2.34-.79-2.94l-17.99-10.39c-1.02-.59-2.34-.24-2.94.79-.59,1.03-.24,2.34.79,2.94l17.99,10.39c.34.2.71.29,1.07.29Z"/>
      <path class="cls-7" d="m382.26,72.66c.37,0,.73-.09,1.07-.29,1.03-.59,1.38-1.91.79-2.94l-10.39-17.99c-.59-1.03-1.91-1.38-2.94-.79-1.03.59-1.38,1.91-.79,2.94l10.39,17.99c.4.69,1.12,1.07,1.86,1.07Z"/>
    </g>
    <path class="cls-14" d="m473.1,119.89c-4.21-5.11-4.43-8.36-7.68-10.84-3.25-2.48-6.47-2.58-11.19-1.11-3.56,1.11-7.78.68-9.2,2.04-.4.28.29,2.58,1.99,3.37,2.05.95,5.31.64,7.72.6,5.49-.09,1.1,5.4,6.51,10.75,2.33,3.87,11.86-4.81,11.86-4.81Z"/>
    <g>
      <path class="cls-20" d="m573.5,78.32c2.05-6.29,9.41-13.97,14.74-20.99,6.05-7.95,11.5-24.16-.19-34.77,0,0,.8-18.45-17.98-21.89-16.66-3.05-31.15,5.37-48.75,2.97-8.62-1.17-12.56,8.68-3.22,18.11,0,0-6.46,6.75-2.79,14.63,3.68,7.88,14.97,6.62,14.97,6.62l43.22,35.32Z"/>
      <path class="cls-20" d="m583.68,20.74c.48-.72,1.11-1.35,1.81-1.85,1.73-1.23,3.87-1.76,5.98-2.02,7.62-.95,15.77,1.47,21.05,7.04,5.07,5.35,7.1,12.98,7.33,20.35.23,7.37-1.13,14.68-1.92,22.02-.55,5.09-.83,10.28-.11,15.37.61,4.34,2.07,9.64,4.99,13.04,1.9,2.21,4.95,4.01,4.87,7.21-.08,3.27-2.94,4.85-5.88,5.32-8.43,1.35-17.61-2.74-22.85-9.32-.28-.35-.54-.7-.8-1.07-4.56-6.42-4.74-13.7-4.71-21.25.04-8.17,2.29-16.1,3.69-24.1.71-4.03,1.39-8.11,1.51-12.21.08-2.61.1-5.83-1.5-8.05-1.81-2.5-4.59-3.7-7.65-3.38-1.31.14-2.44.67-3.76.25-1.66-.52-2.92-2.05-3.06-3.81-.1-1.26.3-2.49,1.01-3.54Z"/>
    </g>
    <path class="cls-14" d="m577.9,384.23l30.23-.55c-.45,20.18-3.66,42.58-4.18,61.51-.1,3.56.09,27.69-1.25,35.03-2.02,11.02-15.1,9.53-15.79,2.94-.69-6.59.84-34.76.8-37.67.11-12.14-5.58-32.64-8.56-54.43-.15-1.07-1.1-5.78-1.24-6.82Z"/>
    <path class="cls-20" d="m581.98,487.74c-.27,6.47.3,10.84,2.2,14.85s6.09,5.62,10.57,4.96c4.47-.67,10.36-3.06,12.17-8.49,1.81-5.43,1.94-9.26,1.55-15.33l-26.49,4.01Z"/>
    <path class="cls-22" d="m604.03,442.87c1.78.32,1.45,9.02,1.61,17.78.18,9.39,2.56,13.5,2.79,21.21.26,8.8-.59,12.64-4.16,17.59-3.57,4.95-14.87,9.02-19.42.96-3.71-6.57-3.21-13.39-1.94-22.03,1.31-8.93,2.3-15.2,2.62-22.04.3-6.54.49-12.89,2.12-13.46.02.97.02,2.19.05,3.14.03.73-.15,4.27.85,4.41.18-.82.24-1.6.27-2.45.03-.74.17-1.54.7-2.05.54-.52,1.34-.62,2.09-.69,1.8-.17,3.62-.31,5.43-.29.9,0,1.81.06,2.7.16.73.08,1.58.23,2.25.55.41.2.77.54.88.98.08.33.03.67,0,1-.06.6-.05,1.21.05,1.81.04.26.19.59.45.56.21-.03.32-.28.35-.5.11-1.05.06-1.82.13-3.05.03-.57.02-1.34.07-1.91.05-.56.1-1.11.12-1.67Z"/>
    <path class="cls-6" d="m608.27,479.34c.05,1.27.28,9.68-2.13,10.94-2.61,1.37-3.3-5.29-3.3-5.29,0,0-5.56-2.33-14.28.48.29,1.39-1.44,5.7-3.64,4.53-2.18-1.16-2.12-10.77-2.12-10.89-1.18,8.28-1.56,14.9,2.05,21.28,4.55,8.06,15.85,3.99,19.42-.96,3.57-4.95,4.42-8.78,4.16-17.59-.03-.88-.08-1.71-.16-2.51Z"/>
    <path class="cls-20" d="m602.13,485.49c-.28,3.14,2.93,2.4,3.51-2.03s-.79-15.19,0-22.82c-.17-8.76.17-17.45-1.61-17.78,0,.11-.02.21-.02.32l-.21,4.42c-.01.64-.02,1.22-.09,1.89-.6,6.41-.94,18.88-.98,24.79-.04,5.91-.32,8.05-.6,11.19Z"/>
    <path class="cls-20" d="m589.54,485.49c-.28-3.14-.57-5.28-.6-11.19-.04-5.87-.37-18.19-.97-24.64-.33-1.12-.25-3.11-.27-3.64-.03-.89-.03-2.01-.05-2.94,0-.07-.01-.13-.01-.2-1.18.43-1.6,3.9-1.86,8.27-.03,2.54.06,5.68.25,9.5.79,7.63-.6,18.46-.01,22.88.58,4.42,3.8,5.11,3.53,1.96Z"/>
    <path class="cls-14" d="m522.05,424.11c.22-6.25-3.96-64.29-3.96-64.29l28.6,18.12c-6.15,36.69-7.46,45.34-7.57,51.35h0c.05.14.17.65.16,1.54-.03,7.13-8.07,10.97-14.35,15.72-2.48,1.88-9.69,7.42-16.97,11.08-4.56,2.29-13.82,2.5-14.97-.43,7.64-5.83,18.74-14.56,24.82-21.22,2.9-3.18,4-5.63,4.23-11.87Z"/>
    <path class="cls-20" d="m479.99,464.87c-.39,0-.85,3.9,1.28,5.74,2.46,2.12,9.53,5.76,19.05,4.53,9.52-1.23,14.68-3.93,18.49-7.12,3.81-3.19,9.15-7.69,13.46-8.64,4-.88,8.35-2.7,9.63-3.93,1.28-1.24,1.1-6.74,1.1-6.74l-63,16.16Z"/>
    <path class="cls-22" d="m539.19,427.55s1.19.01,1.44,1.29c.29,1.52.61,5.92,1.24,8.41.87,3.46,1.46,10.54.94,13.36-.52,2.82-7.05,4.78-11.21,6.36-4.26,1.62-9.18,4.96-13.5,8.53-4.47,3.69-13.89,7.53-20.09,7.48-7.34-.05-15.61-2.43-17.5-5.83-2.34-4.21-.51-6.65,10.38-11.7,2.06-.96,9.3-5.24,11.77-6.79,6.68-4.2,13.29-10.05,16.36-17.49.36-.87.74-1.83,1.57-2.27.64-.34,1.4-.29,2.12-.19,1.81.25,3.59.79,5.24,1.58,1.46.7,3.53,1.51,3.5,3.38-.01.65-.2,1.29-.41,1.9-.13.38-.23.89.1,1.12.32.21.73-.03,1.02-.28,1.14-1.02,1.98-2.33,2.93-3.52.51-.64,1.07-1.25,1.72-1.76.59-.46,1.34-.69,1.86-1.21.66-.66.5-1.48.53-2.35Z"/>
    <path class="cls-6" d="m518.09,465.49c1.9-1.57,3.92-3.08,5.94-4.43h0s-12.8,7.77-17.98,4.24c-3.33-2.28-1.75-5.04-1.67-5.93.08-.88-8.14-4.67-11.38-5.05h0c-.9.5-1.66.9-2.13,1.12-10.89,5.05-12.72,7.49-10.38,11.7,1.89,3.4,7.88,6.06,17.37,6.06,6.21,0,15.75-4.02,20.22-7.71Z"/>
    <path class="cls-20" d="m505.28,456.8c-6.77,2.71-3.88,3.97-1.99,4.24,1.9.27,13.29-6.38,20.24-11.88,7.25-5.74,11.82-12.01,14.51-14.11,1-.79,2.08-1.75,3.05-2.65-.18-1.49-.32-2.85-.46-3.56-.25-1.27-1.44-1.29-1.44-1.29-.03.88.13,1.7-.53,2.35-.52.52-1.27.75-1.86,1.21-.65.5-1.21,1.12-1.72,1.76-.96,1.19-1.79,2.5-2.93,3.52-5.91,7.5-20.08,17.7-26.85,20.41Z"/>
    <g>
      <path class="cls-27" d="m503.78,459.38c-1.71-2.09-6.96-5.17-11.81-4.65"/>
      <path class="cls-27" d="m509.68,455.74c-1.71-2.09-6.96-5.17-11.81-4.65"/>
      <path class="cls-27" d="m515.59,452.3c-1.71-2.09-6.96-5.17-11.81-4.65"/>
      <path class="cls-27" d="m521.06,448.37c-1.71-2.09-6.96-5.17-11.81-4.65"/>
      <path class="cls-27" d="m526.42,444.44c-2.39-3.02-8.09-5.23-12.95-4.71"/>
    </g>
    <path class="cls-11" d="m584.16,169.9c4.09,8.72,15.57,23.05,19.26,32.85,7.54,20.07,3.94,34.59,1.76,60.99-2.33,28.28-4.58,50.64-4.58,50.64.43,5.03,7.41,14.83,8.32,37.05.84,20.77-1.43,47.16-1.43,47.16,0,0-15.68,8.69-27.28-.08,0,0-11.19-53.43-14.47-79.43-2.86-22.68-6.13-41-6.13-41l-8.87,42.19s.64,11.39,1.57,21.08c1.48,15.29-7.07,45.31-7.07,45.31,0,0-16.2,4.84-26.1-3.94,0,0-3.84-43.81-3.44-65.56.46-24.73,4.77-107.63,7.81-142.98l60.63-4.29Z"/>
    <path class="cls-5" d="m584.16,169.9c4.09,8.72,15.57,23.05,19.26,32.85,7.54,20.07,3.94,34.59,1.76,60.99-2.33,28.28-4.58,50.64-4.58,50.64.43,5.03,7.41,14.83,8.32,37.05.84,20.77-1.43,47.16-1.43,47.16,0,0-15.68,8.69-27.28-.08,0,0-11.19-53.43-14.47-79.43-2.86-22.68-6.13-41-6.13-41l-8.87,42.19s.64,11.39,1.57,21.08c1.48,15.29-7.07,45.31-7.07,45.31,0,0-16.2,4.84-26.1-3.94,0,0-3.84-43.81-3.44-65.56.46-24.73,4.77-107.63,7.81-142.98l60.63-4.29Z"/>
    <path class="cls-12" d="m559.62,278.09l-6.06-49.44s-11.82-1.54-21.87-13.31c0,0,2.01,11.31,16.51,16.92l7.99,44.05-5.44,44,8.87-42.22Z"/>
    <g>
      <path class="cls-27" d="m588.36,485.05s7.07-2.84,14.48-.05"/>
      <path class="cls-27" d="m587.54,478.08s7.87-2.84,16.11-.05"/>
      <path class="cls-27" d="m587.67,471.39s8.38-3.37,15.99.09"/>
      <path class="cls-27" d="m587.54,465.14s7.91-3.79,16.26.18"/>
      <path class="cls-27" d="m587.54,458.41s8.6-3.85,16.41,0"/>
    </g>
    <g>
      <path class="cls-14" d="m572.14,87.68h0c5.83.4,16.44,1.34,16.44,1.34,6.12,3.41,7.67,6.22,8.8,14.34.48,3.46-2.33,12.68-4.75,25.79l-5.47,24.6-3,16.15c-7.21,6.32-17.57,9.96-36.83,10.16-10.12.1-18.36-2.95-23.8-5.88-.27-11.53-1.94-23.01-2.17-29.73-9.09-7.47-12.14-19.78-7.18-27.8,11.52-18.65,22.72-30.39,30.14-29.79l27.82.82Z"/>
      <path class="cls-22" d="m520.41,144.57l1.97,12.32s9.08,5.82,30.28,4.96c29.48-1.19,34.7-8.97,34.7-8.97,2.26-8.5,4.23-17.72,5.98-27.42,0,0-11.65-2.61-12.54-15.71-.89-13.11,7.17-20.79,7.17-20.79l-14.46-.89s-27.23-1.84-31.37-1.62c-4.14.22-10.77,4.85-18.59,14.96-7.82,10.11-20.08,27.81-3.12,43.16Z"/>
      <path class="cls-14" d="m646.14,143.94c-11.75-14.27-24.87-29.04-33.29-39.2-13.1-15.79-15.68-15.34-24.88-15.79-4.81,3.65-4.98,14.67,1.42,34.86,9.5,7.99,33.72,32.69,33.72,32.69-1.08,2.56-11.3,21.25-17.91,29.17-1.17,1.4-4.9,1.56-6.71,1.82-4.85.72-9.2,2.13-13.38,3.88-3.27,1.37-5.44,1.13-5.47,2-.04,1.13.89,3.38,4,3.74,1.57.18,5.61-.8,8.46-1.26,0,0-1.09,1.23-5.48,3.69-1.84,1.03-9.73,4.91-12.88,6.41-4.08,1.94-3.06,9.34,8.45,11.8,5.87,1.25,13.54.57,25.4-9.22,3.46-2.86,8.62-8.81,12.69-13.58,10.74-12.57,17.23-20.67,23.02-28.66,9.63-13.29,6.73-17.67,2.85-22.38Z"/>
      <path class="cls-23" d="m536.56,142.75s10.67,8.28,22.85,3.96c12.18-4.32,13.95-14.96,13.95-14.96,0,0,1.29,13.92-14.07,18.67-14.82,4.58-22.73-7.67-22.73-7.67Z"/>
      <g>
        <path class="cls-14" d="m522.04,49.47c.46,20.2,7.02,25.19,10.3,26.63,3.29,1.43,9.63.56,15.78-.46v12.12s-12.83,10.96-12.3,16.52c.54,5.57,15.29,6.3,23.27.87,5.82-3.97,11.57-12.14,13.39-14.29.66-.78,1.02-1.76,1.02-2.79v-28.53s4.15,2.17,8.07-1.19c5.48-4.69,5.84-12.12,1.84-16.1-1.93-1.92-6.94-2.48-10.11,2.27-1.48,6.23-4.09,7.46-5.62,5.52-7.41-9.43-9.78-5.07-20.6-11.54-12.5-7.47-14.65-15.45-17.05-23.28-4.52,2.68-8.55,10.42-7.99,34.25Z"/>
        <path class="cls-20" d="m544.5,46.86c-.07,1.33.92,2.46,2.2,2.52,1.28.06,2.37-.97,2.44-2.3.07-1.33-.92-2.46-2.2-2.52-1.28-.06-2.37.97-2.44,2.3Z"/>
        <path class="cls-20" d="m525.64,46.86c-.07,1.33.92,2.46,2.2,2.52,1.28.06,2.37-.97,2.44-2.3.07-1.33-.92-2.46-2.2-2.52-1.28-.06-2.37.97-2.44,2.3Z"/>
        <polygon class="cls-18" points="538.37 42.25 537.92 59.25 528.98 56.47 538.37 42.25"/>
        <path class="cls-18" d="m548.13,75.63c6.5-.85,19.86-4.69,21.94-9.97,0,0-.69,3.32-4.69,6.74-3.99,3.42-17.26,7.28-17.26,7.28v-4.04Z"/>
        <path class="cls-20" d="m547.08,35.47l5.93,3.61c.97-1.71.43-3.9-1.21-4.89-1.64-1-3.75-.42-4.72,1.28Z"/>
        <path class="cls-9" d="m548.21,59.46l-7.91,4.07c1.22,2.2,3.97,3.07,6.16,1.95,2.18-1.12,2.97-3.82,1.75-6.02Z"/>
        <path class="cls-18" d="m544.43,65.28c0,.23.03.45.07.67.67-.01,1.34-.15,1.96-.47,1.71-.88,2.55-2.73,2.25-4.54-2.37.04-4.27,1.97-4.27,4.34Z"/>
        <path class="cls-20" d="m523.67,37.34l6.6-2.31c-.57-1.86-2.52-2.85-4.34-2.22-1.82.64-2.84,2.66-2.26,4.52Z"/>
      </g>
    </g>
  </g>
  <g id="Character_1" data-name="Character 1">
    <path class="cls-20" d="m93.66,420.09c-4.73,1.48-9.82,1.76-14.7.9-7.86-1.38-17.77-6.5-17.09-15.93.08-1.08.33-2.16.86-3.09,1.78-3.11,5.9-3.69,9.34-4.67,6.57-1.88,12.31-6.5,15.54-12.51,3.52-6.55,4.03-14.31,3.61-21.73-.13-2.37-.35-4.77.14-7.09.39-1.86,1.23-3.61,2.24-5.22,3.33-5.3,8.62-9.28,14.55-11.29,2.1-.72,4.5-1.17,6.47-.16,1.29.67,2.22,2.26,2.07,3.73-.18,1.7-2.02,2.78-3.07,3.97-2.58,2.95-4.55,6.62-4.63,10.61-.08,3.91,1.61,7.6,2.99,11.25,4.35,11.5,5.7,24.88.06,35.81-3.76,7.3-10.54,12.99-18.37,15.43Z"/>
    <g>
      <path class="cls-9" d="m207.37,368.27s9.61-69.15,7.71-94.06c-.97-12.77-7.55-16.83-16.99-16.1s-64.3,31.57-64.3,31.57l7.64,18.58,45.01-14.12s-4.58,26.53-5.63,31.57c-1.06,5.04-3.27,11.83-5.03,17.92-.86,2.99-2.06,6.88-2.06,8.76,0,4.44,33.65,15.88,33.65,15.88Z"/>
      <path class="cls-16" d="m186.44,294.14c6.26-1.24,12.52-4.92,14.49-7.87,0,0-.98,4.56-6.26,7.87-5.28,3.31-9.04,4.68-9.04,4.68l.81-4.68Z"/>
    </g>
    <path class="cls-9" d="m197.06,433.51c-16.15-6.48-35.86-12.51-46.85-18.86-10.99-6.35-11.6-7.99-23.91-15.18-12.31-7.2,3.22-34.78,3.22-34.78,0,0,23-7.96,33.86-12.25,6.88-1.59,14.86-4.32,22.8-3.92,7.94.4,23.2.19,28.91,5.45,5.71,5.25,5.5,16.1,5.5,16.1l18.45,18.54-41.97,44.9Z"/>
    <path class="cls-11" d="m225.5,375l-4.91-4.94s-.65-.76-.94-2.55c-3.18-.95-10.32-1.58-27.4,8.49-22.46,13.25-28.23,45.04-28.23,45.04h0c2.74,1.11,7.16,2.81,10.12,3.92,2.47-14.77,12.27-29.81,25.05-38.86,12.79-9.05,26.31-11.1,26.31-11.1Z"/>
    <path class="cls-3" d="m225.5,375l-4.91-4.94s-.65-.76-.94-2.55c-3.18-.95-10.32-1.58-27.4,8.49-22.46,13.25-28.23,45.04-28.23,45.04h0c2.74,1.11,7.16,2.81,10.12,3.92,2.47-14.77,12.27-29.81,25.05-38.86,12.79-9.05,26.31-11.1,26.31-11.1Z"/>
    <path class="cls-11" d="m142.63,384.12c3.47,11.88,1.92,18.64-.24,26h0c2.06,1.2,4.45,2.59,7.82,4.53,3.05,1.76,12.53,6.41,17.92,8.03,0-10.18,9.55-27.62,19.4-36.31,13.44-11.86,33.06-16.3,33.06-16.3,0,0,.21-10.85-5.5-16.1-5.71-5.25-18.74-5.85-26.2-5.86-7.46-.02-14.57.79-14.57.79-7.24,1.83-12.22,4.05-12.22,4.05.03,0,16.41,1.82,7.07,6.57-12.81,6.5-31.13,2.21-31.13,2.21-2.83.52-5.67,1.51-8.52,2.97,0,0,8.82,4.74,13.12,19.43Z"/>
    <path class="cls-5" d="m142.63,384.12c3.47,11.88,1.92,18.64-.24,26h0c2.06,1.2,4.45,2.59,7.82,4.53,3.05,1.76,12.53,6.41,17.92,8.03,0-10.18,9.55-27.62,19.4-36.31,13.44-11.86,33.06-16.3,33.06-16.3,0,0,.21-10.85-5.5-16.1-5.71-5.25-18.74-5.85-26.2-5.86-7.46-.02-14.57.79-14.57.79-7.24,1.83-12.22,4.05-12.22,4.05.03,0,16.41,1.82,7.07,6.57-12.81,6.5-31.13,2.21-31.13,2.21-2.83.52-5.67,1.51-8.52,2.97,0,0,8.82,4.74,13.12,19.43Z"/>
    <path class="cls-9" d="m449.54,491.29c-16.06-9.27-23.1-12.37-35.2-28.92-9.02-22.32-17.33-59.19-23.79-69.71-4.97-8.09-6.34-12.57-21.97-12.41-31.72.32-110.18,22.54-110.18,22.54l-30.48,13.07-5.3,9.51c5.53,5.88,15.55-1.66,25.69,3.63,10.13,5.29,12.95,15.9,27.74,14.64,29.6-2.5,47.17-10.2,62.51-15.71,12.79-4.6,28.66-9.43,28.66-9.43,1.37,8.24,3.42,14.53,9.66,23.95,8.27,12.49,10.24,14.72,16.37,25.06,0,0,.35,1.39,1.59,2.92,1.56,2.94,1.34,8,1.6,11.52.93,12.9,6.21,3.96,24.51,19.74,4.28,3.69,8.29,6.77,14.02,8.04,5.08,1.13,11.54.06,16.58-1.15,4.66-1.11,6.07-3,8.98-7.18,2.57-3.7-6.75-7.67-10.98-10.11Z"/>
    <path class="cls-22" d="m193.14,431.97s1.61-21.11,18.38-33.56c15.06-11.17,22.59-13.31,26.41-12.05,3.82,1.27,17.83,3.03,27.36,2.34,7.16-.52,65-10.27,102.81-9.94,14.94.13,20.19,3.95,24.91,17.03,4.81,13.32,12.41,40.32,12.41,40.32,0,0-6.39,12.1-24.8,11.93,0,0-5.45-5.48-9.79-14.3-3.53-7.17-4.2-14.21-4.2-14.21,0,0-55.9,31.03-86.36,35.07-30.46,4.04-87.13-22.64-87.13-22.64Z"/>
    <path class="cls-6" d="m369.2,404.48s-3.79,4.15-5.79,11.01c-.15-.55-.31-1.12-.48-1.72-2.35-8.26-5.02-14.96-9.6-19.21-4.58-4.24-8.82-5.58-19.32-5.05-10.5.53-71.63,11-71.63,11-1.34-4.67-3.79-5.88-3.79-5.88,1.65,3.73.92,8.49-1.66,10.59l-11.14,45.28c12.3,3.54,24.73,5.39,34.47,4.1,27.14-3.6,74.48-28.63,84.47-34.04l1.88-1.03c-.33-5.47,2.58-15.05,2.58-15.05Z"/>
    <path class="cls-6" d="m396.13,485.7c-1.08.62.36,5.42,1.2,6.58.84,1.16,3.79,3.09,7.15,3.93,4.13,1.03,7.75,3.24,12,6.95,2.66,2.32,8.89,6.8,15.91,8.96,7.02,2.16,15.1,2.39,22.65-1.3,7.91-3.86,7.65-7.84,6.84-10.79l-65.75-14.33Z"/>
    <path class="cls-11" d="m414.3,462.25l-.78-2c1.42-.87,5.81,5.31,11.6,11.72,4.87,5.38,11.28,10.73,14.97,12.78,11.8,6.55,16.08,7.63,20.25,11.15,5.36,4.51-.76,10.86-10.85,13.82-10.51,3.08-19.08-.87-25.57-4.81-4.56-2.77-11.18-8.18-14.54-10.44-3.36-2.26-10.89-3.88-13.38-7-1.37-1.71-1.01-6.22-1.34-10.16-.31-3.62-2.52-9.92-1.28-10.01l1.59,2.92c9.08,2.45,19.47-3.03,19.33-7.97Z"/>
    <path class="cls-12" d="m414.3,462.25l-.78-2c1.42-.87,5.81,5.31,11.6,11.72,4.87,5.38,11.28,10.73,14.97,12.78,11.8,6.55,16.08,7.63,20.25,11.15,5.36,4.51-.76,10.86-10.85,13.82-10.51,3.08-19.08-.87-25.57-4.81-4.56-2.77-11.18-8.18-14.54-10.44-3.36-2.26-10.89-3.88-13.38-7-1.37-1.71-1.01-6.22-1.34-10.16-.31-3.62-2.52-9.92-1.28-10.01l1.59,2.92c9.08,2.45,19.47-3.03,19.33-7.97Z"/>
    <path class="cls-12" d="m445.18,488.94c-2.78-1.54-5.01-2.22-12.18-7.89-7.5-5.93-16.49-17.55-18.71-18.8,0,.03,0,.06-.01.09,0,3.28-4.6,6.76-10.34,7.99,5.03-.92,14.3,11,18.65,15.36,5.92,5.93,9.91,9.28,12.68,9.43,3.63-3.33,7.11-5.52,9.9-6.19Z"/>
    <path class="cls-26" d="m429.67,493.94c3.67-4.78,7.88-7.6,12.96-7.16"/>
    <path class="cls-26" d="m424.21,489.92c3.67-4.78,7.88-7.6,12.96-7.16"/>
    <path class="cls-26" d="m418.74,485.9c3.67-4.78,7.88-7.6,12.96-7.16"/>
    <path class="cls-26" d="m413.8,481.41c3.67-4.78,7.88-7.6,12.96-7.16"/>
    <path class="cls-26" d="m409.73,476.04c3.67-4.78,7.88-7.6,12.96-7.16"/>
    <path class="cls-9" d="m415.36,513.89c-15.86-6.23-23.44-13.1-35.54-29.65-9.02-22.32-18.44-68.5-24.9-79.02-4.97-8.09-10.84-13.24-26.1-11.29-31.47,4.02-81.31,14.43-81.31,14.43l-21.5-9.43-31.72,32.97c8.4,4.31,12.18,11.03,20.92,17.32,9.28,6.68,14.09,11.13,28.88,11.44,24.01.5,43.78-13.78,59.12-19.29,12.79-4.6,25.03-12.49,25.03-12.49.19,6.72,3.18,20.34,14.11,35.45,8.78,12.14,10.24,14.72,16.37,25.06,0,0,.35,1.39,1.59,2.92,1.56,2.94,1.34,8,1.6,11.52.93,12.9,6.21,3.96,24.51,19.74,4.27,3.69,8.29,6.77,14.02,8.04,5.08,1.13,10.72.91,15.76-.29,4.66-1.11,7.5-3.49,9.8-8.03,3.04-6.01-6.09-7.6-10.64-9.39Z"/>
    <path class="cls-22" d="m345.04,468.08c-1.25-1.15-2.14-2.29-3.13-3.65-10.93-15.11-14.03-27.34-14.22-34.06,0,0-6.38,3.63-24.9,13.91-14.25,7.91-32.79,20.2-57.8,18.96-12.87-.64-21.41-5.87-30.49-12.81-6.19-4.73-10.55-12.49-21.37-18.46,3.92-12.65,6.56-28.93,31.14-38.45l32.66,11.7s37.49-8.56,69.06-11.7c20.36-2.02,22.68.46,27.64,8.56,5.78,9.43,11.1,31.43,17.75,54.9-1.73,2.77-14.59,11.99-26.34,11.09Z"/>
    <path class="cls-6" d="m361.47,507.79c-1.08.62.36,5.42,1.2,6.58.84,1.16,3.79,3.09,7.15,3.93,4.13,1.03,7.75,3.24,12,6.95,2.66,2.32,8.89,6.8,15.91,8.96,7.02,2.16,15.1,2.39,22.65-1.3,7.91-3.86,7.65-7.84,6.84-10.79l-65.75-14.33Z"/>
    <path class="cls-11" d="m379.82,484.24l-.79-2.01c1.42-.87,5.63,5.42,11.43,11.83,4.87,5.38,11.28,10.73,14.97,12.78,11.8,6.55,16.08,7.63,20.25,11.15,5.36,4.51-.76,10.86-10.85,13.82-10.51,3.08-19.08-.87-25.57-4.81-4.56-2.77-11.18-8.18-14.54-10.44-3.36-2.26-10.89-3.88-13.38-7-1.37-1.71-1.01-6.22-1.34-10.16-.31-3.62-2.52-9.92-1.28-10.01l1.59,2.92c9.08,2.45,19.65-3.12,19.51-8.06Z"/>
    <path class="cls-12" d="m379.82,484.24l-.79-2.01c1.42-.87,5.63,5.42,11.43,11.83,4.87,5.38,11.28,10.73,14.97,12.78,11.8,6.55,16.08,7.63,20.25,11.15,5.36,4.51-.76,10.86-10.85,13.82-10.51,3.08-19.08-.87-25.57-4.81-4.56-2.77-11.18-8.18-14.54-10.44-3.36-2.26-10.89-3.88-13.38-7-1.37-1.71-1.01-6.22-1.34-10.16-.31-3.62-2.52-9.92-1.28-10.01l1.59,2.92c9.08,2.45,19.65-3.12,19.51-8.06Z"/>
    <path class="cls-12" d="m398.34,503.14c-7.5-5.93-16.33-17.47-18.55-18.71-.09,3.28-4.79,6.78-10.59,8h0c5.01-1.06,14.36,10.97,18.74,15.35,5.92,5.93,9.91,9.28,12.68,9.43,3.63-3.33,7.11-5.52,9.9-6.19-2.78-1.54-5.01-2.22-12.18-7.89Z"/>
    <path class="cls-26" d="m395,516.03c3.67-4.78,7.88-7.6,12.96-7.16"/>
    <path class="cls-26" d="m389.54,512.01c3.67-4.78,7.88-7.6,12.96-7.16"/>
    <path class="cls-26" d="m384.08,507.99c3.67-4.78,7.88-7.6,12.96-7.16"/>
    <path class="cls-26" d="m379.14,503.5c3.67-4.78,7.88-7.6,12.96-7.16"/>
    <path class="cls-26" d="m375.06,498.13c3.67-4.78,7.88-7.6,12.96-7.16"/>
    <g>
      <path class="cls-9" d="m129.51,364.68s-39.21-20.96-45.41-23.78l34.26-20.15-7.28-18.9s-50.33,16.45-59.97,21.66c-5.08,2.75-7.98,6.7-7.99,10.61-.02,6.52,3.81,14.65,12.4,21.97,18.28,15.58,45.47,30.41,69.62,43.71,8.1,4.39,17.23,10.31,17.23,10.31,2.74-5.81,6.19-26.04-12.88-45.43Z"/>
      <path class="cls-16" d="m84.1,340.91c-5.03,2.79-13.12,5.76-18.61,6.49,0,0,10.3,2.63,22.61-4.52l-4-1.97Z"/>
    </g>
    <g>
      <path class="cls-20" d="m169.5,289.25l-.26-.67c-7.95-20.62-21.22-21.14-42.79-12.59-15.94,6.32-28.66,18.19-29.51,34.14-.64,11.98,4.56,23.67,13.71,31.43,9.63,8.16,22.68,10.52,38.48,4.43,0,0,.01,0,.02,0,21.83-3.39,28.3-36.12,20.35-56.73Z"/>
      <path class="cls-9" d="m152.09,283.3c4.92.82,13.76,8.99,21.42,30.31,6.49,18.07,2.39,24.73-.03,27.13-2.42,2.4-8.34,3.79-14.16,4.99l4.14,10.75-25.43,5.23-7.59-19.99s-2.01,4.36-9.31,1.7c-6.02-2.2-10.1-8.25-7.96-13.17,2.14-4.91,8.99-6.45,13.44-2.33,0,0,3.31-.98,4.22-8.16,0,0,7.68-1.44,14.06-9.38,8.89-11.07,7.6-23.11,7.2-27.09Z"/>
      <path class="cls-20" d="m147.31,316.38c.47,1.3-.17,2.72-1.42,3.17-1.26.45-2.65-.25-3.12-1.55-.47-1.3.17-2.72,1.43-3.17,1.26-.45,2.65.25,3.12,1.55Z"/>
      <path class="cls-20" d="m165.07,302.54l-5.77-1.4c.33-1.62,1.89-2.62,3.49-2.24,1.59.39,2.62,2.02,2.29,3.64Z"/>
      <path class="cls-20" d="m142.01,310.2l-4.41,3.98c-1.16-1.19-1.1-3.04.11-4.14,1.22-1.1,3.14-1.03,4.29.16Z"/>
      <path class="cls-20" d="m166.45,308.65c.47,1.3-.17,2.72-1.42,3.17-1.26.45-2.65-.25-3.12-1.55-.47-1.3.17-2.72,1.42-3.17,1.26-.45,2.65.25,3.12,1.55Z"/>
      <path class="cls-16" d="m158.54,332.13c.47,1.3-.17,2.72-1.42,3.17-1.26.45-2.65-.25-3.12-1.55-.47-1.3.17-2.72,1.42-3.17,1.26-.45,2.65.25,3.12,1.55Z"/>
      <polygon class="cls-16" points="153.84 310.93 157.98 324.87 164.75 320.6 153.84 310.93"/>
      <path class="cls-16" d="m159.32,345.73c-6.05,1.47-19.21,2.63-22.87-1.34,0,0,1.75,2.71,6.46,4.38,4.71,1.67,17.79.55,17.79.55l-1.38-3.59Z"/>
      <path class="cls-20" d="m126.61,327.93l3.63,9.42h0c3.54-1.37,5.31-5.34,3.94-8.89l-3.35-8.7-4.22,8.16Z"/>
    </g>
  </g>
  <g id="Go_Letters" data-name="Go Letters">
    <g id="Go">
      <path class="cls-11" d="m239.12,34.16c-1.39-.3-2.59-.35-3.61-.17-1.02.19-1.9.54-2.63,1.07-.73.52-1.34,1.19-1.8,1.98-.47.8-.87,1.65-1.19,2.56-.2.51-.41,1.24-.63,2.17-.22.93-.44,1.9-.65,2.9-.22,1-.41,1.98-.57,2.95-.17.97-.29,1.72-.36,2.26-.12.96-.12,1.9,0,2.82.12.92.41,1.78.86,2.56.45.78,1.11,1.47,1.99,2.06.88.6,1.99,1.04,3.33,1.33,1.06.23,2.09.32,3.08.28.99-.04,1.89-.26,2.7-.64.81-.38,1.51-.96,2.1-1.73.59-.77,1.02-1.77,1.28-2.99l-5.14-1.1c-.45-.1-.8-.34-1.06-.74-.26-.4-.34-.82-.24-1.27l1.39-6.49c.1-.45.34-.8.74-1.06.4-.26.82-.34,1.27-.24l14.82,3.18c.45.1.8.34,1.06.74.26.4.34.82.24,1.27l-1.68,7.84c-.56,2.61-1.55,4.85-2.98,6.73-1.43,1.87-3.15,3.35-5.18,4.43-2.03,1.08-4.28,1.76-6.75,2.04-2.47.28-5.06.13-7.75-.45-2.94-.63-5.47-1.63-7.58-3.01-2.12-1.37-3.83-2.99-5.14-4.85-1.31-1.86-2.19-3.9-2.63-6.11-.44-2.21-.49-4.45-.13-6.72.28-1.69.62-3.49,1.03-5.41.41-1.92.85-3.75,1.31-5.48.56-2.23,1.51-4.26,2.84-6.08,1.33-1.83,2.97-3.33,4.9-4.49,1.94-1.16,4.16-1.93,6.68-2.31,2.51-.38,5.24-.25,8.18.38,2.86.61,5.34,1.59,7.45,2.91,2.11,1.33,3.82,2.81,5.13,4.43,1.32,1.63,2.26,3.3,2.83,5.03.57,1.72.75,3.29.53,4.69-.04.38-.23.67-.57.87-.34.2-.7.27-1.06.19l-8.15-1.75c-.61-.13-1.05-.42-1.32-.86-.27-.44-.53-.88-.77-1.32-.42-.86-1.05-1.7-1.9-2.52-.85-.82-2.27-1.45-4.27-1.88Z"/>
      <path class="cls-11" d="m293,61.87c-.09.62-.24,1.41-.45,2.37-.21.96-.4,1.74-.57,2.34-.5,1.94-1.35,3.68-2.53,5.22-1.19,1.54-2.63,2.8-4.33,3.78-1.71.98-3.65,1.62-5.83,1.92-2.18.3-4.51.19-7-.35-2.49-.54-4.67-1.39-6.53-2.56-1.86-1.17-3.37-2.55-4.52-4.14-1.15-1.59-1.95-3.33-2.4-5.22-.45-1.89-.5-3.82-.16-5.8.09-.62.24-1.41.44-2.37.21-.96.4-1.74.57-2.35.46-1.95,1.28-3.69,2.47-5.23,1.18-1.54,2.64-2.8,4.36-3.77,1.73-.98,3.68-1.62,5.86-1.95,2.18-.32,4.52-.21,7.01.32,2.49.53,4.67,1.4,6.52,2.58,1.86,1.19,3.38,2.58,4.55,4.18,1.17,1.6,1.97,3.34,2.4,5.22.43,1.89.47,3.82.13,5.79Zm-23.24-.38c-.21,1.58.09,2.91.9,4.01.81,1.09,2.04,1.82,3.67,2.17,1.63.35,3.04.19,4.23-.47,1.19-.66,2.01-1.76,2.46-3.28.21-.6.4-1.28.57-2.05.17-.77.27-1.48.32-2.11.21-1.58-.09-2.91-.9-4.01-.81-1.09-2.03-1.81-3.67-2.17-1.63-.35-3.04-.19-4.23.47-1.19.67-2.01,1.76-2.47,3.28-.21.59-.4,1.28-.57,2.06-.17.78-.28,1.48-.32,2.11Z"/>
      <path class="cls-11" d="m306.4,82.11c-.1.45-.34.8-.74,1.06-.4.26-.82.34-1.27.24l-7.71-1.66c-.45-.1-.8-.34-1.06-.74-.26-.4-.34-.82-.24-1.27l1.33-6.18c.1-.45.34-.8.74-1.06.4-.26.82-.34,1.27-.24l7.72,1.66c.45.1.8.34,1.06.74.26.4.34.82.24,1.27l-1.33,6.18Zm2.83-13.17c-.1.45-.34.8-.74,1.06-.4.26-.82.34-1.27.24l-7.72-1.66c-.45-.1-.8-.34-1.06-.74-.26-.4-.34-.82-.24-1.27l5.67-26.39c.1-.45.34-.8.74-1.06.4-.26.82-.34,1.27-.24l7.72,1.66c.45.1.8.34,1.06.74.26.4.34.82.24,1.27l-5.67,26.39Z"/>
    </g>
    <g id="Go-2" data-name="Go">
      <path class="cls-11" d="m238.94,149.69c-1.34.48-2.39,1.06-3.16,1.76-.77.7-1.33,1.46-1.68,2.29-.35.83-.51,1.71-.49,2.64.02.92.13,1.86.33,2.8.1.54.3,1.26.61,2.18.3.91.63,1.85.97,2.81.34.97.7,1.9,1.07,2.81.37.91.66,1.61.88,2.11.4.88.9,1.68,1.48,2.4.59.72,1.28,1.3,2.08,1.72.79.43,1.72.66,2.78.71,1.06.05,2.24-.16,3.53-.63,1.02-.36,1.94-.83,2.76-1.38.82-.56,1.47-1.21,1.96-1.96.49-.75.78-1.61.88-2.57.1-.97-.06-2.04-.48-3.22l-4.96,1.76c-.43.15-.86.13-1.29-.07-.43-.2-.72-.52-.87-.95l-2.23-6.26c-.15-.43-.13-.86.07-1.29.2-.43.52-.72.95-.87l14.28-5.09c.43-.15.86-.13,1.29.07.43.2.72.52.87.95l2.69,7.55c.9,2.52,1.23,4.95,1,7.29-.23,2.34-.92,4.51-2.08,6.49-1.15,1.98-2.71,3.75-4.67,5.28-1.96,1.54-4.23,2.77-6.83,3.69-2.83,1.01-5.51,1.48-8.03,1.43-2.52-.05-4.83-.53-6.92-1.42-2.09-.89-3.91-2.17-5.45-3.81-1.54-1.65-2.75-3.53-3.64-5.65-.65-1.58-1.31-3.3-1.97-5.15-.66-1.85-1.25-3.63-1.77-5.35-.69-2.19-.95-4.41-.78-6.67.17-2.25.77-4.39,1.81-6.4,1.04-2.01,2.52-3.83,4.47-5.48,1.94-1.64,4.33-2.97,7.16-3.98,2.75-.98,5.37-1.46,7.86-1.44,2.49.02,4.72.38,6.7,1.07,1.98.69,3.66,1.62,5.05,2.79,1.39,1.17,2.36,2.41,2.92,3.71.17.34.16.69-.03,1.04-.19.35-.45.59-.81.72l-7.85,2.79c-.59.21-1.12.2-1.58-.04-.46-.23-.91-.47-1.35-.71-.8-.51-1.78-.89-2.94-1.15s-2.7-.04-4.62.65Z"/>
      <path class="cls-11" d="m299.34,144.94c.25.58.54,1.33.87,2.25.33.92.58,1.69.75,2.29.59,1.92.79,3.84.59,5.77-.2,1.93-.77,3.76-1.7,5.49-.94,1.73-2.25,3.3-3.94,4.7-1.69,1.4-3.74,2.53-6.14,3.38-2.4.86-4.7,1.28-6.9,1.26-2.2-.02-4.21-.4-6.03-1.14-1.82-.75-3.41-1.81-4.79-3.18-1.38-1.37-2.44-2.99-3.19-4.85-.25-.58-.54-1.33-.87-2.25-.33-.92-.58-1.69-.75-2.29-.63-1.9-.85-3.82-.65-5.75.2-1.93.78-3.77,1.73-5.5.95-1.74,2.28-3.32,3.96-4.74,1.69-1.42,3.73-2.56,6.13-3.41,2.4-.85,4.7-1.26,6.91-1.23,2.21.04,4.23.42,6.06,1.16,1.84.74,3.44,1.8,4.79,3.18,1.35,1.38,2.41,3,3.16,4.86Zm-19.96,11.9c.65,1.45,1.61,2.43,2.87,2.93,1.27.5,2.68.47,4.26-.09,1.57-.56,2.69-1.43,3.35-2.63.66-1.19.79-2.55.37-4.09-.13-.62-.33-1.3-.6-2.05-.27-.75-.54-1.4-.83-1.96-.65-1.45-1.61-2.43-2.87-2.93-1.26-.5-2.68-.47-4.26.09-1.58.56-2.69,1.44-3.35,2.62-.66,1.19-.79,2.55-.37,4.09.13.62.33,1.3.6,2.05.27.75.54,1.4.83,1.96Z"/>
      <path class="cls-11" d="m316.86,142.42c.16.43.13.86-.07,1.29-.2.43-.52.72-.95.87l-7.43,2.65c-.43.15-.86.13-1.29-.07-.43-.2-.72-.52-.87-.95l-9.06-25.43c-.15-.43-.13-.86.07-1.29.2-.43.52-.72.95-.87l7.43-2.65c.43-.15.86-.13,1.29.07.43.2.72.52.87.95l9.06,25.43Zm4.52,12.69c.16.43.13.86-.07,1.29-.2.43-.52.72-.95.87l-7.43,2.65c-.43.15-.86.13-1.29-.07-.43-.2-.72-.52-.87-.95l-2.12-5.96c-.15-.43-.13-.86.07-1.29.2-.43.52-.72.95-.87l7.43-2.65c.43-.16.86-.13,1.29.07.43.2.72.52.87.95l2.12,5.96Z"/>
    </g>
  </g>
  <g id="Speech_Bubble" data-name="Speech Bubble">
    <path class="cls-11" d="m127.2,257.66l-7.6-19.49,6.12-17.66v-10.81l-18.72,10.81v10.81l8.05,19.13c.14.24.33.39.55.49h0s11.62,6.72,11.62,6.72Z"/>
    <path class="cls-12" d="m127.2,257.66l-7.6-19.49,6.12-17.66v-10.81l-18.72,10.81v10.81l8.05,19.13c.14.24.33.39.55.49h0s11.62,6.72,11.62,6.72Z"/>
    <path class="cls-11" d="m162.89,142.69c0-3.58-2.51-7.93-5.61-9.72l-4.57-2.64c-3.1-1.79-8.13-1.79-11.23,0l-57.6,33.12c-3.1,1.79-5.61,6.14-5.61,9.72v63.55c0,3.58,2.51,7.93,5.61,9.72l4.57,2.64c3.1,1.79,8.13,1.79,11.23,0l19.06-10.96,8.03,19.11c.51.89,1.83.76,2.17-.21l8.49-29.7,19.84-11.37c3.1-1.79,5.61-6.14,5.61-9.72v-63.55Z"/>
    <path class="cls-12" d="m78.27,236.73c0,3.58,2.51,7.93,5.61,9.72l4.57,2.64c2.8,1.62,7.16,1.76,10.27.45-2.64,1-4.65-.49-4.65-3.69v-63.55c0-1.79.63-3.77,1.64-5.53l-15.8-9.12c-1.02,1.76-1.64,3.74-1.64,5.53v63.55Z"/>
    <path class="cls-8" d="m162.71,141.09c-.65-2.38-2.83-3.14-5.42-1.65l-57.61,33.13c-1.54.89-2.96,2.41-3.95,4.19l-15.79-9.11c1.02-1.78,2.41-3.3,3.95-4.19l57.58-33.13c3.12-1.78,8.14-1.78,11.24,0l4.58,2.65c2.64,1.52,4.87,4.92,5.42,8.12Z"/>
    <path id="Heart" class="cls-17" d="m104.43,200.18c0-4.47,1.1-9.15,2.88-13.28h0s.04-.1.04-.1c2.09-4.78,5.13-8.8,8.51-10.74,4.92-2.84,9.11,1.82,10.69,8.33.16.66.93.69,1.04.05,1.49-8.5,5.8-18.45,10.87-21.35,3.37-1.94,6.41-1.41,8.49.98l.04.05v.02c1.77,2.08,2.85,5.51,2.85,9.98-.02,13.86-8.37,26.3-15.37,39.41l-7.55,12.66-7.19-4.2c-6.98-5.08-15.31-7.95-15.29-21.81Z"/>
    <path class="cls-11" d="m137.43,195.64l-3.22-8.46c-.15-.55-.68-.93-1.25-.93-.58.02-1.08.42-1.2.99l-4.99,19.42-3.98-10.88c-.18-.5-.66-.83-1.22-.83h-.02c-.55.02-1.02.39-1.17.92l-2.96,10.51-10.27,5.93.24.35c.31.45.67.92,1.1,1.42l.21.25,10.43-6.02c.29-.17.49-.43.58-.75l2.04-7.24,4.12,11.28c.2.53.7.85,1.27.83.56-.04,1.03-.44,1.15-.99l4.82-18.64,2.3,5.08c.1.38.38.69.74.84s.78.12,1.11-.07l8.21-4.74.05-.12c.4-.89.78-1.78,1.14-2.67l.43-1.07-9.67,5.58Z"/>
  </g>
</svg>