<?xml version="1.0" encoding="UTF-8"?>
<svg id="Layer_2" data-name="Layer 2" xmlns="http://www.w3.org/2000/svg" viewBox="0 0 439.94 376.84">
  <defs>
    <style>
      .cls-1 {
        fill: #58da08;
      }

      .cls-1, .cls-2, .cls-3, .cls-4 {
        stroke-width: 0px;
      }

      .cls-2 {
        fill: #59db09;
      }

      .cls-3 {
        fill: #47af07;
      }

      .cls-4 {
        fill: #47b007;
      }
    </style>
  </defs>
  <g id="Layer_1-2" data-name="Layer 1">
    <path class="cls-1" d="m218.94,141.84c5.15,4.31,9.97,8.82,14.72,13.57.75.74,1.49,1.48,2.26,2.25,2.48,2.47,4.97,4.95,7.45,7.42,1.79,1.78,3.57,3.56,5.36,5.33,5.34,5.32,10.68,10.64,16.02,15.97,1.51,1.5,3.02,3.01,4.52,4.51,9.37,9.34,18.74,18.69,28.1,28.04,2.16,2.16,4.33,4.32,6.49,6.48.54.54,1.08,1.07,1.63,1.63,8.73,8.72,17.47,17.43,26.22,26.13,8.98,8.94,17.96,17.89,26.92,26.85,5.03,5.03,10.07,10.05,15.12,15.07,4.74,4.71,9.47,9.43,14.18,14.16,1.74,1.74,3.48,3.47,5.23,5.2,2.37,2.35,4.73,4.72,7.09,7.09.7.69,1.4,1.38,2.13,2.09.62.63,1.25,1.27,1.89,1.92.55.55,1.09,1.09,1.66,1.65q1.03,1.65.81,3.72c-1.11,2.75-2.83,4.34-4.93,6.42-.88.88-1.76,1.76-2.67,2.67-.97.95-1.93,1.9-2.9,2.85-.99.98-1.97,1.96-2.96,2.94-2.59,2.58-5.19,5.15-7.79,7.71-2.65,2.62-5.3,5.25-7.94,7.88-5.19,5.16-10.39,10.3-15.59,15.45-3.32-1.58-5.58-3.33-8.25-5.88-10.57-9.67-22.3-18.06-34.75-25.12-.66-.38-1.32-.77-2.01-1.16-29.52-16.96-62.67-25.32-96.62-25.15-.79,0-1.58,0-2.39,0-26.28.11-51.72,4.94-75.99,15.31-.67.29-1.34.57-2.04.87-20.94,9.06-43.62,22.22-58.48,39.95q-1.48,1.19-3.29,1.02c-2.91-1.1-4.49-2.73-6.7-4.92-.88-.87-1.77-1.74-2.68-2.63-.96-.95-1.91-1.91-2.86-2.86-.98-.98-1.97-1.95-2.95-2.93-2.06-2.04-4.11-4.09-6.16-6.15-2.63-2.63-5.27-5.25-7.92-7.86-2.03-2.01-4.06-4.03-6.08-6.05-.97-.97-1.95-1.93-2.92-2.9-1.36-1.34-2.71-2.7-4.06-4.06-.77-.77-1.54-1.54-2.34-2.33q-1.52-2.14-1.31-4.07c.91-2.42,1.98-3.65,3.81-5.48.65-.66,1.3-1.31,1.97-1.99.72-.71,1.44-1.42,2.18-2.16q1.14-1.14,2.3-2.31c2.56-2.57,5.13-5.12,7.7-7.67,1.83-1.83,3.67-3.67,5.5-5.5,3.95-3.95,7.91-7.9,11.87-11.84,5.73-5.7,11.44-11.41,17.16-17.12,9.27-9.27,18.55-18.52,27.83-27.78,9.02-8.99,18.03-17.98,27.04-26.98.56-.55,1.11-1.11,1.68-1.68,2.79-2.78,5.57-5.56,8.36-8.35,23.11-23.08,46.24-46.16,69.37-69.22Z"/>
    <path class="cls-1" d="m80.94,43.84c3.06,1.47,5.18,2.93,7.58,5.35q1.02,1.02,2.06,2.06c.72.73,1.45,1.47,2.19,2.22.75.75,1.5,1.5,2.27,2.28,2.39,2.4,4.77,4.81,7.15,7.21,1.62,1.63,3.24,3.26,4.86,4.89,3.97,3.99,7.93,7.99,11.89,11.99-1.48,3.45-3.43,5.67-6.08,8.31-.84.84-1.68,1.68-2.55,2.55q-1.36,1.35-2.75,2.72c-.93.93-1.86,1.85-2.82,2.81-2.46,2.46-4.94,4.91-7.41,7.36-2.52,2.5-5.04,5.01-7.56,7.52-4.94,4.92-9.88,9.83-14.83,14.73,5.03,6.16,10.62,11.69,16.3,17.25,2.33,2.28,4.64,4.58,6.96,6.87,4.3,4.26,8.61,8.51,12.93,12.75,3.02,2.96,6.03,5.93,9.03,8.91,1.14,1.13,2.29,2.26,3.44,3.38,1.6,1.56,3.19,3.14,4.78,4.72.91.89,1.82,1.79,2.75,2.71q1.81,2.41,1.81,4.5c-1.18,2.27-2.5,3.78-4.32,5.58-.7.7-1.4,1.4-2.12,2.12-.76.74-1.52,1.49-2.3,2.26-.78.77-1.55,1.54-2.35,2.34-2.48,2.46-4.97,4.91-7.46,7.37-1.68,1.67-3.36,3.34-5.04,5-4.12,4.09-8.26,8.17-12.39,12.25-5.64-4.7-10.87-9.7-16.07-14.88q-1.32-1.31-2.67-2.64c-2.89-2.87-5.78-5.74-8.67-8.61-1-.99-2-1.98-2.99-2.98-4.15-4.12-8.29-8.25-12.43-12.38-5.92-5.91-11.85-11.8-17.8-17.69-4.19-4.15-8.37-8.31-12.54-12.47-2.49-2.49-4.98-4.97-7.49-7.44-2.78-2.75-5.55-5.52-8.31-8.29q-1.25-1.23-2.53-2.48c-.75-.75-1.49-1.51-2.26-2.29-.66-.65-1.31-1.3-1.99-1.98q-1.26-1.88-1.16-3.9c1.06-2.32,2.25-3.7,4.06-5.5q1.01-1.02,2.04-2.06c.74-.73,1.49-1.47,2.26-2.22.78-.78,1.56-1.56,2.36-2.37,2.58-2.58,5.18-5.15,7.78-7.73,1.79-1.79,3.59-3.58,5.38-5.36,4.24-4.23,8.48-8.45,12.73-12.66,4.84-4.8,9.66-9.61,14.49-14.42,9.93-9.9,19.86-19.78,29.81-29.66Z"/>
    <path class="cls-1" d="m356.94,43.84c5.18,4.33,10.01,8.87,14.77,13.66.74.74,1.48,1.48,2.25,2.25,2.43,2.43,4.86,4.87,7.29,7.3,1.69,1.7,3.39,3.39,5.08,5.09,4.44,4.45,8.88,8.9,13.32,13.35,4.54,4.55,9.08,9.09,13.61,13.63,8.89,8.9,17.79,17.81,26.67,26.72-4.73,5.69-9.79,10.93-15.03,16.15-.89.89-1.78,1.78-2.69,2.69-2.42,2.42-4.84,4.83-7.26,7.24-2.54,2.53-5.07,5.06-7.6,7.6-4.79,4.79-9.58,9.57-14.37,14.35-5.46,5.45-10.92,10.9-16.37,16.35-11.22,11.21-22.44,22.41-33.66,33.61q-7.38-6.25-10.55-9.44c-.6-.6-1.2-1.2-1.82-1.82-.62-.63-1.24-1.25-1.88-1.89q-.98-.99-1.99-1.99c-2.07-2.08-4.14-4.16-6.2-6.23-1.41-1.42-2.83-2.84-4.24-4.25-3.44-3.45-6.88-6.91-10.32-10.37,1.61-4.02,4.44-6.7,7.46-9.69.56-.56,1.11-1.11,1.69-1.69,1.83-1.83,3.68-3.66,5.52-5.49,1.28-1.27,2.55-2.54,3.83-3.82,3.35-3.34,6.71-6.68,10.07-10.02,3.43-3.41,6.85-6.82,10.28-10.24,6.72-6.69,13.44-13.38,20.16-20.07-4.69-5.64-9.7-10.83-14.9-16-.83-.83-1.67-1.67-2.53-2.53-2.65-2.64-5.3-5.28-7.95-7.92-1.8-1.8-3.61-3.6-5.41-5.4-4.4-4.39-8.81-8.78-13.21-13.17,1.38-3.09,2.95-5.2,5.35-7.58.68-.68,1.36-1.36,2.06-2.06q1.1-1.08,2.22-2.19c.75-.75,1.5-1.5,2.28-2.27,2.4-2.39,4.81-4.77,7.21-7.15,1.63-1.62,3.26-3.24,4.89-4.86,3.99-3.97,7.99-7.93,11.99-11.89Z"/>
    <path class="cls-2" d="m257.81,14.65c12.07,11.52,17.1,25.66,18.44,42-.58,16.47-6.65,29.69-18.31,41.19q-.85.86-1.71,1.74c-10.67,10.04-25.7,13.95-40.04,13.54-16.47-1.42-29.21-8.29-40.25-20.28-10.91-14.12-13.27-28.62-12-46,.83-4.62,2.14-8.7,4-13,.39-.93.78-1.86,1.18-2.81,7.3-15.2,20.02-23.27,35.24-29.12,18.48-5.23,39.1.7,53.45,12.74Z"/>
    <path class="cls-3" d="m324.94,247.84c-.82.24-1.63.49-2.47.74-35.37,11.16-70.1,29.86-97.35,55.23-2.69,2.5-5.48,4.86-8.29,7.22q-2.1,1.85-3.78,4.88c-3.34,4.05-7.73,4.01-12.69,4.56-1.25.12-2.5.23-3.79.36-26.35,3.05-54.04,10.4-76.56,25.06-1.01.64-2.02,1.28-3.06,1.94l-2-1c9.4-7.45,19.12-14.27,29.12-20.88,1.47-.98,2.95-1.95,4.42-2.93,4.14-2.74,8.3-5.47,12.45-8.2q1.49-.97,3-1.97c12.67-8.26,25.73-15.78,39-23.03.98-.54,1.96-1.08,2.98-1.63,31.79-17.28,64.62-30.64,100.02-38.37.82-.18,1.64-.37,2.49-.56q12.58-2.82,16.51-1.44Z"/>
    <path class="cls-4" d="m364.94,126.84c4.03,1.01,4.82,1.45,7.58,4.23.68.68,1.36,1.36,2.06,2.06.72.74,1.45,1.48,2.19,2.24.75.75,1.5,1.51,2.27,2.28,2.39,2.41,4.77,4.83,7.15,7.24,1.62,1.63,3.24,3.27,4.86,4.9,3.97,4,7.93,8.02,11.89,12.04-1.55,3.33-3.31,5.49-6,8-3.09-1.38-5.2-2.95-7.58-5.35-.68-.68-1.36-1.36-2.06-2.06-.72-.73-1.45-1.47-2.19-2.22-.75-.75-1.5-1.5-2.27-2.28-2.39-2.4-4.77-4.81-7.15-7.21-1.62-1.63-3.24-3.26-4.86-4.89-3.97-3.99-7.93-7.99-11.89-11.99,1.98-2.31,3.96-4.62,6-7Z"/>
    <path class="cls-3" d="m74.03,127.01c2.55,1.11,4.06,2.78,5.91,4.83-1.38,3.09-2.95,5.2-5.35,7.58-.68.68-1.36,1.36-2.06,2.06-.73.72-1.47,1.45-2.22,2.19-.75.75-1.5,1.5-2.28,2.27-2.4,2.39-4.81,4.77-7.21,7.15-1.63,1.62-3.26,3.24-4.89,4.86-3.99,3.97-7.99,7.93-11.99,11.89-3.74-1.68-5.56-3.69-8-7,5.04-5.16,10.09-10.31,15.16-15.44,1.72-1.75,3.44-3.5,5.16-5.26,2.46-2.52,4.94-5.03,7.42-7.53q1.15-1.19,2.32-2.4c.72-.72,1.44-1.44,2.18-2.18.63-.64,1.26-1.28,1.91-1.94q1.85-1.25,3.94-1.07Z"/>
  </g>
</svg>